<svg version="1.2" xmlns="http://www.w3.org/2000/svg" viewBox="0 0 100 100" width="100" height="100">
	<title>add-female-user-svg</title>
	<style>
		.s0 { fill: #ffffff } 
		.s1 { fill: #f1bc19 } 
		.s2 { fill: #e6edb7 } 
		.s3 { fill: #88ae45 } 
		.s4 { fill: #fbcd59 } 
		.s5 { fill: #f6cca4 } 
		.s6 { fill: #edbc94 } 
		.s7 { opacity: .8;fill: #f4989e } 
		.s8 { fill: #472b29 } 
		.s9 { fill: #6d1b18 } 
		.s10 { fill: #ee3e54 } 
		.s11 { fill: #fdfcef } 
		.s12 { opacity: .4;fill: #472b29 } 
		.s13 { fill: #512c2b } 
		.s14 { fill: #3a2221 } 
	</style>
	<path id="Layer" class="s0" d="m19.8 55.1q-0.4 0-0.6 0.3-0.3 0.2-0.3 0.6 0 0.4 0.3 0.6 0.2 0.3 0.6 0.3 0.4 0 0.6-0.3 0.3-0.2 0.3-0.6 0-0.4-0.3-0.6-0.2-0.3-0.6-0.3zm59.1-24.7q-0.3 0-0.5 0.2-0.2 0.2-0.2 0.5 0 0.3 0.2 0.5 0.2 0.2 0.5 0.2 0.3 0 0.5-0.2 0.2-0.2 0.2-0.5 0-0.3-0.2-0.5-0.2-0.2-0.5-0.2z"/>
	<path id="Layer" class="s1" d="m76.2 11.2q-0.4 0-0.6 0.3-0.3 0.2-0.3 0.6 0 0.4 0.3 0.6 0.2 0.3 0.6 0.3 0.4 0 0.6-0.3 0.3-0.2 0.3-0.6 0-0.4-0.3-0.6-0.2-0.3-0.6-0.3zm-55.9 51.6q-0.4 0-0.6 0.3-0.3 0.2-0.3 0.6 0 0.4 0.3 0.6 0.2 0.3 0.6 0.3 0.4 0 0.6-0.3 0.3-0.2 0.3-0.6 0-0.4-0.3-0.6-0.2-0.3-0.6-0.3z"/>
	<path id="Layer" class="s2" d="m49.1 11.8c-9.9 0-19.5 4-26.5 11-7 7-11 16.6-11 26.5 0 9.9 4 19.5 11 26.5 7 7 16.6 11 26.5 11 9.9 0 19.5-4 26.5-11 7-7 11-16.6 11-26.5 0-9.9-4-19.5-11-26.5-7-7-16.6-11-26.5-11z"/>
	<path id="Layer" class="s1" d="m81.7 10.2c-1.1 0-2.1 0.4-2.8 1.2-0.8 0.7-1.2 1.7-1.2 2.8 0 1.1 0.4 2.1 1.2 2.8 0.7 0.8 1.7 1.2 2.8 1.2 1.1 0 2.1-0.4 2.8-1.2 0.8-0.7 1.2-1.7 1.2-2.8 0-1.1-0.4-2.1-1.2-2.8-0.7-0.8-1.7-1.2-2.8-1.2z"/>
	<path id="Layer" class="s3" d="m85.7 21.4c-0.5 0-1 0.2-1.3 0.6-0.4 0.3-0.6 0.8-0.6 1.3 0 0.5 0.2 1 0.6 1.3 0.3 0.4 0.8 0.6 1.3 0.6 0.5 0 1-0.2 1.3-0.6 0.4-0.3 0.6-0.8 0.6-1.3 0-0.5-0.2-1-0.6-1.3-0.3-0.4-0.8-0.6-1.3-0.6z"/>
	<path id="Layer" class="s4" d="m76.7 73.8c-0.5 0-1 0.2-1.3 0.6-0.4 0.3-0.6 0.8-0.6 1.3 0 0.5 0.2 1 0.6 1.3 0.3 0.4 0.8 0.6 1.3 0.6 0.5 0 1-0.2 1.3-0.6 0.4-0.3 0.6-0.8 0.6-1.3 0-0.5-0.2-1-0.6-1.3-0.3-0.4-0.8-0.6-1.3-0.6zm-63.2-15c-1.1 0-2.1 0.4-2.8 1.2-0.8 0.7-1.2 1.7-1.2 2.8 0 1.1 0.4 2.1 1.2 2.8 0.7 0.8 1.7 1.2 2.8 1.2 1.1 0 2.1-0.4 2.8-1.2 0.8-0.7 1.2-1.7 1.2-2.8 0-1.1-0.4-2.1-1.2-2.8-0.7-0.8-1.7-1.2-2.8-1.2z"/>
	<path id="Layer" class="s3" d="m23.8 85c-0.5 0-1 0.2-1.3 0.6-0.4 0.3-0.6 0.8-0.6 1.3 0 0.5 0.2 1 0.6 1.3 0.3 0.4 0.8 0.6 1.3 0.6 0.5 0 1-0.2 1.3-0.6 0.4-0.3 0.6-0.8 0.6-1.3 0-0.5-0.2-1-0.6-1.3-0.3-0.4-0.8-0.6-1.3-0.6z"/>
	<path id="Layer" class="s0" d="m75.3 27.8c-0.5 0-0.9 0.2-1.3 0.5-0.3 0.4-0.5 0.8-0.5 1.3 0 0.5 0.2 0.9 0.5 1.3 0.4 0.3 0.8 0.5 1.3 0.5 0.5 0 0.9-0.2 1.3-0.5 0.3-0.4 0.5-0.8 0.5-1.3 0-0.5-0.2-0.9-0.5-1.3-0.4-0.3-0.8-0.5-1.3-0.5zm-58 20.4c-0.7 0-1.3 0.3-1.8 0.7-0.4 0.5-0.7 1.1-0.7 1.8 0 0.7 0.3 1.3 0.7 1.8 0.5 0.4 1.1 0.7 1.8 0.7 0.7 0 1.3-0.3 1.8-0.7 0.4-0.5 0.7-1.1 0.7-1.8 0-0.7-0.3-1.3-0.7-1.8-0.5-0.4-1.1-0.7-1.8-0.7z"/>
	<path id="Layer" class="s5" d="m59.5 40.9c0.1-1.5-0.3-2.8-0.2-3.6-1.3-1.7-2.2-3.6-4-4.8-2.1-1.3-4.4-2.2-6.8-2.8-5.7-1.4-11.3 2.7-13.1 8.1l-0.1 0.1c0.2 1 0.3 2 0.4 2.9-1.5 0-2.3 0.8-1.8 2.4 0 0 0.6 2.6 1 3.9 0.1 0.7 0.8 1.2 1.5 1.2 0 0.8 0 1.7 0 2.5 0 1 0.3 2 0.8 2.8 1.5 2.2 9.2 7.2 11.1 7 3 0 9-5.1 10.6-7.7 0.3-0.5 0.4-1.1 0.5-1.7q0-1.5 0-3c0.6-0.1 1.1-0.6 1.3-1.2 0.4-1.3 1-3.9 1-3.9 0.5-1.4-0.7-2.2-2.2-2.2z"/>
	<path id="Layer" class="s6" d="m64.1 66.5l-0.3-0.1-0.6-0.2c-1.2-0.5-9.3-3.3-9.3-3.3-0.6-0.2-1-0.6-1.2-1.1-0.2-1-0.3-1.9-0.2-2.9-1.4 0.6-2.8 1.1-4.2 1.4-1.9 0.2-5.2-2.3-5.2-2.3 0 0-0.1 3-0.2 3.7-0.2 0.6-0.7 1-1.3 1.1l-7.7 2.6c-0.8 0.2-1.5 0.5-2.2 0.9-1.6 1.1-2.8 2.8-3.3 4.7 0 0.1 0 0.3-0.1 0.6-0.1 0.5-0.2 0.9-0.2 1.4 0 0.5-0.1 7.1-0.1 7.7 8.6 4.8 15.4 5 25.9 5 4.6 0 10-3.2 14.1-4.8-0.4-9.5 0.3-13.1-3.9-14.4z"/>
	<g id="Layer" style="opacity: .3">
		<path id="Layer" class="s7" d="m40.7 47.5c-0.5 0-1 0.2-1.4 0.6-0.4 0.4-0.6 0.9-0.6 1.4 0 0.5 0.2 1 0.6 1.4 0.4 0.4 0.9 0.6 1.4 0.6 0.5 0 1-0.2 1.4-0.6 0.4-0.4 0.6-0.9 0.6-1.4 0-0.5-0.2-1-0.6-1.4-0.4-0.4-0.9-0.6-1.4-0.6zm15.1 0c-0.5 0-1 0.2-1.4 0.6-0.4 0.4-0.6 0.9-0.6 1.4 0 0.5 0.2 1 0.6 1.4 0.4 0.4 0.9 0.6 1.4 0.6 0.5 0 1-0.2 1.4-0.6 0.4-0.4 0.6-0.9 0.6-1.4 0-0.5-0.2-1-0.6-1.4-0.4-0.4-0.9-0.6-1.4-0.6z"/>
	</g>
	<path id="Layer" class="s8" d="m36.6 49.1c-0.1 0-0.2-0.1-0.2-0.2l-0.8-8c0-0.1 0.1-0.2 0.2-0.2 0.1 0 0.2 0.1 0.2 0.2l0.8 8c0.1 0.1 0 0.2-0.2 0.2q0.1 0 0 0zm22.6-0.4c-0.1 0-0.2-0.1-0.2-0.2l0.5-8.1c0-0.1 0.1-0.2 0.2-0.2 0.1 0 0.2 0.1 0.2 0.2l-0.5 8.1c0 0.1-0.1 0.2-0.2 0.2z"/>
	<path id="Layer" class="s9" d="m44.8 53.7c0 0.2-0.1 0.3-0.1 0.5 0 1.4 1.5 2.5 3.5 2.5 2 0 3.5-1.1 3.5-2.5 0-0.2 0-0.3-0.1-0.5z"/>
	<path id="Layer" class="s10" d="m50 56.3c-0.5-0.4-1.2-0.6-1.8-0.6q-1 0-1.8 0.6c1.1 0.5 2.4 0.5 3.6 0z"/>
	<path id="Layer" class="s11" d="m45.8 53.7v0.4c0 0.4 0.5 0.7 1.1 0.7h2.6c0.6 0 1.1-0.3 1.1-0.7v-0.4z"/>
	<path id="Layer" fill-rule="evenodd" class="s8" d="m48.2 56.9c-2 0-3.6-1.2-3.6-2.7 0-0.2 0-0.4 0.1-0.5 0-0.1 0.1-0.1 0.2-0.1h6.8c0.1 0 0.2 0.1 0.2 0.1 0 0.2 0.1 0.3 0.1 0.5-0.2 1.4-1.8 2.7-3.8 2.7zm-3.3-3q0 0.2 0 0.3c0 1.3 1.5 2.3 3.2 2.3 1.8 0 3.3-1 3.3-2.3q0-0.2 0-0.3z"/>
	<path id="Layer" class="s11" d="m39.1 63.7c-0.2 9 17.4 9.6 16.2-0.7l4.9 1.7 1.4 19.4c0 0-16.1 5.1-28.4-0.7l0.7-18z"/>
	<path id="Layer" class="s12" d="m48.2 51.8c0.8 0 1.5-0.3 2-0.9 0-0.1 0-0.1 0-0.2-0.1 0-0.1 0-0.2 0-1 0.9-2.6 0.9-3.6 0h-0.1-0.1c-0.1 0-0.1 0.1 0 0.2 0.5 0.6 1.2 0.9 2 0.9zm0.9 6.7c0 0 0.1 0 0 0 0.1-0.1 0-0.2 0-0.2h-1.8c0 0-0.1 0-0.1 0.1 0 0.1 0 0.1 0.1 0.1z"/>
	<path id="Layer" fill-rule="evenodd" class="s13" d="m46.2 39.8c-2.4-0.7-4.9-1-7.4-0.8-0.1 0-0.2 0.1-0.2 0.2 0 0.1 0.1 0.2 0.2 0.2 0 0 5.1 0.9 6.6 1.4h0.1c0.1 0 0.2 0 0.2-0.1l0.6-0.7c0-0.1 0-0.1 0-0.2 0 0-0.1 0-0.1 0zm3.8-0.2c0 0.1 0 0.1 0 0.2l0.7 0.7c0 0.1 0.1 0.1 0.2 0.1h0.1c1.6-0.5 6.7-1.1 6.7-1.1 0.1 0 0.2-0.1 0.2-0.2 0-0.1-0.1-0.2-0.2-0.2-2.5-0.3-5.1-0.2-7.5 0.4-0.1 0.1-0.2 0.1-0.2 0.1z"/>
	<path id="Layer" class="s8" d="m42.6 41.8c-0.5 0-1 0.3-1.2 0.8 0.1 0 0.1 0 0.2 0 0.5 0.1 0.8 0.5 0.7 0.9 0 0.4-0.3 0.7-0.7 0.7-0.1 0-0.3 0-0.4-0.1 0.1 0.7 0.7 1.2 1.4 1.3 1-0.2 1.6-1.3 1.4-2.3-0.2-0.6-0.7-1.1-1.4-1.3zm11 0c-0.4 0-0.8 0.2-1.1 0.6q0.2 0 0.3 0c0.5 0.1 0.8 0.5 0.7 0.9 0 0.4-0.3 0.7-0.7 0.7-0.3 0-0.5-0.1-0.6-0.4 0.2 0.8 1 1.3 1.8 1.1 0.8-0.2 1.3-1 1.1-1.8-0.2-0.6-0.8-1-1.5-1.1z"/>
	<path id="Layer" fill-rule="evenodd" class="s8" d="m47.3 86.9c-7 0-14.3-1.7-19.6-6.4-0.1-0.1-0.2-0.3-0.2-0.4 0-0.1 0-0.2 0-0.4-0.2-7.5 1.1-12.1 4-13.6 0.7-0.4 1.5-0.7 2.3-0.9l7.7-2.6c0.5-0.1 0.8-0.4 1-0.8 0.1-0.4 0.2-2.1 0.2-2.9-2.3-1.5-4.9-3.4-5.8-4.7-0.6-0.9-1-2-0.9-3.1v-2c-0.7-0.2-1.3-0.8-1.5-1.6-0.4-1.2-1-3.8-1-3.9-0.4-1.1-0.1-1.8 0.2-2.2 0.2-0.3 0.7-0.7 1.6-0.8 0-0.1 0-0.3 0-0.4-0.3-0.6-0.4-1.2-0.5-1.8 0-6.5 5.8-11.8 12.9-11.8 7.1 0 12.9 5.3 12.9 11.8 0 0.7-0.2 1.3-0.5 1.9q0 0.1 0 0.3c0.8 0.1 1.5 0.5 1.9 1 0.3 0.4 0.6 1.1 0.2 2.1-0.1 0.6-0.7 3-1 3.9-0.1 0.6-0.6 1.2-1.2 1.4v2.6c0 0.7-0.2 1.3-0.5 1.9-1.8 2.4-3.9 4.4-6.4 6 0 0.8 0 1.5 0.2 2.3 0.1 0.3 0.5 0.6 0.9 0.7 0.4 0.1 8.1 2.7 9.3 3.3l0.9 0.3c3.8 1.2 3.9 4 4.1 10.2 0 1.3 0.1 2.8 0.2 4.5 0 0.2-0.1 0.3-0.2 0.4-3.6 2.9-12.2 5.7-21.2 5.7zm-18.8-7c11.8 10.1 32.8 5.5 39 0.7-0.1-1.6-0.1-3-0.1-4.2-0.2-6.1-0.2-8.3-3.4-9.3l-1-0.4c-1.2-0.5-9.1-3.2-9.2-3.2-0.7-0.2-1.2-0.7-1.5-1.4-0.3-1-0.3-2-0.3-2.9 0-0.2 0.1-0.3 0.2-0.4 2.5-1.6 4.6-3.5 6.3-5.9 0.2-0.4 0.3-0.9 0.4-1.4v-3c0-0.3 0.2-0.5 0.4-0.5 0.4-0.1 0.8-0.4 0.8-0.8 0.4-1.3 1-3.8 1-3.9 0.2-0.6 0.2-1-0.1-1.3-0.3-0.4-0.9-0.6-1.6-0.6-0.3 0-0.5-0.2-0.5-0.5 0-0.8 0-1.2 0.2-1.3 0.2-0.4 0.3-0.9 0.3-1.4 0-5.9-5.3-10.8-11.9-10.8-6.6 0-11.9 4.8-11.9 10.8 0 0.5 0.2 1 0.4 1.5 0 0.1 0 0.1 0 0.2 0 0.3 0.1 0.7 0.1 1 0 0.1 0 0.3-0.1 0.4-0.1 0.1-0.2 0.2-0.4 0.2-0.4 0-1 0.1-1.3 0.4-0.3 0.4-0.2 0.9 0 1.3 0 0.1 0.6 2.7 1 3.9 0.1 0.5 0.5 0.9 1 0.9 0.1 0 0.3 0.1 0.4 0.1 0.1 0.1 0.1 0.2 0.1 0.4v2.5c0 0.9 0.2 1.8 0.8 2.5 0.7 1 3.1 2.9 5.8 4.6 0.2 0.1 0.2 0.3 0.2 0.5v0.2c-0.1 1.3-0.2 2.7-0.3 3.1-0.2 0.8-0.9 1.4-1.7 1.6l-7.6 2.6q-1 0.3-2.1 0.9c-1.7 0.9-3.7 3.8-3.4 12.6q0 0.1 0 0.3z"/>
	<path id="Layer" class="s8" d="m48.4 60.4c-1.9 0-5-1.7-5.2-1.7-0.1-0.1-0.2-0.2-0.1-0.3 0.1-0.1 0.2-0.2 0.3-0.1 0 0 3.4 1.8 5.1 1.7 1.5-0.3 3-0.8 4.3-1.6 0.1-0.1 0.3 0 0.3 0.1 0.1 0.1 0 0.3-0.1 0.3-1.4 0.8-2.9 1.4-4.5 1.7 0.1-0.1 0-0.1-0.1-0.1z"/>
	<path id="Layer" class="s14" d="m57.2 23.8c0-0.2 0-0.5-0.1-0.7 0.1-0.2 0.1-0.4 0.1-0.6 0-1.3-0.9-2.5-2.2-2.8-0.2-1.7-1.6-3-3.4-3-1-1.9-3.3-2.7-5.2-1.7-0.6 0.3-1.2 0.8-1.5 1.4-0.3-0.1-0.5-0.1-0.8-0.1-1.7-0.1-3.1 1.2-3.2 2.8 0 0 0 0 0 0.1 0 0.1 0 0.1 0 0.2-1.5 0.4-2.5 1.7-2.5 3.2 0 0.8 0.3 1.5 0.8 2.1-0.4 0.5-0.6 1.1-0.6 1.7 0.1 1.6 1.5 2.9 3.1 2.8 0.4 0 0.9-0.1 1.3-0.2 0.1 1.4 1.3 2.4 2.7 2.4 0.3 0 0.6 0 0.8-0.1 0.8 0.9 1.9 1.3 3 1.3 1.8 0.1 3.3-1.2 3.7-2.9 1.2-0.4 2.1-1.5 2.3-2.8 1-0.8 1.7-1.9 1.7-3.1z"/>
	<path id="Layer" class="s13" d="m47.8 22.8c-11.5 0-15.5 9.7-12.1 19.3 0.2 0.4 0.9 0.4 1-0.1 0.5-5.4 3-10 11.2-7.7 8.1-2.3 10.6 2.3 11.1 7.7 0 0.5 0.8 0.5 1 0.1 3.3-9.6-0.8-19.3-12.2-19.3z"/>
	<path id="Layer" fill-rule="evenodd" class="s3" d="m47.1 44.3c0 0.1 0 0.1 0 0.1-0.1 2.4-2.1 4.4-4.5 4.3-3.5 0-5.2-1.8-5.5-4.3 0-0.5-0.1-1.9-0.7-2-0.1-0.6-0.2-1.2-0.4-1.8 0 0 8.5-2 10.7 0.8 0.4 0.9 0.5 1.9 0.4 2.9zm-1.3-2.3c-0.3-0.5-1.5-1.1-4.1-1.1-0.8 0-1.6 0-2.2 0.1-1.1 0.1-2 1.1-1.9 2.2 0.1 1.9 0.7 5 4.2 5 0.3 0 0.6 0 0.8 0 2.1 0 3.7-1.7 3.7-3.7 0.1-0.9-0.1-1.8-0.5-2.5zm3.8-0.7c2.2-2.7 10.7-0.8 10.7-0.8-0.1 0.6-0.3 1.2-0.4 1.8-0.6 0.1-0.6 1.5-0.7 2-0.3 2.5-2 4.4-5.5 4.3-2.5 0.1-4.5-1.9-4.5-4.3-0.1-1 0-2 0.4-3zm0.4 3.3v0.1c0.1 2 1.8 3.6 3.8 3.5 0.3 0 0.5 0 0.7 0 3.5 0 4.1-3.1 4.2-5 0-1.1-0.8-2.1-1.9-2.2-0.6-0.1-1.4-0.1-2.2-0.1-2.7 0-3.8 0.6-4.1 1.1-0.4 0.8-0.6 1.6-0.5 2.6z"/>
	<path id="Layer" class="s3" d="m49.7 43.5c-0.5-0.3-1-0.5-1.6-0.5-0.5 0-1 0.1-1.5 0.5-0.2-0.4-0.3-0.8-0.5-1.3h4c-0.1 0.5-0.3 0.9-0.4 1.3z"/>
</svg>