<svg version="1.2" xmlns="http://www.w3.org/2000/svg" viewBox="0 0 100 100" width="100" height="100">
	<title>add-user-male-svg</title>
	<style>
		.s0 { fill: #ffffff } 
		.s1 { fill: #f1bc19 } 
		.s2 { fill: #c0e5e4 } 
		.s3 { fill: #77cbd2 } 
		.s4 { fill: #fbcd59 } 
		.s5 { fill: #fabf82 } 
		.s6 { fill: #88cdd7 } 
		.s7 { fill: #be7841 } 
		.s8 { fill: #472b29 } 
		.s9 { fill: #00a5a5 } 
		.s10 { fill: #fddbbc } 
		.s11 { fill: #512c2b } 
		.s12 { fill: #895d3d } 
	</style>
	<path id="Layer" class="s0" d="m20.3 55.1q-0.3 0-0.6 0.3-0.3 0.2-0.3 0.6 0 0.4 0.3 0.6 0.3 0.3 0.6 0.3 0.4 0 0.6-0.3 0.3-0.2 0.3-0.6 0-0.4-0.3-0.6-0.2-0.3-0.6-0.3zm59.1-24.7q-0.3 0-0.5 0.2-0.2 0.2-0.2 0.5 0 0.3 0.2 0.5 0.2 0.2 0.5 0.2 0.2 0 0.5-0.2 0.1-0.2 0.2-0.5-0.1-0.3-0.2-0.5-0.3-0.2-0.5-0.2z"/>
	<path id="Layer" class="s1" d="m76.7 11.2q-0.3 0-0.6 0.3-0.2 0.2-0.2 0.6 0 0.3 0.2 0.6 0.3 0.3 0.6 0.3 0.4 0 0.7-0.3 0.2-0.3 0.2-0.6 0-0.4-0.2-0.6-0.3-0.3-0.7-0.3zm-55.9 51.6q-0.4 0-0.6 0.2-0.3 0.3-0.3 0.7 0 0.3 0.3 0.6 0.2 0.2 0.6 0.2 0.4 0 0.6-0.2 0.3-0.3 0.3-0.6 0-0.4-0.3-0.7-0.2-0.2-0.6-0.2z"/>
	<path id="Layer" class="s2" d="m49.6 11.9c-9.9 0-19.4 3.9-26.4 10.9-7.1 7.1-11 16.6-11 26.5 0 9.9 3.9 19.5 11 26.5 7 7 16.5 11 26.4 11 10 0 19.5-4 26.5-11 7-7 11-16.6 11-26.5 0-9.9-4-19.4-11-26.5-7-7-16.5-10.9-26.5-10.9z"/>
	<path id="Layer" class="s1" d="m82.2 10.2c-1.1 0-2.1 0.5-2.9 1.2-0.7 0.8-1.1 1.8-1.1 2.8 0 1.1 0.4 2.1 1.1 2.9 0.8 0.7 1.8 1.1 2.9 1.1 1 0 2.1-0.4 2.8-1.1 0.8-0.8 1.2-1.8 1.2-2.9 0-1-0.4-2-1.2-2.8-0.7-0.7-1.8-1.2-2.8-1.2z"/>
	<path id="Layer" class="s3" d="m86.2 21.4c-0.5 0-1 0.2-1.3 0.6-0.4 0.3-0.6 0.8-0.6 1.3 0 0.5 0.2 1 0.6 1.3 0.3 0.4 0.8 0.6 1.3 0.6 0.5 0 1-0.2 1.3-0.6 0.4-0.3 0.6-0.8 0.6-1.3 0-0.5-0.2-1-0.6-1.3-0.3-0.4-0.8-0.6-1.3-0.6z"/>
	<path id="Layer" class="s4" d="m77.2 73.8c-0.5 0-1 0.2-1.3 0.6-0.4 0.3-0.6 0.8-0.6 1.3 0 0.5 0.2 1 0.6 1.4 0.3 0.3 0.8 0.5 1.3 0.5 0.5 0 1-0.2 1.3-0.5 0.4-0.4 0.6-0.9 0.6-1.4 0-0.5-0.2-1-0.6-1.3-0.3-0.4-0.8-0.6-1.3-0.6zm-63.2-15c-1 0-2 0.4-2.8 1.1-0.7 0.8-1.2 1.8-1.2 2.9 0 1 0.5 2.1 1.2 2.8 0.8 0.8 1.8 1.2 2.8 1.2 1.1 0 2.1-0.4 2.9-1.2 0.7-0.7 1.1-1.8 1.1-2.8 0-1.1-0.4-2.1-1.1-2.9-0.8-0.7-1.8-1.1-2.9-1.1z"/>
	<path id="Layer" class="s3" d="m24.3 85c-0.5 0-1 0.2-1.4 0.6-0.3 0.3-0.5 0.8-0.5 1.3 0 0.5 0.2 1 0.5 1.3 0.4 0.4 0.9 0.6 1.4 0.6 0.5 0 1-0.2 1.3-0.6 0.4-0.3 0.6-0.8 0.6-1.3 0-0.5-0.2-1-0.6-1.3-0.3-0.4-0.8-0.6-1.3-0.6z"/>
	<path id="Layer" class="s0" d="m75.9 27.8c-0.5 0-1 0.2-1.3 0.5-0.4 0.4-0.5 0.8-0.5 1.3 0 0.5 0.1 0.9 0.5 1.3 0.3 0.3 0.8 0.5 1.3 0.5 0.4 0 0.9-0.2 1.2-0.5 0.4-0.4 0.5-0.8 0.5-1.3 0-0.5-0.1-0.9-0.5-1.3-0.3-0.3-0.8-0.5-1.2-0.5zm-58.1 20.3c-0.7 0-1.3 0.3-1.8 0.8-0.5 0.4-0.8 1.1-0.8 1.8 0 0.6 0.3 1.3 0.8 1.8 0.5 0.4 1.1 0.7 1.8 0.7 0.7 0 1.3-0.3 1.8-0.7 0.5-0.5 0.7-1.2 0.7-1.8 0-0.7-0.2-1.4-0.7-1.8-0.5-0.5-1.1-0.8-1.8-0.8z"/>
	<path id="Layer" class="s5" d="m68.1 70.5c-0.4-2.1-1.3-3.4-3.3-4q-0.2 0-0.4-0.1-0.2-0.1-0.6-0.3c-1.2-0.5-8.6-3.2-8.6-3.2-0.6-0.2-1-0.6-1.3-1.1-0.3-0.8-0.2-2.9-0.2-2.9 0 0-3.1 1-5 1.4-1.9 0.2-6-2.3-6-2.3 0 0-0.1 3.1-0.2 3.7-0.1 0.6-0.7 1-1.3 1.2l-7.2 2.6c-0.7 0.2-1.5 0.5-2.2 0.9-1.8 1.1-2.7 2.7-3.1 4.1 0 0-0.5 3.3-0.5 3.5q0 0.7-0.1 1.5c7.8 5.2 14 6.7 24.7 6.2 4.8-0.2 12.1-2.6 15.9-4.5-0.2-4.2-0.6-6.7-0.6-6.7z"/>
	<path id="Layer" class="s6" d="m64.8 66.5q-0.2 0-0.4-0.1-0.2-0.1-0.6-0.2c-0.7-0.3-3.9-1.5-6.1-2.4h-0.1c-2.6 1.3-6.1 3.2-9.4 3.2-3.3 0-6.6-1.7-9.4-3.2l-0.3 0.1-4.5 1.6c-0.7 0.2-1.5 0.5-2.2 0.9-1.8 1.1-2.7 2.8-3.1 4.2 0 0-0.5 3.3-0.5 3.4 0 0.5-0.1 5.4-0.1 6 7.7 5.2 14 6.7 24.7 6.2 4.8-0.2 12.1-2.6 15.9-4.5-0.2-4.2-0.6-11.1-0.6-11.1-0.4-2.2-1.3-3.4-3.3-4.1z"/>
	<path id="Layer" class="s7" d="m37.5 46.4c-0.1-0.4-3.8-8.6-1-14.2 1.2-2.3 3.3-3.8 6.2-4.5 1.8-1.2 3.8-1.8 5.9-1.8q2.5 0 4.9 1.3 1.2 0.7 2 1.2c1.8 1 2.4 1.4 3.5 1.4q0.2 0 0.4-0.1h0.1q0.2 0 0.4 0c1 0 1.2 0.5 1.3 0.9 0.1 1.1-0.3 2-0.6 2.8-0.3 0.7-0.5 1.3-0.4 1.9 1.9 6-1 10.9-1.1 11.1l-0.9 1.6v-1.9c0 0 0-4.7-1.1-7.7-1.4 0.8-3.2 1.2-5 1.2-3.3 0-6.9-1.1-10.4-3.4-3.2 2.5-3.2 9.9-3.2 9.9v2.4z"/>
	<path id="Layer" fill-rule="evenodd" class="s8" d="m48.6 26.4c1.5 0 3.1 0.3 4.6 1.2 3.6 2 4.2 2.7 5.8 2.7q0.2 0 0.4-0.1 0.3 0 0.5 0c0.4 0 0.7 0.1 0.8 0.5 0.2 1.8-1.4 3.3-0.9 4.7 1.8 5.9-1.1 10.7-1.1 10.7 0 0 0-5.3-1.4-8.4-1.4 0.9-3.2 1.4-5.2 1.4-3.1 0-6.7-1.1-10.5-3.5-3.7 2.5-3.6 10.5-3.6 10.5 0 0-7-15.3 4.9-17.9 1.6-1.1 3.5-1.8 5.7-1.8zm0-1c-2.2 0-4.3 0.6-6.1 1.8-3.1 0.8-5.2 2.4-6.5 4.8-2.9 5.8 0.9 14.2 1.1 14.6l1.9 4.2v-4.7c0-1.9 0.5-7.2 2.7-9.3 3.5 2.2 7.1 3.3 10.4 3.3 1.7 0 3.3-0.3 4.7-1 0.9 2.9 0.9 7 0.9 7v3.7l1.8-3.1c0.2-0.3 3.1-5.3 1.2-11.6-0.1-0.4 0.1-0.9 0.4-1.5 0.3-0.9 0.7-1.9 0.6-3-0.1-0.4-0.3-1.4-1.8-1.4q-0.2 0-0.4 0h-0.2q-0.2 0.1-0.3 0.1c-0.9 0-1.4-0.3-3.2-1.4q-0.8-0.5-2.1-1.1-2.4-1.4-5.1-1.4z"/>
	<path id="Layer" class="s9" d="m34.9 84.2c-0.2 0-0.3-0.1-0.3-0.3v-3.9c0-0.2 0.1-0.3 0.3-0.3 0.2 0 0.3 0.1 0.3 0.3v3.9c0 0.2-0.1 0.3-0.3 0.3zm26.3 0.7c-0.1 0-0.3-0.1-0.3-0.3v-4.6c0-0.2 0.2-0.3 0.3-0.3 0.2 0 0.3 0.1 0.3 0.3v4.6c0 0.2-0.1 0.3-0.3 0.3z"/>
	<path id="Layer" class="s10" d="m60.4 44q-0.2 0-0.3 0c-1-0.1-0.9 0.3-0.9-0.3 0.1-1-0.4-5.3-0.4-5.5 0-4.5-4.7-8.1-10.5-8.3v-0.1q0 0.1-0.1 0.1 0 0-0.1-0.1v0.1c-5.8 0.2-10.5 3.8-10.5 8.3 0 0.2-0.1 4.5 0 5.5 0 0.6-0.3 0.2-1.2 0.3q-0.2 0-0.4 0c-1.1 0.1-1.9 0.7-2.1 1.6 0.1 0.1 0.6 3.7 1.4 5.1 0.4 0.9 1.1 1 1.8 1.5 0.4 0.3 0.5 0.6 0.6 1 0.4 1.6 1.5 3 2.7 4.1 0.5 0.6 4.5 4.8 7.8 4.5 3.4-0.1 7.3-3.9 7.9-4.5 1.2-1.1 2.2-2.5 2.6-4.1 0.1-0.4 0.2-0.7 0.6-1 0.7-0.5 1.4-0.6 1.8-1.5 0.8-1.4 1.3-5 1.4-5.1-0.2-0.9-1-1.5-2.1-1.6z"/>
	<path id="Layer" class="s11" d="m48.3 51.1c0.7 0 1.3-0.3 1.7-0.8q0.1-0.1 0-0.2-0.1-0.1-0.1 0c-0.4 0.4-1 0.6-1.6 0.6-0.7 0-1.3-0.2-1.6-0.6q-0.1 0-0.1 0-0.1 0-0.1 0-0.1 0.1 0 0.2c0.4 0.5 1.1 0.8 1.8 0.8zm-2.2-9.3l0.4-0.8c-1.8-0.4-3.9-0.4-5.7 0.2l0.6 0.8c1.4-0.5 3.2-0.5 4.7-0.2zm9.2 0l0.4-0.8c-1.8-0.4-3.9-0.4-5.7 0.2l0.6 0.8c1.4-0.5 3.2-0.5 4.7-0.2zm-11.8 1.2c-0.5 0-0.9 0.3-1.1 0.7q0.1 0 0.2 0c0.3 0 0.6 0.3 0.6 0.7 0 0.4-0.3 0.8-0.6 0.8q-0.2 0-0.3-0.1c0.1 0.6 0.6 1.1 1.2 1.1 0.6 0 1.2-0.7 1.2-1.6 0-0.9-0.6-1.6-1.2-1.6zm9.5 0c-0.3 0-0.7 0.2-0.9 0.6q0.1-0.1 0.2-0.1c0.4 0 0.7 0.3 0.7 0.7 0 0.4-0.3 0.8-0.7 0.8-0.2 0-0.4-0.2-0.5-0.4 0 0.9 0.5 1.6 1.2 1.6 0.7 0 1.3-0.7 1.3-1.6 0-0.9-0.6-1.6-1.3-1.6zm0.6 9.9q0-0.1 0-0.2-0.1 0-0.2 0c-1.1 0.9-3 1.4-5.1 1.4-2.2 0-4-0.5-5.2-1.4q0 0 0 0-0.1 0-0.1 0-0.1 0.1 0 0.2c1.3 1.1 3.2 1.7 5.3 1.7 2 0 4-0.6 5.3-1.7zm-3.9 5.3c0 0 0.1-0.1 0.1-0.2 0-0.1-0.1-0.1-0.1-0.1h-2.6c-0.1 0-0.1 0-0.1 0.1 0 0.1 0 0.2 0.1 0.2z"/>
	<path id="Layer" fill-rule="evenodd" class="s8" d="m49.3 87c-8.9 0-14.6-1.8-21.5-6.5-0.1-0.1-0.2-0.2-0.2-0.4 0-0.1 0-0.5 0-1 0-2.2 0.1-6.7 0.6-8.5 0.6-2.4 1.6-3.4 3.4-4.5q1-0.6 2.3-0.9l7.1-2.6c0.5-0.1 0.9-0.5 1-0.8 0-0.2 0.1-1 0.1-2-1-0.7-1.9-1.4-2.1-1.6-1.6-1.6-2.5-3-2.8-4.4-0.1-0.5-0.2-0.6-0.4-0.8q-0.3-0.2-0.6-0.4c-0.5-0.2-1-0.5-1.3-1.2-0.9-1.6-1.5-4.5-1.5-5.5q0 0 0-0.1c0.2-1.1 1.3-1.9 2.6-2q0.2 0 0.4 0 0.4 0 0.6 0.1c0-1.2 0.1-3.8 0.1-5q0-0.4 0-0.5c0-4.7 4.8-8.6 10.9-8.9q0 0 0.1 0c0 0 0.1 0 0.1 0h0.1q0.1 0 0.2 0c6 0.3 10.8 4.2 10.8 8.9 0 0.1 0 0.4 0.1 0.8 0.2 1.8 0.4 3.8 0.3 4.5v0.1q0.1 0 0.2 0h0.2q0.2 0 0.4 0c1.2 0.1 2.3 0.9 2.5 2q0 0.1 0 0.1c0 1.1-0.6 4-1.4 5.5-0.4 0.7-0.9 1-1.4 1.2q-0.3 0.2-0.6 0.4c-0.2 0.2-0.3 0.3-0.4 0.8-0.3 1.4-1.2 2.8-2.8 4.4-0.2 0.2-1.1 0.9-2.2 1.7 0 0.9 0 1.6 0.2 1.9 0.1 0.3 0.4 0.6 0.9 0.8 0.4 0.1 7.5 2.7 8.7 3.3q0.4 0.1 0.6 0.2 0.2 0.1 0.3 0.1c2.1 0.6 3.3 2 3.7 4.4q0 0 0 0.1c0 0 0.4 6.9 0.6 11.1 0 0.2-0.1 0.4-0.3 0.5-4 2-11.3 4.4-16.1 4.6q-1.8 0.1-3.5 0.1zm-20.7-7.1c7.4 4.9 13.5 6.4 24.2 6 4.5-0.2 11.4-2.4 15.4-4.3-0.2-4.1-0.6-10.3-0.6-10.8-0.4-2.1-1.2-3.1-3-3.6q-0.1-0.1-0.3-0.2-0.3-0.1-0.6-0.2c-1.3-0.5-8.6-3.3-8.7-3.3-0.6-0.1-1.2-0.6-1.5-1.3q-0.4-0.7-0.3-2.5 0-0.3 0.2-0.4c1.2-0.9 2.1-1.7 2.3-1.9 1.4-1.3 2.2-2.6 2.6-3.9 0.1-0.4 0.2-0.9 0.7-1.3q0.4-0.3 0.7-0.4c0.5-0.3 0.8-0.5 1-0.9 0.7-1.4 1.3-4 1.3-4.9-0.1-0.6-0.8-1.1-1.6-1.2q-0.2 0-0.3 0h-0.2c-0.5 0-0.8 0-1-0.3-0.2-0.2-0.2-0.4-0.2-0.7v-0.1c0.1-0.8-0.2-3.2-0.3-4.4-0.1-0.5-0.1-0.8-0.1-0.9 0-4.2-4.4-7.7-10-7.9q0 0-0.1 0 0 0 0 0-0.1 0-0.1 0c-5.6 0.2-10 3.7-10 7.9q0 0.1 0 0.6c0 1.1-0.1 4.2 0 5 0 0.2 0 0.5-0.3 0.7-0.2 0.3-0.5 0.2-0.7 0.2-0.2-0.1-0.4-0.1-0.7-0.1q-0.2 0-0.4 0c-0.8 0.1-1.4 0.6-1.6 1.2 0 0.9 0.6 3.6 1.3 4.9 0.3 0.4 0.6 0.6 1 0.9q0.3 0.1 0.7 0.4c0.5 0.4 0.6 0.9 0.8 1.3 0.3 1.3 1.1 2.6 2.5 4 0.2 0.1 1.1 0.8 2.2 1.6q0.2 0.2 0.2 0.5-0.1 1.9-0.2 2.4c-0.1 0.8-0.9 1.4-1.6 1.5l-7.1 2.6q-1.2 0.3-2.1 0.9c-1.6 1-2.4 1.7-2.9 3.8-0.5 1.7-0.6 6.3-0.6 8.3q0 0.5 0 0.8z"/>
	<path id="Layer" class="s12" d="m60.5 48.9l-0.6-0.1 0.2-1.8-1 0.5-0.3-0.6 1.5-0.6q0.2-0.1 0.3 0 0.2 0.1 0.1 0.3zm-24.2-0.4l-0.2-2.2q-0.1-0.2 0.1-0.3 0.1-0.1 0.3-0.1l1.5 0.7-0.3 0.5-1-0.4 0.2 1.8z"/>
	<path id="Layer" class="s8" d="m37.6 53q0 0 0 0c-0.1 0-0.2-0.1-0.2-0.2l0.2-8.7c0-0.1 0.1-0.2 0.2-0.2q0 0 0 0c0.1 0 0.2 0.1 0.2 0.2l-0.2 8.7c0 0.1-0.1 0.2-0.2 0.2zm21.4 0c-0.1 0-0.2-0.1-0.2-0.2l-0.2-8.7c0-0.1 0.1-0.2 0.2-0.2q0 0 0 0c0.1 0 0.2 0.1 0.2 0.2l0.2 8.7c0 0.1-0.1 0.2-0.2 0.2q0 0 0 0zm-10.7 9.1c-2.1 0-5.7-2.6-5.8-2.7-0.1-0.1-0.2-0.3-0.1-0.4 0.1-0.1 0.3-0.1 0.4 0 0 0 3.8 2.8 5.7 2.6 1.9-0.2 5-2.4 5-2.4 0.1-0.1 0.3-0.1 0.4 0 0.1 0.2 0 0.3-0.1 0.4-0.1 0.1-3.2 2.2-5.2 2.5q-0.1 0-0.3 0z"/>
	<path id="Layer" class="s7" d="m60.7 30.8c-0.1-0.6-0.7-0.5-1.3-0.5-1.9 0.1-2.3-0.5-6.2-2.6-3.8-2.1-7.7-1.3-10.3 0.5-11.9 2.7-4.9 18-4.9 18 0 0-0.1-8.1 3.6-10.5 6.2 4 12.1 4.4 15.7 2.1 1.4 3 1.4 8.4 1.4 8.4 0 0 2.9-4.8 1.1-10.7-0.5-1.5 1.1-2.9 0.9-4.8z"/>
	<path id="Layer" class="s8" d="m59.1 46.2h-0.5c0-0.1 0-5.1-1.2-8.1-3.9 2.3-10 1.5-15.9-2.2-3.4 2.5-3.4 10.2-3.4 10.3h-0.5c0-0.4 0-8.3 3.8-10.8q0.1-0.1 0.3 0c5.9 3.8 11.9 4.6 15.7 2.1q0.1-0.1 0.2 0 0.1 0 0.1 0.1c1.4 3.1 1.4 8.3 1.4 8.6z"/>
	<g id="Layer">
	</g>
</svg>