<svg xmlns="http://www.w3.org/2000/svg" viewBox="0 0 4680 3120"><defs><style>.cls-1{isolation:isolate;}.cls-2,.cls-6{fill:#fff;}.cls-2{opacity:0;}.cls-3{fill:#ffe4c0;}.cls-4{fill:#5c9772;}.cls-4,.cls-7,.cls-8{fill-rule:evenodd;}.cls-5{opacity:0.3;mix-blend-mode:overlay;}.cls-7{fill:#8fb993;}.cls-8{fill:#b7cfad;}.cls-9{fill:#cc584e;}.cls-10{fill:#bbd9f5;}.cls-11{fill:#84bce2;}.cls-12{fill:#598ad2;}.cls-13{fill:#f4609a;}.cls-14{fill:#3b3348;}.cls-15{opacity:0.6;}.cls-16{fill:#dd3c3c;}.cls-17{fill:#ff970b;}.cls-18{fill:#ffde3e;}.cls-19{fill:#fec313;}.cls-20{fill:#f8c031;}.cls-21{fill:#ffdfbb;}.cls-22{fill:#8e2943;}.cls-23{fill:#2e3047;}.cls-24{fill:#902a43;}.cls-25{fill:#faba97;}.cls-26{opacity:0.48;}.cls-27{fill:#d75a5e;}.cls-28{fill:#f36562;}.cls-29{fill:#cf2943;}.cls-30{fill:#de7360;}.cls-31{fill:#0e0d0b;}.cls-32{fill:#281c1c;}.cls-33{fill:#de3d64;}.cls-34{fill:#26325a;}.cls-35{fill:#0b0f28;}.cls-36{fill:#003777;}.cls-37{fill:#0092c9;}.cls-38{fill:#0069a0;}.cls-39{fill:#ff5e8b;}.cls-40{fill:#e94377;}.cls-41{fill:#f08372;}.cls-42{fill:#475173;}.cls-43{fill:#383939;}.cls-44{fill:#4db2c8;}.cls-45{fill:#4dd1dc;}.cls-46{fill:#ecd930;}.cls-47{fill:#3b6675;}.cls-48{fill:#ad4825;}.cls-49{fill:#e26625;}.cls-50{fill:#f89b31;}.cls-51{opacity:0.72;}.cls-52{fill:#861725;}.cls-53{fill:#752625;}.cls-54{fill:#1c68a5;}.cls-55{fill:#307bc6;}.cls-56{fill:#4d94e8;}.cls-57{fill:#8ac5ff;}.cls-58{fill:#e6e6e6;}.cls-59{fill:#8ccdff;}.cls-60{fill:#bababa;}.cls-61{fill:#a42c38;}</style></defs><title>08</title><g class="cls-1"><g id="_08" data-name="08"><rect id="_08-2" data-name="08" class="cls-2" width="4680" height="3120"/><path class="cls-3" d="M4029.24,1316.42c-16.45-169.23-91-343.73-232.56-459.9-210.25-172.6-534.88-228.63-819.45-192.72-119,15-236.11,50.66-357.49,40.47-177-14.86-333-116.76-494.18-191.45-219.42-101.67-470.93-156.39-704.2-112.15-264.47,50.16-481.32,239.64-507.2,491-11.72,113.92,107.41,314.6,69.81,422.56-38.13,109.5-316.56,444.89-309.69,700,6.83,254.16,71,333.2,161.58,462.37H3795c56.43-130.88,100.63-235.56,34.57-407.43-52.79-137.32,90.62-250.42,146.1-378.24C4025,1577.19,4041.28,1440.38,4029.24,1316.42Z"/><path class="cls-4" d="M3604.64,2423.62s346.51-316.72,465.83-635.51C4070.47,1788.11,3740.64,1815.94,3604.64,2423.62Z"/><g class="cls-5"><path class="cls-6" d="M3730.28,2213.31c6.21-11.49,12.91-22.68,19.68-33.83s13.31-22.45,20.32-33.45c14-22,28.18-43.92,42.95-65.43,29.59-43,60.45-85.06,93.17-125.67s66.86-80.09,103.3-117.37c-16.09,20.51-32.29,40.84-47.87,61.67-15.84,20.62-31.35,41.47-46.9,62.28-30.84,41.8-61.06,84-90.28,126.91-29.57,42.66-57.61,86.34-85.06,130.39l-20.38,33.2-19.71,33.6c-13.82,22.07-25.36,45.35-38.72,67.78C3681.55,2305.65,3704.15,2258.47,3730.28,2213.31Z"/></g><path class="cls-7" d="M3601,2400.46s139.63-371,107.47-656.57C3708.46,1743.89,3470.85,1891,3601,2400.46Z"/><g class="cls-5"><path class="cls-6" d="M3615.09,2194.09c.28-11,1-22,1.87-33s1.42-22,2.49-32.95c2.14-21.92,4.41-43.84,7.3-65.68,5.83-43.66,13-87.15,22.05-130.24s19.68-85.87,32.84-127.86c-4.27,21.59-8.68,43.09-12.44,64.73-4,21.58-7.72,43.21-11.47,64.82-7.22,43.26-13.81,86.6-19.39,130.07-5.94,43.42-10.34,87-14.14,130.69l-2.64,32.78-2,32.83c-2,21.9-1.74,43.84-3.22,65.83C3613.74,2282.24,3612.7,2238.09,3615.09,2194.09Z"/></g><path class="cls-8" d="M3652,2470.6s288-151.29,381.21-248.92l81.3,275.07s27.42-258.32-62.22-409.73c0,0-268.81,54.6-439.49,342.87Z"/><g class="cls-5"><path class="cls-6" d="M3756.65,2331l19.24-17.27c25.93-22.73,52.85-44.39,80.79-64.62q41.76-30.59,85.76-57.91c29.32-18.26,59.2-35.34,90.07-51.25l5.4-2.78,3.05,5.06a357.46,357.46,0,0,1,28,56.47,452.82,452.82,0,0,1,18,60,526.54,526.54,0,0,1,10,61.5c2.05,20.64,3.39,41.35,2.75,62a655.73,655.73,0,0,0-21.51-121.32,472.76,472.76,0,0,0-20-57.83,345.76,345.76,0,0,0-25.1-48.53c-28.22,15.12-56,31.57-83.48,48.34-29.13,18-57.74,36.75-85.93,56.15s-55.71,39.8-82.74,60.84-53,43.48-78.7,66.36c11.76-12.52,23.22-25.44,35.79-37.21Z"/></g><path class="cls-4" d="M1313,2408.5s-506.76-463.19-681.26-929.4C631.72,1479.1,1114.09,1519.81,1313,2408.5Z"/><g class="cls-5"><path class="cls-6" d="M1129.24,2100.93c-9.08-16.79-18.88-33.16-28.78-49.47s-19.46-32.83-29.71-48.92c-20.52-32.17-41.22-64.23-62.82-95.68-43.28-62.83-88.41-124.4-136.26-183.79-47.66-59.53-97.78-117.14-151.06-171.64,23.53,30,47.22,59.71,70,90.18,23.17,30.15,45.84,60.65,68.58,91.07,45.11,61.14,89.31,122.88,132,185.62,43.26,62.38,84.27,126.25,124.41,190.68l29.8,48.55,28.82,49.15c20.21,32.27,37.09,66.31,56.63,99.11C1200.5,2236,1167.46,2167,1129.24,2100.93Z"/></g><path class="cls-7" d="M1318.32,2374.63s-204.2-542.52-157.17-960.2C1161.15,1414.43,1508.65,1629.64,1318.32,2374.63Z"/><g class="cls-5"><path class="cls-6" d="M1297.7,2072.83c-.41-16.11-1.52-32.18-2.73-48.24s-2.09-32.16-3.65-48.19c-3.13-32.07-6.44-64.12-10.67-96.05-8.54-63.86-19-127.47-32.24-190.48-13.1-63-28.79-125.57-48-187,6.23,31.57,12.69,63,18.18,94.67,5.9,31.55,11.3,63.19,16.78,94.79,10.56,63.27,20.2,126.65,28.36,190.22,8.69,63.5,15.11,127.27,20.68,191.13l3.85,47.94,2.89,48c2.87,32,2.55,64.12,4.71,96.28C1299.67,2201.74,1301.2,2137.17,1297.7,2072.83Z"/></g><path class="cls-8" d="M1243.7,2477.21s-421.12-221.25-557.5-364L567.31,2515.46s-40.1-377.78,91-599.21c0,0,393.12,79.84,642.74,501.43Z"/><g class="cls-5"><path class="cls-6" d="M1090.68,2273l-28.15-25.26c-37.92-33.23-77.28-64.91-118.15-94.5q-61.07-44.71-125.42-84.69c-42.87-26.71-86.56-51.67-131.72-74.94l-7.9-4.07-4.46,7.4c-16,26.46-30,53.94-41,82.58-10.58,28.73-19.85,57.9-26.33,87.68A768.39,768.39,0,0,0,593,2257.14c-3,30.18-5,60.47-4,90.72a959.49,959.49,0,0,1,31.46-177.44,691.46,691.46,0,0,1,29.22-84.57,504.5,504.5,0,0,1,36.71-71c41.27,22.12,81.95,46.17,122.08,70.7,42.61,26.25,84.44,53.75,125.68,82.12s81.46,58.2,121,89c39.74,30.59,77.48,63.57,115.09,97-17.2-18.31-34-37.21-52.35-54.43Z"/></g><ellipse class="cls-9" cx="2318.94" cy="2495.5" rx="1480.13" ry="167.59"/><path class="cls-10" d="M2892.07,368.62,1550.27,360c-44.09-.28-79.36,38.37-77.18,84.59l92.31,2000.49H3058.58l82.9-1787.33Z"/><path class="cls-11" d="M2954.14,649.18c-45.23-1.61-80-41.15-76.44-86.9l14.89-191,233.07,253.63c10.8,11.75,2.06,30.69-13.89,30.1Z"/><path class="cls-12" d="M1962.62,668.85V547.68h40.85v89.49h54.7v31.68Z"/><path class="cls-12" d="M2131.22,671.62A77.7,77.7,0,0,1,2104,667a64.48,64.48,0,0,1-21.72-13.24A60.84,60.84,0,0,1,2068,633.54a65.26,65.26,0,0,1,0-50.63,61,61,0,0,1,14.28-20.08A64.32,64.32,0,0,1,2104,549.59a82.19,82.19,0,0,1,54.62,0,64.5,64.5,0,0,1,21.63,13.24,61,61,0,0,1,14.28,20.08,65.26,65.26,0,0,1,0,50.63,60.84,60.84,0,0,1-14.28,20.17A64.66,64.66,0,0,1,2158.57,667,77.47,77.47,0,0,1,2131.22,671.62Zm0-33.06a27.06,27.06,0,0,0,10.64-2.08,25.56,25.56,0,0,0,8.66-6,27.35,27.35,0,0,0,5.8-9.52,40.12,40.12,0,0,0,0-25.44,27.26,27.26,0,0,0-5.8-9.52,25.73,25.73,0,0,0-8.66-6,28.41,28.41,0,0,0-21.29,0,25.59,25.59,0,0,0-8.65,6,27,27,0,0,0-5.8,9.52,39.93,39.93,0,0,0,0,25.44,27.06,27.06,0,0,0,5.8,9.52,25.42,25.42,0,0,0,8.65,6A27.08,27.08,0,0,0,2131.22,638.56Z"/><path class="cls-12" d="M2199.59,668.85l53-121.17h40.16l53,121.17h-42.24l-39.11-101.78h15.92l-39.12,101.78Zm31.5-21.12,10.39-29.42h55.73l10.39,29.42Z"/><path class="cls-12" d="M2352.26,668.85V547.68h33.58l61.62,73.74h-15.58V547.68h39.81V668.85h-33.58l-61.62-73.74h15.58v73.74Z"/><path class="cls-12" d="M1949.47,876.56l53-121.16h40.15l53,121.16h-42.23l-39.12-101.78h15.92L1991,876.56Zm31.5-21.11L1991.36,826h55.73l10.39,29.43Z"/><path class="cls-12" d="M2102.14,876.56V755.4h58.33q17,0,29.34,5.54a43.4,43.4,0,0,1,19.13,15.83q6.75,10.31,6.75,24.32t-6.75,24.24a44.16,44.16,0,0,1-19.13,15.84q-12.37,5.63-29.34,5.62h-35.66L2143,829.31v47.25ZM2143,833.81l-18.18-18.52h33.06q8.49,0,12.55-3.81t4.07-10.39q0-6.57-4.07-10.38t-12.55-3.81h-33.06L2143,768.38Z"/><path class="cls-12" d="M2229,876.56V755.4h58.33q17,0,29.34,5.54a43.37,43.37,0,0,1,19.12,15.83q6.77,10.31,6.76,24.32t-6.76,24.24a44.13,44.13,0,0,1-19.12,15.84q-12.37,5.63-29.34,5.62h-35.66l18.18-17.48v47.25Zm40.85-42.75-18.18-18.52h33.06q8.48,0,12.55-3.81t4.07-10.39q0-6.57-4.07-10.38t-12.55-3.81h-33.06l18.18-18.52Z"/><path class="cls-12" d="M2355.89,876.56V755.4h58.34q17,0,29.34,5.54a43.43,43.43,0,0,1,19.12,15.83q6.75,10.31,6.75,24.32t-6.75,24.15a42.7,42.7,0,0,1-19.12,15.49q-12.39,5.37-29.34,5.37h-35.66l18.17-16.79v47.25Zm40.85-42.75-18.17-18.52h33.06q8.48,0,12.55-3.81t4.07-10.39q0-6.57-4.07-10.38t-12.55-3.81h-33.06l18.17-18.52Zm31.68,42.75-29.77-44.14h43.27L2472,876.56Z"/><path class="cls-12" d="M2548.37,879.33a77.64,77.64,0,0,1-27.26-4.67,64.28,64.28,0,0,1-21.72-13.24,60.74,60.74,0,0,1-14.28-20.17,65.26,65.26,0,0,1,0-50.63,61,61,0,0,1,14.28-20.08,64.28,64.28,0,0,1,21.72-13.24,82.16,82.16,0,0,1,54.61,0,64.61,64.61,0,0,1,21.64,13.24,61.28,61.28,0,0,1,14.28,20.08,65.26,65.26,0,0,1,0,50.63,61,61,0,0,1-14.28,20.17,64.61,64.61,0,0,1-21.64,13.24A77.43,77.43,0,0,1,2548.37,879.33Zm0-33.06a27.08,27.08,0,0,0,10.65-2.08,25.42,25.42,0,0,0,8.65-6,27.12,27.12,0,0,0,5.8-9.52,39.93,39.93,0,0,0,0-25.44,27.12,27.12,0,0,0-5.8-9.52,25.42,25.42,0,0,0-8.65-6,28.28,28.28,0,0,0-21.29,0,25.46,25.46,0,0,0-8.66,6,27.26,27.26,0,0,0-5.8,9.52,40.12,40.12,0,0,0,0,25.44,27.26,27.26,0,0,0,5.8,9.52,25.46,25.46,0,0,0,8.66,6A27.06,27.06,0,0,0,2548.37,846.27Z"/><path class="cls-12" d="M2665.39,876.56,2614.15,755.4h44l41.72,102.3h-26.14l42.93-102.3h40.16l-51.24,121.16Z"/><path class="cls-12" d="M2800.92,845.75h60.58v30.81H2760.76V755.4h98.49v30.81h-58.33Zm-2.77-45.35h54v29.43h-54Z"/><path class="cls-12" d="M2877.25,876.56V755.4H2937q20.25,0,35.65,7.35a57.1,57.1,0,0,1,24.06,20.86q8.66,13.5,8.66,32.2,0,18.87-8.66,32.45a56.88,56.88,0,0,1-24.06,21q-15.4,7.35-35.65,7.35Zm40.85-31.85h17.13a33,33,0,0,0,15.15-3.29,23.65,23.65,0,0,0,10.13-9.78q3.63-6.48,3.63-15.83,0-9.18-3.63-15.58a23.79,23.79,0,0,0-10.13-9.69,33,33,0,0,0-15.15-3.29H2918.1Z"/><path class="cls-12" d="M1923.61,660.87,1789.14,538.53a20,20,0,0,0-26.88,0L1627.79,660.87a19.88,19.88,0,0,0-1.27,28.07h0a20.25,20.25,0,0,0,14.74,6.48,19.82,19.82,0,0,0,13.48-5.22l120.92-110.12,121,110.12a19.92,19.92,0,0,0,27-29.33Zm-254.42,34.32V819.68a10.62,10.62,0,0,0,5.66,9.09,16.71,16.71,0,0,0,8.48,2.16h184.73a16.72,16.72,0,0,0,8.49-2.16,10.8,10.8,0,0,0,5.66-9.09V695.19l-106.55-96.87Zm62.61-9.83h87.49v61H1731.8Zm-82.79-136,81.9,2.53-76.76,74Z"/><path class="cls-13" d="M1810.56,2116.58l9,2.29c-2.38,86.55,55.16,166.57,142.49,189s176.27-20.08,215.82-97.1l10.83,2.77,18.81-73.38-9.18-2.35c6.54-89.76-51.88-174.34-142.06-197.46s-182.09,22.92-219.54,104.76l-7.32-1.87ZM2164.05,2129l-9.08-2.32c1.18-66-42.93-126.84-109.62-143.93s-134.61,15-165.34,73.44l-9.09-2.33c32.17-63.33,105.1-98.32,176.7-80S2166.32,2058,2164.05,2129Zm-257.34-66a119.22,119.22,0,0,1,221.55,56.8Zm200,129.49a119.22,119.22,0,0,1-216.13-55.41Zm-252.59-64.76,9.21,2.36c2.62,62.63,45.75,118.94,109.53,135.29s128.67-12.27,161.11-65.91l9.2,2.36c-34,58.51-103.89,90-172.58,72.4S1855.79,2195.39,1854.15,2127.75Z"/><path class="cls-14" d="M1966.43,2301.49a10,10,0,0,1-6.23-2.26c-3.21-2.54-4.24-6.53-4.8-8.67a133.93,133.93,0,0,1,18.32-107.18c3.27-4.85,7.45-10.14,13.6-12.64a20.79,20.79,0,0,1,14.49-.26q1.93-9.29,3.75-18.56c5.43-27.76,10-56.87,3.46-83.7l-69.23,144.55a4.26,4.26,0,0,1-7.68-3.68l74-154.4a4.25,4.25,0,0,1,7.83.37c11.62,31.59,6.39,66,0,98.5q-2.06,10.49-4.26,21a29.49,29.49,0,0,1,6.85,7c3.78,5.46,5.82,11.63,7.17,17.76l16-23.45c2.18-3.2,8.82-12.89,18.27-11.08,4.34.86,7.84,4,10,8.76a47.85,47.85,0,0,1,44.77,11.65c2.63-7.58,7-15.09,13.24-18.76A15.5,15.5,0,0,1,2139,2165c6.28,2.08,9.77,7.4,12.84,12.1a36.13,36.13,0,0,0,5.53,7.13c8.46,7.53,22.69,3.37,42.3-12.37a278.34,278.34,0,0,1,80.16-44.95c12.85-4.63,22.7-3.32,27.74,3.68a4.26,4.26,0,1,1-6.92,5c-3.66-5.09-13.76-2.15-17.93-.65a270.3,270.3,0,0,0-77.72,43.58c-8.7,7-35.16,28.23-53.29,12.09a42.58,42.58,0,0,1-7-8.82c-2.65-4.05-4.94-7.54-8.4-8.69a7,7,0,0,0-6.08.65c-5.66,3.32-9.86,13.31-11.37,21.18a4.26,4.26,0,0,1-7.72,1.58c-8.67-12.92-26.17-18.93-41.06-14.78,2.53,20.38-8.81,41.45-27.32,50.45a4.26,4.26,0,0,1-6-2.67c-5.7-20.05,4.64-43.42,23.13-52.93-.88-1.77-2.09-3.16-3.67-3.47-2.61-.55-5.83,2-9.57,7.52l-21.83,32.07a4.21,4.21,0,0,1-4.45,1.76,4.26,4.26,0,0,1-3.28-3.49c-1.29-8.26-2.76-17.61-7.61-24.6a19.2,19.2,0,0,0-1.87-2.3c-7.32,33.9-15.76,67.75-25.21,101-1.77,6.26-6.56,13.91-12.86,15.94A10.16,10.16,0,0,1,1966.43,2301.49Zm28.32-123.67a11,11,0,0,0-4.22.81c-4,1.63-7.07,5.54-9.75,9.51a125.32,125.32,0,0,0-17.14,100.27c.46,1.76,1,3.47,1.86,4.15a1.33,1.33,0,0,0,1.46.32c2.57-.84,6-5.58,7.28-10.17,9.71-34.16,18.36-69,25.81-103.84A14.8,14.8,0,0,0,1994.75,2177.82Zm67.09,7.43c-12.19,7.33-19.46,22.27-17.93,36.4C2055.42,2213.65,2062.6,2199.24,2061.84,2185.25Z"/><path class="cls-6" d="M1822.81,1130.14h-.29l-105.63-1c-15.09-.15-27.55-10.54-29-24.16l-9.28-88.62a19.27,19.27,0,0,1,4.54-14.49,23.22,23.22,0,0,1,16.17-8h0c8.9-.61,21.43-1.68,34.7-2.81,27.93-2.38,62.7-5.34,82.27-5.58,14.19-.07,26.23,8.33,29.58,20.69,5.5,20.34,5,58.86,4,99.88C1849.52,1119.4,1837.41,1130.14,1822.81,1130.14ZM1699.89,1002a15.09,15.09,0,0,0-10.51,5.1,11.23,11.23,0,0,0-2.69,8.42l9.29,88.63c1,9.52,10,16.78,21,16.88l105.63,1h.21c10.24,0,18.71-7.21,18.94-16.16,1-40.41,1.52-78.27-3.69-97.57-2.34-8.64-11.34-14.66-21.65-14.69-19.27.24-53.88,3.19-81.68,5.56-13.31,1.13-25.87,2.2-34.84,2.81Z"/><g class="cls-15"><path class="cls-6" d="M1711.25,1011.13c22.19-1.52,70.42-6.41,93.3-6.7,9.69-.12,18.19,5.74,20.46,14.14,4.42,16.32,3.83,48.86,3.07,78.89-.23,9-8.49,16.17-18.58,16.08l-84.41-.81c-10.38-.1-19-7.18-20-16.4l-7.43-70.82C1696.94,1018.18,1703,1011.69,1711.25,1011.13Z"/></g><g class="cls-15"><path class="cls-6" d="M1915.59,1071.29a26.22,26.22,0,0,0,25.58,19.54l977.34-8.33a19.84,19.84,0,0,0-.08-39.67l-977.36-4.46A26.23,26.23,0,0,0,1915.59,1071.29Z"/></g><path class="cls-16" d="M1715.75,1025h0a16.21,16.21,0,0,1,22.36,6.08l20.84,37.35a5.2,5.2,0,0,0,9.29-.4l51.68-115a5.77,5.77,0,0,1,11,2.49c-.53,35.19-9.86,102.08-66.09,158.08,0,0-31-12-55.94-66.84A17,17,0,0,1,1715.75,1025Z"/><path class="cls-6" d="M1822.81,1356.53h-.29l-105.63-1c-15.09-.15-27.55-10.53-29-24.15l-9.28-88.63a19.25,19.25,0,0,1,4.54-14.48,23.23,23.23,0,0,1,16.17-8h0c8.9-.61,21.43-1.68,34.7-2.8,27.93-2.38,62.7-5.34,82.27-5.59h.42c13.89,0,25.84,8.46,29.16,20.69,5.5,20.35,5,58.86,4,99.88C1849.52,1345.79,1837.41,1356.53,1822.81,1356.53Zm-122.92-128.16a15.06,15.06,0,0,0-10.51,5.11,11.2,11.2,0,0,0-2.69,8.41l9.29,88.63c1,9.52,10,16.78,21,16.89l105.63,1h.21c10.24,0,18.71-7.21,18.94-16.16,1-40.41,1.52-78.27-3.69-97.56-2.34-8.65-11.47-14.86-21.65-14.7-19.27.24-53.88,3.19-81.68,5.56-13.31,1.13-25.87,2.2-34.84,2.81Z"/><g class="cls-15"><path class="cls-6" d="M1711.25,1237.52c22.19-1.51,70.42-6.41,93.3-6.7,9.69-.12,18.19,5.74,20.46,14.14,4.42,16.33,3.83,48.86,3.07,78.89-.23,9-8.49,16.18-18.58,16.08l-84.41-.81c-10.38-.1-19-7.18-20-16.4l-7.43-70.82C1696.94,1244.57,1703,1238.08,1711.25,1237.52Z"/></g><g class="cls-15"><path class="cls-6" d="M1915.59,1297.68a26.22,26.22,0,0,0,25.58,19.54l977.34-8.33a19.84,19.84,0,0,0-.08-39.67l-977.36-4.45A26.22,26.22,0,0,0,1915.59,1297.68Z"/></g><path class="cls-16" d="M1715.75,1251.42h0a16.21,16.21,0,0,1,22.36,6.08l20.84,37.35a5.2,5.2,0,0,0,9.29-.4l51.68-115a5.77,5.77,0,0,1,11,2.49c-.53,35.2-9.86,102.09-66.09,158.08,0,0-31-12-55.94-66.84A17,17,0,0,1,1715.75,1251.42Z"/><path class="cls-6" d="M1822.81,1582.92h-.29l-105.63-1c-15.09-.14-27.55-10.52-29-24.15l-9.28-88.62a19.24,19.24,0,0,1,4.55-14.49,23.19,23.19,0,0,1,16.16-8h0c8.9-.6,21.43-1.67,34.7-2.8,27.93-2.38,62.7-5.34,82.27-5.59h.42c13.89,0,25.84,8.46,29.16,20.69,5.5,20.35,5,58.86,4,99.89C1849.52,1572.18,1837.41,1582.92,1822.81,1582.92Zm-122.92-128.15a15,15,0,0,0-10.51,5.1,11.21,11.21,0,0,0-2.69,8.42l9.29,88.63c1,9.52,10,16.78,21,16.88l105.63,1h.21c10.24,0,18.71-7.21,18.94-16.16,1-40.4,1.52-78.27-3.69-97.56-2.34-8.64-11.47-14.89-21.65-14.69-19.27.24-53.88,3.18-81.68,5.55-13.31,1.13-25.87,2.2-34.84,2.82Z"/><g class="cls-15"><path class="cls-6" d="M1711.25,1463.92c22.19-1.52,70.42-6.42,93.3-6.7,9.69-.12,18.19,5.73,20.46,14.14,4.42,16.32,3.83,48.86,3.07,78.89-.23,9-8.49,16.17-18.58,16.07l-84.41-.81c-10.38-.1-19-7.18-20-16.39l-7.43-70.83C1696.94,1471,1703,1464.48,1711.25,1463.92Z"/></g><g class="cls-15"><path class="cls-6" d="M1915.59,1524.08a26.21,26.21,0,0,0,25.58,19.53l977.34-8.33a19.83,19.83,0,0,0-.08-39.66l-977.36-4.46A26.22,26.22,0,0,0,1915.59,1524.08Z"/></g><path class="cls-6" d="M1822.81,1809.32h-.29l-105.63-1c-15.09-.14-27.55-10.52-29-24.14l-9.28-88.63a19.24,19.24,0,0,1,4.55-14.49,23.19,23.19,0,0,1,16.16-8h0c8.9-.6,21.43-1.67,34.7-2.8,27.93-2.38,62.7-5.34,82.27-5.58h.42c13.89,0,25.84,8.46,29.16,20.7,5.5,20.34,5,58.85,4,99.88C1849.52,1798.58,1837.41,1809.32,1822.81,1809.32Zm-122.92-128.16a15.09,15.09,0,0,0-10.51,5.1,11.23,11.23,0,0,0-2.69,8.42l9.29,88.63c1,9.52,10,16.78,21,16.88l105.63,1h.21c10.24,0,18.71-7.22,18.94-16.17,1-40.4,1.52-78.26-3.69-97.56-2.34-8.64-11.47-14.91-21.65-14.69-19.27.24-53.88,3.19-81.68,5.55-13.31,1.14-25.87,2.21-34.84,2.82Z"/><g class="cls-15"><path class="cls-6" d="M1711.25,1690.31c22.19-1.52,70.42-6.42,93.3-6.7,9.69-.12,18.19,5.73,20.46,14.14,4.42,16.32,3.83,48.86,3.07,78.89-.23,9-8.49,16.17-18.58,16.07l-84.41-.81c-10.38-.1-19-7.17-20-16.39l-7.43-70.83C1696.94,1697.36,1703,1690.87,1711.25,1690.31Z"/></g><g class="cls-15"><path class="cls-6" d="M1915.59,1750.47h0a26.22,26.22,0,0,0,25.58,19.54l977.34-8.34a19.83,19.83,0,0,0-.08-39.66l-977.36-4.46A26.23,26.23,0,0,0,1915.59,1750.47Z"/></g><path class="cls-16" d="M1722.28,1479.76h0a16.21,16.21,0,0,1,22.36,6.09l20.83,37.34a5.21,5.21,0,0,0,9.3-.4l51.68-115c2.57-5.74,11.12-3.8,11,2.49-.53,35.2-9.87,102.09-66.1,158.08,0,0-31-12-55.94-66.84A17,17,0,0,1,1722.28,1479.76Z"/><path class="cls-16" d="M1722.28,1698.4h0a16.21,16.21,0,0,1,22.36,6.09l20.83,37.35a5.21,5.21,0,0,0,9.3-.41l51.68-115c2.57-5.74,11.12-3.8,11,2.49-.53,35.19-9.87,102.08-66.1,158.07,0,0-31-12-55.94-66.84A17,17,0,0,1,1722.28,1698.4Z"/><path class="cls-17" d="M2045.19,2483.63v-60.56l-66.7.55c-37.21-15.06-86.75-24.32-141.34-24.32-57.46,0-109.47,10.19-147.24,26.67l-61.66.5V2497h.69c7,47.87,97.41,85.77,208.21,85.77,115.37,0,208.89-41.06,208.89-91.71A40.61,40.61,0,0,0,2045.19,2483.63Z"/><ellipse class="cls-18" cx="1837.15" cy="2426.47" rx="208.89" ry="91.71"/><ellipse class="cls-19" cx="1836.02" cy="2419.68" rx="149.58" ry="65.67"/><path class="cls-17" d="M1880.46,2371.54V2311l-66.71.55c-37.21-15.05-86.75-24.32-141.34-24.32-57.45,0-109.47,10.19-147.23,26.67l-61.66.5v70.48h.68c7,47.87,97.41,85.77,208.21,85.77,115.37,0,208.89-41.06,208.89-91.71A41.61,41.61,0,0,0,1880.46,2371.54Z"/><ellipse class="cls-18" cx="1672.41" cy="2314.38" rx="208.89" ry="91.71"/><ellipse class="cls-19" cx="1671.28" cy="2307.59" rx="149.58" ry="65.67"/><path class="cls-6" d="M1716.08,2300.33c-17.72-3.26-39.41-2.61-58.92,2.31-7.81,1.84-15.49,3.18-22.61.46-1.45-.93-3.17-1.79-3.59-3-7.12-9.4,30.25-17,35.8-7.43,14-2.39,28-7.44,39.11-12.2l.26-.08c-8.36-12.89-27.66-16.88-48.68-15.37-5.22.5-10.75,1.31-16.32,2.37q-3.26-3.74-6.5-7.46a6.3,6.3,0,0,0-4.29-2.47c-2.49-.33-5.32.43-7.77,1.16l-28,8.35c-.39.12-.81.26-.92.46s.06.33.22.47c2.79,2.48,6.07,7.28,10.44,10.81a61.71,61.71,0,0,0-6,3.29c-26.21,16.51-17.86,42.12,29.67,45.28a89.74,89.74,0,0,0,22.19-1.73c16-3.35,37.73-8.82,48.32-2.23,16.53,9.22-21.67,21-34.27,11.76-11.56,3.81-28.34,8-39.62,12.67l.4.34.39.34c11.51,11.68,40,13.12,66.58,8.85,3,2.32,6.63,4.52,8.4,5.8a7.28,7.28,0,0,0,2.94,1.43c3,.64,6.82-.54,9.76-1.67q12.4-4.74,24-10c.46-.21,1-.45,1-.73s-.26-.37-.51-.51a65.75,65.75,0,0,1-7.82-5.26c13-6.17,21-14.2,19.13-23C1748,2312.92,1736.27,2303.27,1716.08,2300.33Z"/><path class="cls-17" d="M2429.11,2660.91v-60.55l-66.71.54c-37.21-15.05-86.75-24.32-141.34-24.32-57.45,0-109.47,10.19-147.23,26.67l-61.66.5v70.48h.68c7,47.87,97.41,85.77,208.21,85.77,115.37,0,208.9-41.06,208.9-91.71A41.62,41.62,0,0,0,2429.11,2660.91Z"/><ellipse class="cls-18" cx="2221.06" cy="2603.75" rx="208.89" ry="91.71"/><ellipse class="cls-19" cx="2219.93" cy="2596.96" rx="149.58" ry="65.67"/><path class="cls-6" d="M2270.35,2582.85c-17.72-3.25-39.41-2.61-58.92,2.31-7.8,1.84-15.49,3.19-22.61.47-1.45-.94-3.17-1.8-3.59-3.06-7.11-9.4,30.26-17,35.81-7.43,13.94-2.39,28-7.44,39.11-12.2l.25-.08c-8.36-12.89-27.66-16.88-48.68-15.37-5.21.51-10.75,1.31-16.32,2.37l-6.49-7.46a6.36,6.36,0,0,0-4.3-2.47c-2.48-.33-5.32.43-7.77,1.16l-28,8.35c-.38.12-.81.26-.92.46s.07.33.23.47c2.78,2.48,6.07,7.28,10.43,10.81a61.71,61.71,0,0,0-6,3.29c-26.21,16.51-17.85,42.13,29.67,45.28a89.74,89.74,0,0,0,22.19-1.73c16-3.35,37.74-8.82,48.33-2.23,16.53,9.22-21.68,21-34.28,11.76-11.56,3.81-28.34,8-39.62,12.67l.4.34.4.34c11.5,11.68,40,13.12,66.57,8.85,3,2.32,6.63,4.52,8.4,5.81a7.26,7.26,0,0,0,3,1.42c3,.64,6.81-.54,9.75-1.66,8.27-3.16,16.29-6.49,24-10,.46-.2,1-.45,1-.73s-.26-.36-.51-.51a66.8,66.8,0,0,1-7.81-5.25c13-6.18,21-14.21,19.12-23C2302.24,2595.44,2290.54,2585.79,2270.35,2582.85Z"/><path class="cls-20" d="M3307.44,1430.91h377.22c.28-159.85-47.08-152.84-61.37-233.82C3604.22,1089,3583,1027.55,3536.4,925.83c-24.26-52.94-54.25-101.84-112.32-97.49-31.2,2.34-93.17,29.12-120.18,44.91a996.26,996.26,0,0,0-100,66.94c-13.66,10.39-27.68,22-33.5,38.11-8.88,24.57,3.67,51.16,15.3,74.55C3248.64,1179.41,3327.27,1245,3307.44,1430.91Z"/><path class="cls-21" d="M3402.37,2288.43l-75.86,1c4.46,35.19,8.92,71,3.57,106.07-3,19.76-9.79,39.3-20.13,55.71,27.83,16.47,66.08,34.43,95,16.59-1.53-9.43-1.21-25.81-2.45-35.16C3396.17,2385,3399.26,2336.47,3402.37,2288.43Z"/><path class="cls-22" d="M3516.2,1406.77l-181-4.23c-6.82,9.65-7.83,22.48-10.69,34-82.38,332.38-62.49,671.56-37.79,948.54,28.18,0,76.34,4.91,122.25-3.53C3395.72,2090.65,3455.7,1699.35,3516.2,1406.77Z"/><path class="cls-23" d="M3378.74,2374.47l4.29-.1c-5.75-255.57,20.7-482.69,78.62-731.67l-4.19-1C3399.47,1891.05,3373,2118.54,3378.74,2374.47Z"/><path class="cls-24" d="M3277.56,2365.54c-1,1.41-.9,3.3-.77,5q1.32,17.74,2.63,35.51c37.81,4.58,95.66,2.49,132.76-6.17a236.26,236.26,0,0,1,0-43.78c-35.4,8-91.27,10.56-127.41,7.5C3282.18,2363.41,3279.07,2363.38,3277.56,2365.54Z"/><path d="M3310.74,2442.76c-8,12.7-18.85,32-31.28,39.33-15.07,8.88-32.65,12.42-46.57,23.33-18.49,14.5-23.9,29.39-18.46,53.61,19.26,1.41,66.58,4.59,100.16-4.23,17-4.47,26-18.78,43-23.25-.1,5.15,4.59,10.37,4.48,15.52l46.26-5.51c6.84-26.21,7-54.67,2.55-81.88C3382,2477.51,3338.56,2459.23,3310.74,2442.76Z"/><path class="cls-21" d="M3572.17,2422c3.94,40.48-2.29,64.5,1.65,105,.49,5,1.28,10.66,5.39,14.34,4.53,4.06,17.62,6.34,23.46,7.51,32.45,6.47,71.26,8.12,83.26-8.59-.07-28.12-18.8-44.19-30.71-71.47s-25.79-78.17-20.38-105.13c-27.22,3.38-45.6,2.73-72.81,6.11Z"/><path d="M3661,2475.71c-.55-1.59-7.1-6.61-7.76-8.3-32.17-15.66-54.53,33-85.78,32.61,0,9.71,1,19.57,2.12,31.18.49,5.2,5.52,12.27,9.63,16.07,4.53,4.2,17.62,6.55,23.46,7.76,32.45,6.69,71.26,8.39,83.26-8.88C3692.18,2503.19,3673.69,2511.64,3661,2475.71Z"/><path class="cls-22" d="M3675.57,1402.54H3460.52c-30.18,266,19.79,678.85,93.73,1010.08,49-7.22,84.2-4.47,133.18-11.69C3646.39,2102.67,3662.14,1713.58,3675.57,1402.54Z"/><path class="cls-23" d="M3660,2395.89l4.23-.7c-51.8-313.61-60.86-604.17-26.93-920.23l-4.26-.46C3599.07,1790.94,3608.14,2081.9,3660,2395.89Z"/><path class="cls-24" d="M3534.76,2382.2q4.13,18.21,8.24,36.43a358.85,358.85,0,0,0,145.86-7.86q.09-21,.17-41.93A843.32,843.32,0,0,1,3534.76,2382.2Z"/><path class="cls-25" d="M3362.41,836c-12.06-55.52-10.72-44.48-24.48-108.44-29.24,19.77-52.22,35.6-83.73,51.53,5.58,56.28,8.18,58.47,8.32,111.54-3.3,2.66-6.61,5.3-9.81,8.09a256.25,256.25,0,0,0,43.94,43.2c18-15.5,36-31.09,51.33-49.24s27.82-39.14,33.06-62.29C3374.77,832,3368.56,833.9,3362.41,836Z"/><g class="cls-26"><path class="cls-27" d="M3262.16,864.81c-.9-30.13-3.46-40.35-8-85.77,28-14.18,49.36-28.3,74.32-45.17C3335.93,787.53,3307.6,842.89,3262.16,864.81Z"/></g><path class="cls-25" d="M2862.18,617.68c-9.74-10.9-.34-42.14-21.27-39.51-9.5-.13-28.25-1.78-36.67-13.21-4.18-5.67-13.25-5.07-16.75,1a29.15,29.15,0,0,0-3.49,9.74,12,12,0,0,0-15.75,17.52c-11.33,2.92-17.89,17.47-12.57,27.89-5.33,2.7-6.4,10.3-3.94,15.75s7.41,9.28,12,13.1a220.1,220.1,0,0,1,57.91,74,267.75,267.75,0,0,1,52.53-48.14A61,61,0,0,1,2862.18,617.68Z"/><path class="cls-28" d="M3215,932.93c-68.82-18.79-182.33-78.57-182.33-78.57s-83.93-112.42-145.54-201.11c-21.51,19-69.57,43.12-92.53,60.44,40.38,79,153.4,237.78,153.4,237.78s148.79,102.52,259.39,141.84C3241.06,1036.72,3226.64,1002.73,3215,932.93Z"/><path class="cls-23" d="M3319.86,1394.09c-.44,11.75-1.26,24-2.55,36.82H3674.8c0-13.43-.3-25.59-.87-36.82Z"/><path class="cls-24" d="M3417.84,1392.68c-5,.7-10,2.12-14,5s-7.16,7.56-7.31,12.59c-.23,7.39,5.74,13.67,12.36,17a36.57,36.57,0,0,0,23.49,3c7.57-1.57,15.13-6.32,17.22-13.77s-2.26-15.92-8.92-20.11S3425.63,1391.57,3417.84,1392.68Z"/><path class="cls-28" d="M3191,929.25c-14.45,11-29.27,23.24-35.44,40.32-9.38,26,3.89,54.11,16.2,78.85,75.13,151,171.47,219.83,115.42,482.11,24.25-6.39,53.24-9.47,84.74-10.53,19.13-230.08-135.85-509.59-121.05-628C3234.41,903.17,3206.88,917.2,3191,929.25Z"/><path class="cls-29" d="M3310.1,1139.36c-24.44-88.46-46.39-187.61-47-279.38-11.71,6.92-12.35,32.3-25.89,31-.19,62.36-10.49,127.51-5.05,189.63l38.66,8.52-27.85,9.25A1248.7,1248.7,0,0,1,3344.41,1521c12.87-2.17,32.37-10.45,32.7-1C3369.29,1364.49,3343.11,1258.87,3310.1,1139.36Z"/><path class="cls-28" d="M3634.69,1201c-20.18-114.33-42.6-179.34-91.91-286.94-25.67-56-57.39-107.72-118.81-103.12-17.37,1.3-33.29,7.17-58.56,17.33-40.34,198.77,98.91,379.48,98.91,581.2,0,38,0,75.26-1,111.91,83.9,4.29,171.61,14.5,232.66,13.63C3702.23,1285.93,3652,1299.23,3634.69,1201Z"/><path class="cls-29" d="M3468,1203.68c-.47-20.19,5.76-39.84,10.93-59.36,19.37-73.08,24.46-149.07,29.46-224.51,60.23,126.14,56.57,280.87-9.57,404C3498.07,1282.27,3469,1245.23,3468,1203.68Z"/><path class="cls-29" d="M3465.89,1525.72c16.55-83.53,1.83-170.3-22.36-252s-46.11-164.45-80.11-242.52c-44.51-102.22,3.4-187.13-8.23-226.59,24.78,32.88,24.44,46.4,31.55,84.32a425.3,425.3,0,0,0,47.44,130.33,145.31,145.31,0,0,0-48.29,24.88,258.58,258.58,0,0,0,61.63-2.87c-12.43,19.16-15,43.3-12.37,66s10.1,44.47,16.42,66.41C3484.36,1287.56,3487.12,1409.16,3465.89,1525.72Z"/><path class="cls-25" d="M3191.62,1043.93c-18.3-19.47-28.83-44.44-31.34-71-16.52-15.15-28.35.26-46.12-20.53a8.38,8.38,0,0,0-13,0c-3.79,4.85-4.88,11.32.95,18.55-4.62-3-10.2-4.75-12.94,0s-2.08,15.09,2.85,17.55c-9.25,3.65-10.19,19-1.45,23.79-9.27,1.71-9.15,11.85-6.69,17.14,4,8.54,16.64,22.87,25.37,26.42s8.24,2.56,17.11,5.74a76.58,76.58,0,0,1,39.13,31.93A96.43,96.43,0,0,1,3191.62,1043.93Z"/><path class="cls-28" d="M3518.71,927.52c-1.07-31.21-4.55-64-22.63-89.5s-55.3-39.8-81.7-23.12c-24.08,15.2-29.33,47.49-31.86,75.85-8.92,100.24.65,132.13,1.92,232.76-46.59-24-105.7-28.19-208.57-115.56-15.28,12.9-32.29,62.49-47.57,75.39,94.59,94.59,158,142.21,269.69,201.3A53.21,53.21,0,0,0,3470.3,1262C3524.67,1155.44,3523.23,1058.73,3518.71,927.52Z"/><path d="M3146.71,625.34s-19.32-10.24-23-26.83c12.64,1.63,27.14-2,40.84-7.75-12-12.33-.54-40.47-.54-40.47,14.27,24.64,44.25,14.54,44.25,14.54h0c19-12.18,46.09-23.16,66.24-21.29,22.88,2.13,33.13,30.64,33.13,30.64s8.73,1.59,29.39,9.1,36,38.31,26.26,67.42-20.7,66.68-20.7,66.68l-154.62-12.7s-21.86-6.45-30.51-19.6-2.54-37-2.54-37-15.25,3.38-23.77,14.94C3125.25,637.77,3146.71,625.34,3146.71,625.34Z"/><path class="cls-25" d="M3170.9,653.69,3197.3,789A18.7,18.7,0,0,0,3208,802.49l41.81,18.68a18.53,18.53,0,0,0,18-1.51l62.82-41.86a18.76,18.76,0,0,0,8-19.17L3312.71,626Z"/><g class="cls-26"><path class="cls-27" d="M3184.2,721.87l10.4,53.3a27.15,27.15,0,0,0-10.4-53.3Z"/></g><path class="cls-30" d="M3223.13,744a2.08,2.08,0,0,1-2.08-1.9l-5.32-59a2.09,2.09,0,0,1,1.89-2.27,2.07,2.07,0,0,1,2.26,1.89l5.11,56.71,18.27-3.57a2.09,2.09,0,1,1,.8,4.1l-20.54,4A1.72,1.72,0,0,1,3223.13,744Z"/><path d="M3332.42,704.29c-37.32-23.48-31.33-74.29-31.33-74.29-38.91,15.36-69.29,22.94-93,25.52a144.46,144.46,0,0,1-34,.1c-34-4.38-17.45-30.55,10.25-50.76,49.68-36.25,81.34-68.19,135.29-17.58h0a40.3,40.3,0,0,1,39.72,40l.33,50.7Z"/><circle class="cls-25" cx="3354.63" cy="711.02" r="34.36" transform="translate(1954.65 3841.38) rotate(-77.87)"/><path class="cls-31" d="M3256.91,659.58c1.66,7.74,28.32,7.8,28.24.45-.06-5.66-7.73-6-14.58-6.55C3262.66,652.89,3255.51,653,3256.91,659.58Z"/><path class="cls-31" d="M3167.7,681.42c4.77,5.5,26.29-6.28,23-12.17-2.74-4.85-10.67-2.71-16.65.42S3163.9,677,3167.7,681.42Z"/><g class="cls-26"><circle class="cls-27" cx="3293.41" cy="726.39" r="27.16" transform="translate(-70.7 965.02) rotate(-16.5)"/></g><path class="cls-32" d="M3252.63,695.25c1.17,5.36,4.65,9.14,7.77,8.46s4.69-5.58,3.52-10.93-4.66-9.14-7.77-8.45S3251.45,689.9,3252.63,695.25Z"/><path class="cls-32" d="M3195.05,706.49c1.17,5.35,4.65,9.13,7.77,8.45s4.69-5.58,3.52-10.93-4.65-9.14-7.77-8.45S3193.88,701.13,3195.05,706.49Z"/><path class="cls-30" d="M3350.89,732.53a2.07,2.07,0,0,1-1.36-.51c-3.55-3.08-6.31-7.48-8.2-13.09-5.57-16.56,9.07-26.44,17.59-29.35a2.09,2.09,0,0,1,1.35,3.95c-.85.29-20.63,7.32-15,24.07,1.65,4.89,4,8.68,7,11.27a2.09,2.09,0,0,1,.21,2.94A2.13,2.13,0,0,1,3350.89,732.53Z"/><path class="cls-30" d="M3343.31,720.35a2.17,2.17,0,0,1-.79-.15,2.08,2.08,0,0,1-1.14-2.72c6.11-15,20.28-9.43,20.42-9.38a2.09,2.09,0,0,1-1.56,3.87c-1.08-.43-10.56-3.81-15,7.08A2.09,2.09,0,0,1,3343.31,720.35Z"/><path class="cls-33" d="M3250.57,788.58c-15.81,4.68-37.16-17.47-25.65-20.75l44.67-7.14a3.17,3.17,0,0,1,3.8,3C3273.26,775.72,3263.7,786.48,3250.57,788.58Z"/><path class="cls-6" d="M3270.7,760.69c-7.67,11.17-32.12,14.09-45.78,7.14C3226,767.83,3269.7,760.35,3270.7,760.69Z"/><path d="M3336.85,740.42c-5-5.27-12.88-46.34-15.34-47,1.58,13.84,2.14,38.11,1.5,42.93-1.3,9.62-17.27,17-33,20s-36.13-11.65-62.22-8.26c-17.89,2.32-31.64,10.1-36.12,12.23-2,6.09.82,20.19,1.67,26.26,4.17,29.78,11,43.13,30.4,47.71,28.21,6.66,102.43-8.4,116.41-45.94C3345.25,774.83,3333.3,773.29,3336.85,740.42Z"/><path class="cls-33" d="M3252.39,795c-13.86,4.52-33.27-14.55-23.17-17.73l39.32-7.38a2.81,2.81,0,0,1,3.43,2.56C3272.14,783.11,3264,792.85,3252.39,795Z"/><path class="cls-6" d="M3269.52,769.88c-6.51,10.06-28.06,13.23-40.3,7.41C3230.18,777.26,3268.62,769.61,3269.52,769.88Z"/><path class="cls-34" d="M1101,839.56c44-6.95,36.49-55.17,33.83-68.72-.66-2.2-1.26-4.44-1.78-6.71l0,0h0c-10.16-43.87,5.07-100.36,44.4-127.78,72.52-50.56,117,5.39,117,5.39,71.17-16.72,119.69,78.15,52.74,144.91,0,0,123.85,113.85,41.29,155.39-73.2,36.82-229.7,210.67-303,174.34C977.19,1062.58,905,870.53,1101,839.56Z"/><path class="cls-35" d="M1333.16,817.34S1357,876.12,1322.33,938c-17.82,31.79-205.08,112.62-166.25-44.73C1207.55,684.64,1333.16,817.34,1333.16,817.34Z"/><path class="cls-25" d="M1428.43,2329.34c1.14,17.68-2.27,79.57,4.61,95.94,12.82,30.49,31.5,58.34,43.1,89.32a212.67,212.67,0,0,1,12.34,95.55c-1.09,10.72-3.84,22.67-13,28.26-12.48,7.57-28.21-.93-40.22-9.21-26.82-18.5-55.2-39-66.08-69.69-9.38-26.49-2.62-55.91-2.57-84,.06-29.26,0-19.59-6.18-65.73-1-7.75-12.76-32.88-15.47-40.21l-9.28-31.71Z"/><path d="M1451.63,2582.22c18.12,0,29.28-7.94,36.2-20.15a211.82,211.82,0,0,1,.65,48.08c-1.09,10.72-3.84,22.67-13,28.26-12.48,7.57-28.21-.93-40.22-9.21-26.82-18.5-55.2-39-66.08-69.69-9.38-26.49-2.62-55.91-2.57-84,0-1.45,0-2.73,0-4C1379.23,2525.36,1389.06,2590,1451.63,2582.22Z"/><path class="cls-36" d="M1373.47,2428.38c-5.43-1.16-11.36-3.23-13.81-8.21-1.48-3-1.38-6.49-1.4-9.83a112.33,112.33,0,0,0-10-45.54,145.9,145.9,0,0,0,90.28-.22l-4.08,47.55a21.12,21.12,0,0,1-1.43,7c-2.39,5.19-8.46,7.47-14,8.77A104.44,104.44,0,0,1,1373.47,2428.38Z"/><path class="cls-37" d="M1467,2327.86q-2.28,16.89-4.81,33.68c-33.76,39.23-61.77,67.1-126.47,18a28.39,28.39,0,0,1-11.11-22.66c.61-272.7-43.74-529-93.2-780.51-20.84-106-42.59-211.22-62.25-316.47l234.83-.48C1483.5,1599.52,1514,1980.23,1467,2327.86Z"/><path class="cls-38" d="M1467,2327.86q-2.28,16.89-4.81,33.68c-33.76,39.23-61.77,67.1-126.47,18a28.39,28.39,0,0,1-11.11-22.66c.61-272.7-43.74-529-93.2-780.51l57.55-39.85s105.77,570.54,93,705.44C1370.87,2358.51,1409.87,2353.93,1467,2327.86Z"/><path class="cls-25" d="M904.79,1763.35a145.61,145.61,0,0,1-108.56-5c-16.05-7.41-33.55-18.07-50.1-11.83-14.82,5.6-21.82,22.78-23.36,38.55s.63,32-3.51,47.3c-3.73,13.79-12.29,25.7-18.13,38.73-20.07,44.75-6.42,96.83,9.67,143.17,14.63-5.37,25.6-18,32.87-31.75s11.42-29,16.65-43.63c11.1-31.2,28.09-61.54,54.9-81s64.9-25.72,93.43-8.91Q906.72,1806.2,904.79,1763.35Z"/><path d="M701.13,1871.14c5.84-13,14.4-24.94,18.13-38.73,4.14-15.29,2-31.53,3.51-47.3s8.54-32.95,23.36-38.55c7.89-3,16-2,24,.47-34.06,58.15-53.69,159.24-15.39,208.09-3.17,9.38-6.51,18.69-11.12,27.44-7.27,13.78-18.24,26.38-32.87,31.75C694.71,1968,681.06,1915.89,701.13,1871.14Z"/><path class="cls-36" d="M891.53,1783.5c-2.92-2.15-1-11.43-4.65-11.56-14.1-.47-32.46-.67-46.57-1.15-4.23,25-10,58.86-14.22,83.89l64.26,13.74a263,263,0,0,1,4.47-65.19C896.18,1796.3,897.22,1787.69,891.53,1783.5Z"/><path class="cls-37" d="M886.77,1891c-38.29-32.6-45-76.07-5.17-118,52.78-51.75,100-15.76,179.56-32.08,18.63-144.38,27.52-216.82,54.33-307.38,18.37-62,29.5-59,46.58-138.16,64.27-18.71,84.71-27.12,151.6-24.48,26.58,225.68-8.88,426-97.61,612a63.12,63.12,0,0,1-63.37,35.36C1068,1909.68,962.11,1898.22,886.77,1891Z"/><path class="cls-38" d="M1088.05,1802l-.16-22.42,25,14.28-.23-3.22a771.77,771.77,0,0,1,72.22-383.93l-3.11-1.48A775.24,775.24,0,0,0,1109,1787.62l-24.64-14.06.16,23.75a414.39,414.39,0,0,0-218.19-4.5l.83,3.34a411.2,411.2,0,0,1,218.61,5.12Z"/><path class="cls-25" d="M1420.11,758.21c-5.7,12.82-2.91,27.75,1.37,41.11s10,26.64,10,40.67c0,18.78-10.38,37.4-5.8,55.62,2.87,11.47,11.51,20.9,21.75,26.8s22,8.61,33.73,10.19c1.77.23,3.76.4,5.18-.69,2-1.56,1.75-4.63,1.39-7.16-4.91-34.57,12.07-70.19,3.77-104.11-6.75-27.57-28.77-48.35-49.76-67.46-2.27-2.06-4.69-4.2-7.69-4.82C1428,747.13,1422.61,752.58,1420.11,758.21Z"/><path class="cls-25" d="M1441.39,862.94a48.49,48.49,0,0,1-23.69-26.08c-1.18-3.11-2.13-6.51-4.61-8.74s-7.14-2.37-8.59.63c-.75,1.54-.42,3.37-.08,5l6.24,30.43c2,10,4.19,20.2,9.63,28.81,9.44,15,26.94,22.39,43.37,29Z"/><path class="cls-39" d="M1379.51,1012.85c-16.82-17-36.79-37.46-31.7-60.83,4.88-22.45,30.9-34.41,39-55.94a497.65,497.65,0,0,1,172.67,242c4.51,13.87,8.28,29.51,1.81,42.58-10.72,21.62-43.74,21.87-62.85,7.15s-28.32-38.49-38.63-60.3A416.89,416.89,0,0,0,1379.51,1012.85Z"/><path class="cls-25" d="M1584.11,1155.69c4.67,21.91,5.44,49.91-14,61.07-16,9.18-36.51.7-50.84-10.92-44.31-35.91-52.81-93.12-59.79-149.73s-10.12-117.61-37.22-167.8c13,14.81,33.38-5.12,51.08,3.49,8,3.88,12.36,12.41,16.22,20.39C1527.58,990.77,1565.92,1070.31,1584.11,1155.69Z"/><path class="cls-40" d="M1434.26,1088.26l2.92-1.84a268.25,268.25,0,0,1-40.94-138.37l-3.45.05A271.84,271.84,0,0,0,1434.26,1088.26Z"/><path class="cls-39" d="M1061,952.56c77.16-74.94,218.75-36,325.44-49.62q3.26,29.34,6.54,58.51l.52.11-.27,2.1q1.93,17.26,3.83,34.5c14.74,31.78,41.26,61.14,38.08,95.75-1.73,18.75-13.23,61.26-25.45,76.18,3.25,41.29,7.14,55.92,8.14,97.73,1.46,60.9,41.51,133.14,40.36,194-107.37,19.73-245.78-42.9-361.71-23.29C1197.43,1156,947.35,1063,1061,952.56Z"/><path class="cls-40" d="M1249.33,1255.52c11.74-.41,22.1-7.75,30.46-16,27.22-26.82,40.53-65,45.81-102.84-21.08,11.93-47.34,6.17-70.79.08-69.17-17.94-140-36.64-198.49-77.71a398.48,398.48,0,0,0,164.24,186.64C1229.43,1250.89,1239.06,1255.88,1249.33,1255.52Z"/><path class="cls-40" d="M1417.82,1460.87c12.7,0,26.44-1.28,39-6.7l-1.37-3.17c-15,6.47-31.94,6.79-46.6,6.23-39.48-1.5-78.93-9.85-117.1-17.94-11.92-2.52-24.26-5.14-36.41-7.5-47.19-9.19-102.58-16.81-155.5-3.66l.83,3.34c52.26-13,107.2-5.4,154,3.7,12.12,2.36,24.45,5,36.36,7.5,38.3,8.11,77.91,16.5,117.68,18C1411.65,1460.79,1414.7,1460.87,1417.82,1460.87Z"/><path class="cls-40" d="M1395.32,1291.05l.86-3.35a476.39,476.39,0,0,0-230.93-1.22l.83,3.35A472.81,472.81,0,0,1,1395.32,1291.05Z"/><path class="cls-40" d="M1358.74,1300.4l.36-3.43a689.74,689.74,0,0,0-96.85-3.25l.14,3.45A685.85,685.85,0,0,1,1358.74,1300.4Z"/><path class="cls-25" d="M1191.42,914.15c6.12-46.29,17.09-95.77,5.45-137.73,23.18,12.34,62.49,47.6,88.73,48.57,1.48,35.16-2.68,50.14,5.07,85,3.56.29,7.11.64,10.65,1.11a47.67,47.67,0,0,1,12.18,2.82c3.74,1.57,7,4.11,8.19,7.38,1.63,4.46-.75,9.29-3.17,13.64-6.74,12.13-14.66,24.6-28.19,32.37-12.6,7.23-28.76,9.44-43.87,8.21s-29.39-5.62-43.11-10.57c-11.76-4.24-23.38-9-33.12-15.68s-17.58-15.56-20.07-25.77C1163.22,918.51,1177.2,915.86,1191.42,914.15Z"/><path class="cls-39" d="M1036.88,993.37c3.28-15.82,12.52-32,28-36.7,20.45-6.2,55.36-10.71,70.84,4,48,45.8,86.24,81.07,162.56,115.14,16.13,7.19,18.65,77.87,17,85-4.11,17.17-13.07,36.59-26.9,47.58-19.74,15.67-48.47,2.75-70-10.4l-63.51-38.82c-30.95-18.93-62.42-38.29-86.22-65.68S1029.49,1028.89,1036.88,993.37Z"/><path class="cls-40" d="M1279.12,1077.91c-14.18-10-34.61-12.51-48.65-2.36-9.35,6.75-14.57,17.91-17.35,29.1-7.59,30.61,1.33,64.81,22.91,87.81,11.69,12.46,30.51,21.89,45.56,13.78,9.52-5.14,14.56-15.8,18.05-26,6-17.68,9.37-36.61,6.68-55.09S1294.4,1088.64,1279.12,1077.91Z"/><path class="cls-40" d="M1145,965.41a383.71,383.71,0,0,0,115.38,86.35l-.81.94a3.08,3.08,0,0,0-.87,2.07,386.92,386.92,0,0,1-116.24-87Z"/><path class="cls-25" d="M1250.61,1068.29l103.1-171.19c-.33-4-.87-7.9-1.58-11.79-2.29-12.55-6-24.86-7.4-37.54-3.75-33.22,8.17-66,19.88-97.29,1.53-4.08,3.22-8.37,6.69-11,6-4.53,15-2,20.66,2.91,12.39,10.87,13.55,29.8,10.68,46s-8.81,32.3-7.2,48.7c1,10.28,4.94,20,8.26,29.77s6.1,20.1,4.68,30.32c-1.23,8.9-6.35,17.7-14.2,21.68-33,90.79-25.16,170-74.66,245.81-11.31,17.32-26.23,35.24-46.79,37.51-28.2,3.11-51.09-26.91-51.48-55.28S1236,1092.59,1250.61,1068.29Z"/><path class="cls-35" d="M1291.07,681.84c52.17-20.06,91.76,20.25,72,77.59-21.74,63-82.5,39.75-82.5,39.75Z"/><path class="cls-25" d="M1206.93,781.69l-9,114.61s17.33,14.82,47.23,16.68c36,2.24,44.55-6.33,44.55-6.33l2.84-71.24,1.1-38.06Z"/><path class="cls-41" d="M1214.05,836.86s45.48,63.5,76.16,68.35c.47-6.77,1-32.65,1.07-38.54Z"/><path class="cls-25" d="M1211.93,671.18l4.5,155.18a17.21,17.21,0,0,0,11,15.53l64.72,24.84a17.28,17.28,0,0,0,16.45-2.29l33.62-25.19a17.19,17.19,0,0,0,6.9-14.22l-.17-5.33-1.81-62.06-1-36a54.39,54.39,0,0,0-55.92-52.74Z"/><g class="cls-26"><path class="cls-27" d="M1326.11,786.33A32.88,32.88,0,0,0,1349,819.7l-1.81-62.06A32.8,32.8,0,0,0,1326.11,786.33Z"/></g><path class="cls-30" d="M1304,801.16a2.26,2.26,0,0,1-.78-4.38l21.22-7.84-15.52-54.24a2.26,2.26,0,0,1,4.34-1.24l16.1,56.25a2.25,2.25,0,0,1-1.39,2.74L1304.74,801A2.33,2.33,0,0,1,1304,801.16Z"/><path class="cls-34" d="M1211.6,761.46l-.48-4.07c37.56-4.46,63.63-17.52,77.49-38.8,18.45-28.34,8.43-61.94,8.33-62.28l3.91-1.21c.45,1.45,10.7,35.71-8.79,65.68C1277.52,743.15,1250.45,756.84,1211.6,761.46Z"/><path class="cls-34" d="M1197.73,760.75s98.08-14.45,106.35-91.22l-5.61-20.41-109.72,7.25Z"/><path class="cls-25" d="M1234.07,785.71a31.55,31.55,0,1,1-32.46-30.62A31.55,31.55,0,0,1,1234.07,785.71Z"/><path class="cls-32" d="M1349.8,720c-2.45,6.23-24.69,2.6-23.62-3.51C1328,706.33,1353.67,710.14,1349.8,720Z"/><path class="cls-32" d="M1250.63,723.42c3.17,5.89,24.82-.37,23-6.31C1270.67,707.25,1245.61,714.1,1250.63,723.42Z"/><g class="cls-26"><path class="cls-27" d="M1221.5,787.81A32.91,32.91,0,1,0,1256.39,757,32.92,32.92,0,0,0,1221.5,787.81Z"/></g><path class="cls-32" d="M1271.07,762.49c.17,5.94,3.11,10.66,6.56,10.56s6.12-5,5.95-10.92-3.12-10.66-6.57-10.56S1270.89,756.56,1271.07,762.49Z"/><path class="cls-32" d="M1329.24,760.8c.17,5.94,3.11,10.66,6.56,10.56s6.12-5,6-10.92-3.12-10.66-6.57-10.56S1329.06,754.87,1329.24,760.8Z"/><path class="cls-42" d="M1194.6,744.62a1.83,1.83,0,0,1-.69-3.53c.55-.22,55.3-23.35,73-87.7a1.83,1.83,0,1,1,3.52,1A141.87,141.87,0,0,1,1226,724.48c-16.29,14-30.14,19.76-30.73,20A1.85,1.85,0,0,1,1194.6,744.62Z"/><path class="cls-42" d="M1245.28,643.39S1181.9,659,1182.2,710.23c0,0,23.89-9.14,37.33-22.62,0,0-16.14,36.79-52.2,48,0,0,55.06-.4,76.79-66.75l-30,6.75S1224.59,655.19,1245.28,643.39Z"/><path class="cls-41" d="M1199.07,800.32c1.48-5.64,2.37-11.06,1.48-16.31s-3.35-10.12-6.31-15.17l1.38-1.25a23.74,23.74,0,0,1,5.13,33.53Z"/><path class="cls-43" d="M1281,828.85a19.29,19.29,0,0,0,2.27,2.52,26.45,26.45,0,0,0,22.24,6.2,24.34,24.34,0,0,0,9.57-4.08c4.43-3.23,7.61-7.79,8.41-12.73.46-2.84-.24-6.35-3.28-7.48a7.23,7.23,0,0,0-2.22-.32,25.61,25.61,0,0,0-4.12.73,58.56,58.56,0,0,1-22.58.91,21.34,21.34,0,0,0-7.38-.2,6.19,6.19,0,0,0-4.78,3.13C1277.2,821.18,1278.51,825.5,1281,828.85Z"/><path class="cls-6" d="M1283.86,814.4a7.8,7.8,0,0,0,2,5.06,9.29,9.29,0,0,0,5.47,2.23,49.29,49.29,0,0,0,21.6-1.25c1.66-.49,3.42-1.15,4.41-2.55a6.36,6.36,0,0,0,.63-4.93,25.61,25.61,0,0,0-4.12.73,58.56,58.56,0,0,1-22.58.91A21.34,21.34,0,0,0,1283.86,814.4Z"/><path class="cls-41" d="M1283.22,831.37a26.45,26.45,0,0,0,22.24,6.2,24.34,24.34,0,0,0,9.57-4.08c-3-3.49-7.84-5.36-12.54-5.94A29.33,29.33,0,0,0,1283.22,831.37Z"/><path class="cls-44" d="M3183.88,1924.84l74.94,456.83a46.85,46.85,0,0,1-38.61,53.84l-724.56,118.86a46.84,46.84,0,0,1-53.79-38.67l-75-456.83a43.6,43.6,0,0,1,36-50.08l730.92-119.91A43.59,43.59,0,0,1,3183.88,1924.84Z"/><path class="cls-45" d="M2399.07,2075a43.6,43.6,0,0,1,36-50.09s714.75-138.61,698.77-136l-730.92,119.91a43.6,43.6,0,0,0-36,50.08l75,456.83C2445.45,2537.59,2399.07,2075,2399.07,2075Z"/><path class="cls-46" d="M2559.13,2172.54l-47.37,7.77a53.69,53.69,0,0,1-61.69-44.29h0a53.7,53.7,0,0,1,44.3-61.68l47.37-7.77a53.69,53.69,0,0,1,61.68,44.3h0A53.69,53.69,0,0,1,2559.13,2172.54Z"/><path class="cls-6" d="M3104.77,2033.89l-69.38,11.38a29.47,29.47,0,0,1-33.84-24.3h0a29.46,29.46,0,0,1,24.3-33.83l69.38-11.38a29.45,29.45,0,0,1,33.84,24.29h0A29.47,29.47,0,0,1,3104.77,2033.89Z"/><path class="cls-6" d="M2469,2286.56l-5.68,4.72a1.46,1.46,0,0,1-2.18-.17,1.49,1.49,0,0,1,.22-2.19l7.73-6.62a1.64,1.64,0,0,1,2.19.23,1.89,1.89,0,0,1,.38,1.12l6.7,40.86a1.52,1.52,0,0,1-1.27,1.78,1.58,1.58,0,0,1-1.78-1.28Z"/><path class="cls-6" d="M2489.06,2321.51l17.71-22.16a11.71,11.71,0,0,0,2.42-9.14,11.66,11.66,0,0,0-13.31-9.5,11.74,11.74,0,0,0-7.28,4.2l-1.83,2.32a1.55,1.55,0,0,1-2.46-1.88l1.82-2.39a15.12,15.12,0,0,1,9.24-5.36,14.8,14.8,0,0,1,16.87,12.11,14.86,14.86,0,0,1-3,11.59l-15.15,19,21-3.45a1.58,1.58,0,0,1,.51,3.11l-24.78,4.07-.26,0a1.47,1.47,0,0,1-1.22-.26A1.7,1.7,0,0,1,2489.06,2321.51Z"/><path class="cls-6" d="M2547.09,2272l-9.56,13.7a15.13,15.13,0,0,1,14.43,12.78,15.06,15.06,0,0,1-2.7,11.4,15.34,15.34,0,0,1-10,6.21,15.07,15.07,0,0,1-11.34-2.71,1.59,1.59,0,1,1,1.86-2.59,12.09,12.09,0,0,0,9,2,12.26,12.26,0,0,0,7.89-4.81,12.08,12.08,0,0,0,2.11-9,12.08,12.08,0,0,0-13.84-9.93,1.68,1.68,0,0,1-1.37-.43h-.06a1.63,1.63,0,0,1-.38-2.29l9.19-13.19-17,2.79a1.59,1.59,0,0,1-1.85-1.32,1.61,1.61,0,0,1,1.33-1.86l20.78-3.4a1.58,1.58,0,0,1,1.85,1.33,1.29,1.29,0,0,1-.08.73A1.33,1.33,0,0,1,2547.09,2272Z"/><path class="cls-6" d="M2589.77,2298.4l-24.09,3.95h-.06l-.13,0a1.36,1.36,0,0,1-1-.16,1.48,1.48,0,0,1-.55-2.13l20.49-36.25.05-.08a1.49,1.49,0,0,1,2.13-.54,2,2,0,0,1,.63.68c0,.12.1.18.11.24l0,.19,5,30.51,3-.49a1.55,1.55,0,1,1,.5,3.05l-3,.49,1.25,7.63a1.58,1.58,0,0,1-3.11.51Zm-.5-3.05-4.27-26.06-16.77,29.51Z"/><path class="cls-6" d="M2646.3,2294a1.56,1.56,0,0,1-.37-2.23,1.63,1.63,0,0,1,2.29-.37,12.11,12.11,0,0,0,9,2.06,12.11,12.11,0,0,0,9.94-13.84,11.87,11.87,0,0,0-13.78-9.94,11.89,11.89,0,0,0-7.87,4.88,1.56,1.56,0,0,1-2.23.36.94.94,0,0,1-.46-.44v-.06a.24.24,0,0,1-.1-.19,1.24,1.24,0,0,1-.14-.5c0-.06,0-.2,0-.32l-.78-18.28a1.36,1.36,0,0,1,.44-1.25,1.5,1.5,0,0,1,1-.54l20.72-3.4a1.6,1.6,0,0,1,1.85,1.32,1.56,1.56,0,0,1-1.33,1.85l-19.38,3.18.58,13.49a15.09,15.09,0,0,1,7.22-3.28,15.16,15.16,0,0,1,17.47,12.6,15.08,15.08,0,0,1-2.63,11.4,15.61,15.61,0,0,1-10,6.13A15.24,15.24,0,0,1,2646.3,2294Z"/><path class="cls-6" d="M2683.68,2256.69a18.27,18.27,0,0,1,14-12.21,1.56,1.56,0,0,1,1.83,1.2,1.68,1.68,0,0,1-1.25,1.9c-6.19,1.27-9.61,5.1-11.64,10.2a29.26,29.26,0,0,0-1.72,9.42,14.82,14.82,0,1,1-2,10.77,23.22,23.22,0,0,1-.61-2.9C2681.35,2269.15,2681.49,2262.47,2683.68,2256.69Zm2.25,20.52a3,3,0,0,0,.27.8,1,1,0,0,1,0,.46,12,12,0,1,0-.32-1.52Z"/><path class="cls-6" d="M2730.44,2282.5l10-41.72L2719,2244.3a1.55,1.55,0,0,1-.5-3.05l23.52-3.85a1.65,1.65,0,0,1,1-.1,1.76,1.76,0,0,1,1,.82,1.51,1.51,0,0,1,.21.49,1.32,1.32,0,0,1-.12.87l-10.51,43.75a1.6,1.6,0,0,1-1.24,1.18,1.24,1.24,0,0,1-.66,0A1.71,1.71,0,0,1,2730.44,2282.5Z"/><path class="cls-6" d="M2767.45,2233a9.36,9.36,0,0,1,8.21,15.82,14.59,14.59,0,1,1-11,1.8,9.51,9.51,0,0,1-4.92-6.89A9.32,9.32,0,0,1,2767.45,2233Zm6.79,41.44a11.53,11.53,0,1,0-13.24-9.51A11.48,11.48,0,0,0,2774.24,2274.4Zm-4.25-25.93a6.42,6.42,0,0,0,5.2-7.31,6.28,6.28,0,0,0-12.4,2A6.37,6.37,0,0,0,2770,2248.47Z"/><path class="cls-6" d="M2846.51,2220a14.82,14.82,0,0,1,16.75,10.57c.08.12.09.18.18.3.26,1.19.53,2.45.75,3.79a37.27,37.27,0,0,1-1.35,18.43c-2.18,5.77-6.72,10.76-14,12.21h-.07a1.53,1.53,0,0,1-1.83-1.2,1.64,1.64,0,0,1,1.26-1.9c6.12-1.27,9.67-5.11,11.64-10.2a28.35,28.35,0,0,0,1.72-9.42,14.89,14.89,0,1,1-15.07-22.59Zm14,12.71a11.76,11.76,0,1,0-9.74,13.48A11.69,11.69,0,0,0,2860.55,2232.7Z"/><path class="cls-6" d="M2876.2,2238a28.64,28.64,0,0,1,1.7-16.28c2.09-4.38,5.51-7.75,10-8.49s8.83,1.36,12.21,4.85a29.23,29.23,0,0,1,6.88,14.86,28.9,28.9,0,0,1-1.78,16.21c-2.07,4.46-5.5,7.82-10,8.56s-8.84-1.35-12.23-4.9A28.32,28.32,0,0,1,2876.2,2238Zm3.11-.52a25.57,25.57,0,0,0,6,13.18c2.84,3,6.21,4.46,9.39,3.94s5.85-3,7.64-6.73a27.18,27.18,0,0,0-4.52-27.59c-2.93-3.1-6.21-4.46-9.39-3.94s-5.93,2.87-7.64,6.73A25.52,25.52,0,0,0,2879.31,2237.45Z"/><path class="cls-6" d="M2924.67,2211.8l-5.68,4.72a1.55,1.55,0,0,1-.73.38,1.59,1.59,0,0,1-1.46-.54,1.5,1.5,0,0,1,.23-2.2l7.72-6.61a1.64,1.64,0,0,1,2.2.23,1.81,1.81,0,0,1,.37,1.11l6.71,40.87a1.53,1.53,0,0,1-1.27,1.77,1.57,1.57,0,0,1-1.78-1.27Z"/><path class="cls-6" d="M2944.75,2246.76l17.7-22.16a11.69,11.69,0,0,0,2.42-9.14,11.62,11.62,0,0,0-13.3-9.5,11.7,11.7,0,0,0-7.28,4.19l-1.84,2.33a1.55,1.55,0,0,1-2.46-1.88l1.83-2.39a15.14,15.14,0,0,1,9.23-5.37,14.8,14.8,0,0,1,16.87,12.12,14.78,14.78,0,0,1-3,11.58l-15.16,19,21-3.45a1.58,1.58,0,0,1,1.78,1.34,1.55,1.55,0,0,1-1.27,1.77l-24.79,4.07-.25,0a1.46,1.46,0,0,1-1.22-.26A1.68,1.68,0,0,1,2944.75,2246.76Z"/><path class="cls-6" d="M3040.88,2191l-9.56,13.7a15.13,15.13,0,0,1,14.43,12.78,15.06,15.06,0,0,1-2.7,11.4,15.31,15.31,0,0,1-10,6.21,15,15,0,0,1-11.34-2.71,1.59,1.59,0,1,1,1.86-2.59,12.08,12.08,0,0,0,19-11.79,12.08,12.08,0,0,0-13.84-9.93,1.69,1.69,0,0,1-1.37-.43h-.06a1.64,1.64,0,0,1-.38-2.29l9.19-13.19-17,2.79a1.61,1.61,0,1,1-.52-3.17l20.78-3.41a1.59,1.59,0,0,1,1.85,1.32,1.31,1.31,0,0,1-.08.74A1.33,1.33,0,0,1,3040.88,2191Z"/><path class="cls-6" d="M3083.56,2217.39l-24.09,4h-.06l-.13,0a1.32,1.32,0,0,1-1-.16,1.49,1.49,0,0,1-.55-2.13l20.49-36.25.05-.08a1.49,1.49,0,0,1,2.13-.54,2,2,0,0,1,.63.68c0,.13.1.18.11.24l0,.19,5,30.51,3-.49a1.55,1.55,0,1,1,.5,3l-3,.49,1.25,7.63a1.58,1.58,0,0,1-3.11.51Zm-.5-3-4.28-26.06L3062,2217.79Z"/><path class="cls-6" d="M3102,2219.26a1.55,1.55,0,0,1-.36-2.22,1.62,1.62,0,0,1,2.28-.38,12.09,12.09,0,0,0,9,2.06,12.09,12.09,0,0,0,9.93-13.83,12,12,0,0,0-21.65-5.07,1.55,1.55,0,0,1-2.22.37,1.08,1.08,0,0,1-.47-.45v-.06a.24.24,0,0,1-.09-.18,1.18,1.18,0,0,1-.15-.5,2.93,2.93,0,0,0,0-.33l-.78-18.28a1.38,1.38,0,0,1,.45-1.25,1.45,1.45,0,0,1,.95-.54l20.72-3.4a1.59,1.59,0,0,1,1.85,1.33,1.56,1.56,0,0,1-1.32,1.85l-19.39,3.18.58,13.48a15.22,15.22,0,0,1,7.23-3.28,15.17,15.17,0,0,1,17.47,12.6,15.16,15.16,0,0,1-2.63,11.4,15.7,15.7,0,0,1-10,6.14A15.31,15.31,0,0,1,3102,2219.26Z"/><path class="cls-6" d="M3139.36,2181.93a18.3,18.3,0,0,1,14-12.21,1.57,1.57,0,0,1,1.83,1.2,1.68,1.68,0,0,1-1.26,1.9c-6.18,1.28-9.6,5.1-11.64,10.2a29.59,29.59,0,0,0-1.72,9.42,14.83,14.83,0,1,1-2,10.77,21.55,21.55,0,0,1-.61-2.9C3137,2194.39,3137.18,2187.71,3139.36,2181.93Zm2.26,20.52a3.27,3.27,0,0,0,.26.8,1,1,0,0,1,0,.46,12,12,0,1,0-.31-1.52Z"/><rect class="cls-47" x="2492.67" y="2369.97" width="393.15" height="19.32" transform="translate(-349.77 466.76) rotate(-9.32)"/><rect class="cls-47" x="2500.37" y="2421.6" width="278.33" height="19.32" transform="translate(-358.78 459.38) rotate(-9.32)"/><rect class="cls-6" x="2776.88" y="2012.03" width="196.08" height="19.32" transform="translate(-289.36 492.07) rotate(-9.32)"/><path class="cls-48" d="M707.06,1496c-2.87-57.65-9.91-200.85-9.92-221.93,0-26.5,32.6-25.54,32.6-25.54l53,258.2-51.16,9.71a21.1,21.1,0,0,1-16.68-4.73A21.91,21.91,0,0,1,707.06,1496Z"/><path class="cls-49" d="M1069.86,1472.48a25.32,25.32,0,0,0,20.68-29.24L1054.13,1231a22.3,22.3,0,0,0-24.64-18.38l-310.42,37.11a16.46,16.46,0,0,0-14.31,18.83L737,1479.63c1.32,8.63,4.84,33.39,13.45,31.91Z"/><path class="cls-50" d="M1087.1,1451.62a7.34,7.34,0,0,0,5.82-9.46c-8.9-28.31-38.15-125.91-46-209.4a6.81,6.81,0,0,0-7.56-6.14l-311.93,36.6a7.82,7.82,0,0,0-6.87,8.64c3.89,35,20.45,179.11,34.51,229.11a6.2,6.2,0,0,0,7,4.43Z"/><path class="cls-50" d="M1078.77,1449.54a7.08,7.08,0,0,0,5.6-9.11c-8.56-27.25-36.72-121.16-44.23-201.52a6.54,6.54,0,0,0-7.28-5.9l-300.18,35.21a7.54,7.54,0,0,0-6.61,8.32c3.74,33.69,19.68,172.37,33.21,220.49a6,6,0,0,0,6.73,4.26Z"/><g class="cls-51"><path class="cls-6" d="M870,1309.17l3.68,21.44a6,6,0,0,1-5,6.89l-22,3.43a6,6,0,0,1-6.78-4.88L836,1313.51a6,6,0,0,1,5.25-6.93l22.23-2.33A6,6,0,0,1,870,1309.17Z"/></g><g class="cls-51"><path class="cls-6" d="M951.26,1325l-22,3.43a6,6,0,0,1-6.78-4.87l-3.29-19.18a6,6,0,0,1,5.2-6.91l22.21-2.52a6,6,0,0,1,6.53,4.91l3.13,18.26A6,6,0,0,1,951.26,1325Z"/></g><g class="cls-51"><path class="cls-6" d="M946.28,1423.69l21-3.35a6.49,6.49,0,0,1,7.42,5.31l3.37,19.6a6.5,6.5,0,0,1-5.17,7.47l-20.85,4a6.5,6.5,0,0,1-7.63-5.28l-3.47-20.27A6.48,6.48,0,0,1,946.28,1423.69Z"/></g><g class="cls-51"><path class="cls-6" d="M985.38,1443.66l-3.28-19.16a6.37,6.37,0,0,1,5.28-7.38l21.18-3.38a6.39,6.39,0,0,1,7.3,5.22l3.16,18.47a6.38,6.38,0,0,1-5.07,7.35l-21.07,4.07A6.38,6.38,0,0,1,985.38,1443.66Z"/></g><g class="cls-51"><path class="cls-6" d="M970.54,1357.16l-2.69-15.73a6.86,6.86,0,0,1,5.76-8l20.26-3a6.87,6.87,0,0,1,7.77,5.63l2.58,15a6.86,6.86,0,0,1-5.53,7.91l-20.14,3.69A6.87,6.87,0,0,1,970.54,1357.16Z"/></g><g class="cls-51"><path class="cls-6" d="M978.38,1402.87l-4.12-24.06a6.38,6.38,0,0,1,5.14-7.35l20.61-3.78a6.87,6.87,0,0,1,8,5.59l4.16,24.26a6.39,6.39,0,0,1-5.34,7.39l-21.22,3.18A6.39,6.39,0,0,1,978.38,1402.87Z"/></g><g class="cls-51"><path class="cls-6" d="M910,1331.37l-22,3.43a5.94,5.94,0,0,1-6.77-4.88L877.61,1309a6,6,0,0,1,5.2-6.91l22.2-2.52a6,6,0,0,1,6.54,4.91l3.42,20A6,6,0,0,1,910,1331.37Z"/></g><g class="cls-51"><path class="cls-6" d="M937.09,1409l-3.86-22.5a6.49,6.49,0,0,1,5.23-7.48l20.88-3.83a6.49,6.49,0,0,1,7.57,5.28l4,23.19a6.48,6.48,0,0,1-5.43,7.51l-21,3.15A6.5,6.5,0,0,1,937.09,1409Z"/></g><g class="cls-51"><path class="cls-6" d="M889.06,1346l24.11-3.57a4.92,4.92,0,0,1,5.57,4l3.71,21.63a4.93,4.93,0,0,1-4,5.68l-24,4.39a4.92,4.92,0,0,1-5.74-4l-3.85-22.46A4.91,4.91,0,0,1,889.06,1346Z"/></g><g class="cls-51"><path class="cls-6" d="M877.66,1353.78l3.54,20.61a6.19,6.19,0,0,1-5,7.13l-21.47,3.94a6.19,6.19,0,0,1-7.22-5l-3.66-21.35a6.19,6.19,0,0,1,5.19-7.17l21.61-3.19A6.19,6.19,0,0,1,877.66,1353.78Z"/></g><g class="cls-51"><path class="cls-6" d="M959.54,1366.24l-24,4.4a4.92,4.92,0,0,1-5.74-4l-3.61-21.05a4.92,4.92,0,0,1,4.13-5.7l24.11-3.57a4.92,4.92,0,0,1,5.57,4l3.47,20.22A4.92,4.92,0,0,1,959.54,1366.24Z"/></g><g class="cls-51"><path class="cls-6" d="M897.41,1386.49l20.88-3.83a6.49,6.49,0,0,1,7.57,5.29l3.75,21.84a6.5,6.5,0,0,1-5.44,7.52l-21,3.15a6.5,6.5,0,0,1-7.36-5.32L892.18,1394A6.5,6.5,0,0,1,897.41,1386.49Z"/></g><g class="cls-51"><path class="cls-6" d="M855.64,1394.15l22.34-4.09a5.75,5.75,0,0,1,6.71,4.68l3.77,22a5.76,5.76,0,0,1-4.82,6.66l-22.46,3.36a5.74,5.74,0,0,1-6.52-4.71L851,1400.78A5.76,5.76,0,0,1,855.64,1394.15Z"/></g><g class="cls-51"><path class="cls-6" d="M989.37,1318.73l-16.73,2.61a8.26,8.26,0,0,1-9.4-6.76l-2.36-13.78a7.34,7.34,0,0,1,6.41-8.54l18.75-2.12a8.07,8.07,0,0,1,8.86,6.66l2,11.5A9,9,0,0,1,989.37,1318.73Z"/></g><g class="cls-51"><path class="cls-6" d="M1023.39,1418.41a6.86,6.86,0,0,1,5.68-7.94l7.29-1.17c5.54-.88,10.62,2.1,11.41,6.71l2.28,13.31c.79,4.57-2.94,9-8.4,10.1l-7.79,1.51a6.38,6.38,0,0,1-7.5-5.19Z"/></g><g class="cls-51"><path class="cls-6" d="M788.07,1449l14.33-2.28a6.49,6.49,0,0,1,7.43,5.31l4.28,25a6.49,6.49,0,0,1-5.17,7.48l-14.2,2.75c-5.66,1.09-11-1.91-11.8-6.64l-3.67-21.4C778.46,1454.43,782.42,1449.86,788.07,1449Z"/></g><g class="cls-51"><path class="cls-6" d="M1034.49,1400.78l-7.12,1.06a6.86,6.86,0,0,1-7.79-5.63l-4.19-24.45a6.87,6.87,0,0,1,5.53-7.92l7.13-1.31c5.62-1,10.88,2,11.69,6.66l3.67,21.4C1044.22,1395.32,1040.19,1399.92,1034.49,1400.78Z"/></g><g class="cls-51"><path class="cls-6" d="M1026.86,1353.89l-8.93,1.64a5.19,5.19,0,0,1-6-4.23l-3-17.66a5.19,5.19,0,0,1,4.36-6l9-1.34c5.49-.81,10.49,2.17,11.27,6.73l1.85,10.76C1036.17,1348.37,1032.37,1352.88,1026.86,1353.89Z"/></g><g class="cls-51"><path class="cls-6" d="M765.68,1315.09l14.47-1.64a6.18,6.18,0,0,1,6.79,5.11l4.23,24.64a6.18,6.18,0,0,1-5.15,7.16l-14.8,2.31c-5.53.86-10.58-2.13-11.36-6.71l-3.54-20.62C755.48,1320.47,759.78,1315.76,765.68,1315.09Z"/></g><g class="cls-51"><path class="cls-6" d="M905.07,1430.27l21-3.35a6.51,6.51,0,0,1,7.43,5.31l3.59,20.94a6.5,6.5,0,0,1-5.17,7.47l-20.85,4a6.5,6.5,0,0,1-7.63-5.27l-3.7-21.62A6.49,6.49,0,0,1,905.07,1430.27Z"/></g><g class="cls-51"><path class="cls-6" d="M773.49,1363.08l14.58-2.16a6.2,6.2,0,0,1,7,5.08l4,23.45a6.19,6.19,0,0,1-5,7.13l-14.57,2.67c-5.63,1-10.89-2-11.69-6.65l-3.32-19.33C763.73,1368.54,767.77,1363.93,773.49,1363.08Z"/></g><g class="cls-51"><path class="cls-6" d="M780.74,1407.89l15.15-2.78a5.75,5.75,0,0,1,6.7,4.68l3.31,19.31a5.74,5.74,0,0,1-4.81,6.66l-15.3,2.29c-5.5.83-10.51-2.16-11.29-6.72L772.22,1418C771.43,1413.41,775.22,1408.9,780.74,1407.89Z"/></g><g class="cls-51"><path class="cls-6" d="M843.64,1402.27l3.54,20.65a5.75,5.75,0,0,1-4.81,6.65l-22.47,3.37a5.76,5.76,0,0,1-6.52-4.71L810,1408.31a5.76,5.76,0,0,1,4.63-6.63l22.35-4.1A5.76,5.76,0,0,1,843.64,1402.27Z"/></g><g class="cls-51"><path class="cls-6" d="M822.66,1443.43l21-3.35a6.5,6.5,0,0,1,7.43,5.32l4.05,23.61a6.5,6.5,0,0,1-5.17,7.48l-20.84,4a6.49,6.49,0,0,1-7.63-5.28l-4.17-24.3A6.5,6.5,0,0,1,822.66,1443.43Z"/></g><g class="cls-51"><path class="cls-6" d="M1019.68,1314l-8.78,1.36a5.19,5.19,0,0,1-5.91-4.25l-3-17.28a5.2,5.2,0,0,1,4.54-6l9.35-1c5.35-.61,10.09,2.35,10.85,6.77l1.77,10.31C1029.34,1308.55,1025.35,1313.14,1019.68,1314Z"/></g><g class="cls-51"><path class="cls-6" d="M863.87,1436.85l20.6-3.29a6.86,6.86,0,0,1,7.84,5.61l3.76,21.92a6.51,6.51,0,0,1-5.17,7.48l-20.84,4a6.5,6.5,0,0,1-7.64-5.28l-3.93-23A6.49,6.49,0,0,1,863.87,1436.85Z"/></g><g class="cls-51"><path class="cls-6" d="M828.47,1313.85l3.94,22.94a6.2,6.2,0,0,1-5.15,7.16l-21.58,3.35a6.18,6.18,0,0,1-7-5.06l-4.09-23.83a6.19,6.19,0,0,1,5.41-7.2l21.73-2.46A6.18,6.18,0,0,1,828.47,1313.85Z"/></g><g class="cls-51"><path class="cls-6" d="M836.37,1359.89l3.78,22a6.19,6.19,0,0,1-5,7.13L813.69,1393a6.2,6.2,0,0,1-7.22-5l-3.9-22.77a6.19,6.19,0,0,1,5.19-7.17l21.61-3.19A6.18,6.18,0,0,1,836.37,1359.89Z"/></g><path class="cls-6" d="M1015.2,1267.8l.1,7.44a4.83,4.83,0,0,1-4,4.83l-.34.06a4.84,4.84,0,0,1-5.59-4l-1.28-7.44a4.84,4.84,0,0,1,4.59-5.65l1.52-.06A4.83,4.83,0,0,1,1015.2,1267.8Z"/><path class="cls-6" d="M981.11,1271l.09,7.44a4.83,4.83,0,0,1-4,4.83l-.34.06a4.84,4.84,0,0,1-5.59-4l-1.27-7.44a4.83,4.83,0,0,1,4.58-5.65l1.52-.06A4.84,4.84,0,0,1,981.11,1271Z"/><path class="cls-6" d="M939.58,1277.8l.1,7.43a4.86,4.86,0,0,1-4,4.84l-.35,0a4.82,4.82,0,0,1-5.58-3.95l-1.28-7.43a4.85,4.85,0,0,1,4.58-5.66l1.52,0A4.83,4.83,0,0,1,939.58,1277.8Z"/><path class="cls-6" d="M898.77,1282.05l.1,7.44a4.84,4.84,0,0,1-4,4.83l-.35.06a4.84,4.84,0,0,1-5.58-4l-1.28-7.44a4.84,4.84,0,0,1,4.58-5.65l1.52-.06A4.84,4.84,0,0,1,898.77,1282.05Z"/><path class="cls-6" d="M856.34,1283l.1,7.43a4.84,4.84,0,0,1-4,4.83l-.35.06a4.85,4.85,0,0,1-5.59-4l-1.27-7.43a4.85,4.85,0,0,1,4.58-5.66l1.52-.06A4.85,4.85,0,0,1,856.34,1283Z"/><path class="cls-6" d="M812.37,1290.54l.1,7.43a4.86,4.86,0,0,1-4,4.84l-.35,0a4.82,4.82,0,0,1-5.58-3.95l-1.28-7.43a4.85,4.85,0,0,1,4.58-5.66l1.52-.06A4.85,4.85,0,0,1,812.37,1290.54Z"/><path class="cls-6" d="M775,1295.33l.1,7.44a4.83,4.83,0,0,1-4,4.83l-.34.06a4.84,4.84,0,0,1-5.59-4l-1.28-7.44a4.84,4.84,0,0,1,4.58-5.65l1.53-.06A4.83,4.83,0,0,1,775,1295.33Z"/><path class="cls-52" d="M923.31,1316.36a1.79,1.79,0,0,1,2.75-1.74c3.83,2.18,5.85,6.16,8.12,9.82,2.64,4.25,5.21,8.55,7.59,13a129.54,129.54,0,0,1,6.66,14.35,109,109,0,0,1,5.62-18.84c.66-1.62,3.3-1.13,3.07.72-1.35,10.72-3.4,21.34-4.58,32.09-.42,3.79-5.54,3.67-6.43.22a118.4,118.4,0,0,0-10.78-26.79c-2.2-4.07-4.58-8-7-12C926.16,1323.7,923.69,1320.53,923.31,1316.36Z"/><path class="cls-52" d="M919.75,1324.7a2.35,2.35,0,0,1,2,4.25c-16.87,10.65-15.88,33.4-.8,45,7,5.37,15.71,9,23.92,12.09s17.4,5,26.19,2.81c20.37-5.17,20-26.65,11.41-42a58.74,58.74,0,0,0-39.3-28.34c-2.13-.44-1.84-3.84.34-3.41a66.31,66.31,0,0,1,39.17,23.94c9,11.4,15.86,28.34,8.44,42.24-7.68,14.38-25.89,17.35-40.45,14-16-3.67-36.49-11.86-44.91-26.94C897,1352.58,901.67,1331,919.75,1324.7Z"/><circle class="cls-53" cx="1003.85" cy="1248.86" r="8.47" transform="translate(-492.3 1822.35) rotate(-72.18)"/><path class="cls-53" d="M926.74,1259.75a8.47,8.47,0,1,0,7.13-9.63A8.49,8.49,0,0,0,926.74,1259.75Z"/><path class="cls-53" d="M857.13,1267.87a8.47,8.47,0,1,0,7.12-9.63A8.48,8.48,0,0,0,857.13,1267.87Z"/><circle class="cls-53" cx="796.39" cy="1273.67" r="8.47" transform="translate(-33.96 21.87) rotate(-1.54)"/><path class="cls-48" d="M781.33,1216.58c14.56,1,18.78,38.25,19.9,53.48a6.86,6.86,0,0,1-5.83,7.29,3.54,3.54,0,0,1-2.76-.78,3.5,3.5,0,0,1-1.27-2.56c-.49-11.56-2.8-44.72-13.44-44.92,0,0-7.64-.2-6.74,14.4l-8.05,1.21S763,1215.37,781.33,1216.58Z"/><path class="cls-48" d="M850.25,1208.21c14.55,1,18.78,38.26,19.9,53.49a6.87,6.87,0,0,1-5.83,7.29,3.5,3.5,0,0,1-4-3.33c-.49-11.56-2.81-44.74-13.45-44.94,0,0-7.59.08-6.73,14.38l-8.06,1.2S832,1207,850.25,1208.21Z"/><path class="cls-48" d="M919.16,1199.85c14.56,1,18.79,38.27,19.91,53.49a6.87,6.87,0,0,1-5.83,7.3,3.5,3.5,0,0,1-4-3.33c-.49-11.56-2.81-44.76-13.45-45,0,0-7.56.28-6.69,14.64l-8.1.93S900.86,1198.64,919.16,1199.85Z"/><path class="cls-48" d="M988.13,1191.78c14.55,1,18.78,38.29,19.9,53.52a6.87,6.87,0,0,1-5.82,7.31,3.5,3.5,0,0,1-4-3.32c-.49-11.56-2.82-44.8-13.46-45,0,0-7.6,0-6.74,14.32l-8.06,1.21S969.83,1190.57,988.13,1191.78Z"/><circle class="cls-11" cx="2997.46" cy="1425.23" r="258.32"/><rect class="cls-54" x="2835.66" y="1315.38" width="339.93" height="194.54"/><rect class="cls-55" x="2840.98" y="1315.38" width="55.34" height="12.22"/><rect class="cls-56" x="2846.85" y="1327.59" width="43.58" height="12.22"/><rect class="cls-57" x="3114.94" y="1315.38" width="55.34" height="12.22"/><rect class="cls-57" x="3120.81" y="1327.59" width="43.58" height="12.22"/><rect class="cls-55" x="3023.61" y="1315.38" width="55.34" height="12.22"/><rect class="cls-56" x="3029.49" y="1327.59" width="43.58" height="12.22"/><rect class="cls-55" x="2932.3" y="1315.38" width="55.34" height="12.22"/><rect class="cls-56" x="2938.18" y="1327.59" width="43.58" height="12.22"/><rect class="cls-58" x="2840.98" y="1497.7" width="55.34" height="12.22"/><rect class="cls-58" x="2846.85" y="1485.49" width="43.58" height="12.22"/><rect class="cls-58" x="3114.94" y="1497.7" width="55.34" height="12.22"/><rect class="cls-58" x="3120.81" y="1485.49" width="43.58" height="12.22"/><rect class="cls-58" x="3023.61" y="1497.7" width="55.34" height="12.22"/><rect class="cls-58" x="3029.49" y="1485.49" width="43.58" height="12.22"/><rect class="cls-58" x="2932.3" y="1497.7" width="55.34" height="12.22"/><rect class="cls-58" x="2938.18" y="1485.49" width="43.58" height="12.22"/><polygon class="cls-57" points="2889.29 1485.49 2848 1485.49 2854.45 1339.81 2882.84 1339.81 2889.29 1485.49"/><polygon class="cls-57" points="2851.35 1335.89 2851.35 1323.34 2843.91 1323.34 2843.91 1315.38 2840.98 1315.38 2840.98 1327.6 2846.86 1327.6 2846.86 1339.81 2854.45 1339.81 2848 1485.49 2852.81 1485.49 2860.97 1335.89 2851.35 1335.89"/><polygon class="cls-57" points="2980.61 1485.49 2939.32 1485.49 2945.78 1339.81 2974.16 1339.81 2980.61 1485.49"/><polygon class="cls-57" points="3073.07 1485.49 3031.78 1485.49 3038.24 1339.81 3066.62 1339.81 3073.07 1485.49"/><polygon class="cls-57" points="3163.25 1485.49 3121.96 1485.49 3128.41 1339.81 3156.8 1339.81 3163.25 1485.49"/><polygon class="cls-56" points="2823.34 1292.76 2823.34 1306.92 2829.3 1306.92 2829.3 1315.38 3181.95 1315.38 3181.95 1306.92 3187.9 1306.92 3187.9 1292.76 2823.34 1292.76"/><rect class="cls-6" x="3187.23" y="1305.51" width="0.67" height="1.4"/><polygon class="cls-55" points="2834.58 1311.38 2834.58 1305.51 2828.63 1305.51 2828.63 1295.69 3187.9 1295.69 3187.9 1292.76 2823.34 1292.76 2823.34 1306.92 2829.3 1306.92 2829.3 1315.38 3181.95 1315.38 3181.95 1311.38 2834.58 1311.38"/><rect class="cls-56" x="2821.63" y="1509.92" width="364.56" height="14.16"/><rect class="cls-55" x="2809.16" y="1524.08" width="389.49" height="14.16"/><rect class="cls-54" x="2792.36" y="1538.23" width="423.1" height="14.16"/><polygon class="cls-56" points="2841.93 1292.65 3005.62 1232.01 3169.32 1292.65 2841.93 1292.65"/><polygon class="cls-59" points="3005.62 1232.01 2841.93 1292.65 2851.39 1292.65 3010.36 1233.76 3005.62 1232.01"/><polygon class="cls-55" points="2895.96 1282.64 3005.62 1242.02 3115.29 1282.64 2895.96 1282.64"/><path class="cls-60" d="M2984,1272.5a4.49,4.49,0,0,1-.71,2.61,4.93,4.93,0,0,1-2,1.63,10,10,0,0,1-3,.84,27.09,27.09,0,0,1-3.73.24c-1.07,0-2,0-2.88-.1s-1.77-.14-2.75-.24v-17.11q1.13-.15,2.46-.24c.88-.07,1.92-.1,3.11-.1a20.82,20.82,0,0,1,3.15.23,9.24,9.24,0,0,1,2.57.76,4.55,4.55,0,0,1,1.73,1.44,3.84,3.84,0,0,1,.64,2.26,3.55,3.55,0,0,1-.63,2,4.19,4.19,0,0,1-1.57,1.42,7.73,7.73,0,0,1,1.32.57,4.57,4.57,0,0,1,1.13.86,3.86,3.86,0,0,1,.78,1.23A4.26,4.26,0,0,1,2984,1272.5Zm-9.87-5.6h.83a4,4,0,0,0,2-.42,1.55,1.55,0,0,0,.71-1.45,1.39,1.39,0,0,0-.25-.83,1.74,1.74,0,0,0-.64-.53,2.62,2.62,0,0,0-.86-.26,5.92,5.92,0,0,0-.92-.08h-.43a2.63,2.63,0,0,0-.43,0Zm0,3.4v4l.52,0h.82a6.43,6.43,0,0,0,1.14-.1,3.9,3.9,0,0,0,1.05-.32,1.91,1.91,0,0,0,.75-.62,1.66,1.66,0,0,0,.29-1,1.63,1.63,0,0,0-.94-1.6,5.73,5.73,0,0,0-2.41-.44Z"/><path class="cls-60" d="M2990.2,1277.48c-.45.07-.87.11-1.24.15s-.74,0-1.1,0-.77,0-1.23-.06-1-.1-1.55-.18l.1-1.72,6.53-15.37,1.44-.12c.44,0,.89,0,1.35,0s.78,0,1.23,0l1.52.12,6.66,15.4-.11,1.72a24.25,24.25,0,0,1-3,.21c-.4,0-.79,0-1.19,0s-.82-.08-1.27-.15l-1.13-3.33a14.38,14.38,0,0,1-1.58.29,10.9,10.9,0,0,1-1.5.1,11,11,0,0,1-1.39-.09,14.31,14.31,0,0,1-1.48-.25Zm4.15-12.64-2,6.16c.34.08.66.14.95.19a6.86,6.86,0,0,0,.92.07,8,8,0,0,0,1-.06c.33,0,.67-.1,1-.18Z"/><path class="cls-60" d="M3005.73,1260.37c.43-.07.83-.11,1.18-.15s.7,0,1,0a10.6,10.6,0,0,1,1.11.06c.39,0,.72.08,1,.13l6.88,9.38v-9.38c.51-.07,1-.11,1.39-.15s.79,0,1.13,0,.69,0,1.06,0,.77.08,1.19.15l0,17.09c-.2,0-.49.09-.86.14a9.33,9.33,0,0,1-1.22.07,9.05,9.05,0,0,1-1.33-.08l-.86-.13-6.9-9.34v9.34a15,15,0,0,1-2.37.21,15.6,15.6,0,0,1-2.4-.21Z"/><path class="cls-60" d="M3025.25,1260.37c.54-.07,1-.11,1.46-.15s.82,0,1.15,0,.76,0,1.2,0,.92.08,1.44.15v17.09a20.44,20.44,0,0,1-2.61.21,20.06,20.06,0,0,1-2.64-.21Zm11.44,8.26,5.65,7.11-.11,1.72a13,13,0,0,1-1.35.15c-.56,0-1.07.06-1.52.06s-1.13,0-1.66-.06-1-.09-1.36-.15l-5.43-8.62.11-1.72,4.9-6.75c.59-.08,1.11-.13,1.54-.16s.88,0,1.34,0h.74c.27,0,.54,0,.81,0s1.26-1.62,1.51-1.59a15.47,15.47,0,0,1-.1,1.72Z"/><path class="cls-6" d="M2984.11,1270.78a4.42,4.42,0,0,1-.71,2.61,4.83,4.83,0,0,1-2,1.63,10,10,0,0,1-3,.84,27,27,0,0,1-3.73.24c-1.07,0-2,0-2.87-.1s-1.77-.14-2.76-.24v-17.11q1.13-.15,2.46-.24c.89-.07,1.92-.1,3.11-.1a20.86,20.86,0,0,1,3.16.23,9.17,9.17,0,0,1,2.56.76,4.48,4.48,0,0,1,1.73,1.44,3.77,3.77,0,0,1,.64,2.26,3.61,3.61,0,0,1-.62,2,4.35,4.35,0,0,1-1.57,1.42,8.48,8.48,0,0,1,1.32.57,4.51,4.51,0,0,1,1.12.86,3.88,3.88,0,0,1,.79,1.23A4.46,4.46,0,0,1,2984.11,1270.78Zm-9.86-5.6h.83a3.91,3.91,0,0,0,2-.42,1.55,1.55,0,0,0,.71-1.45,1.32,1.32,0,0,0-.25-.83,1.74,1.74,0,0,0-.64-.53,2.55,2.55,0,0,0-.86-.26,5.82,5.82,0,0,0-.92-.08h-.42a2.54,2.54,0,0,0-.43,0Zm0,3.4v4l.51,0h.82a6.43,6.43,0,0,0,1.14-.1,3.79,3.79,0,0,0,1.05-.32,2,2,0,0,0,.76-.62,1.73,1.73,0,0,0,.28-1,1.62,1.62,0,0,0-.93-1.6,5.78,5.78,0,0,0-2.42-.44Z"/><path class="cls-6" d="M2990.3,1275.76c-.45.07-.86.11-1.24.15s-.74,0-1.1,0-.76,0-1.23-.06-1-.1-1.55-.18l6.64-17.09,1.43-.12c.45,0,.9,0,1.35,0s.79,0,1.23,0l1.53.12,6.55,17.12a24.54,24.54,0,0,1-3,.21c-.39,0-.79,0-1.18,0s-.82-.08-1.28-.15l-1.12-3.33a14.54,14.54,0,0,1-1.59.29,10.76,10.76,0,0,1-1.49.1,11.21,11.21,0,0,1-1.4-.09,14.31,14.31,0,0,1-1.48-.25Zm4.15-12.64-2,6.15c.33.08.65.15,1,.2a6.71,6.71,0,0,0,.91.07,8.26,8.26,0,0,0,1-.06q.48-.06,1-.18Z"/><path class="cls-6" d="M3005.83,1258.65c.44-.07.83-.12,1.19-.15s.7,0,1,0,.73,0,1.11.06.72.09,1,.14L3017,1268v-9.38c.52-.07,1-.12,1.39-.15s.79,0,1.13,0,.69,0,1.07,0,.77.08,1.18.15l0,17.09a8.55,8.55,0,0,1-.86.14,10.88,10.88,0,0,1-2.55,0l-.85-.13-6.91-9.34v9.34a15,15,0,0,1-2.37.21,15.6,15.6,0,0,1-2.4-.21Z"/><path class="cls-6" d="M3025.36,1258.65c.53-.07,1-.12,1.45-.15s.82,0,1.16,0,.75,0,1.2,0,.92.08,1.43.15v17.09a20.17,20.17,0,0,1-2.61.21,19.8,19.8,0,0,1-2.63-.21Zm11.44,8.26,5.54,8.83q-.51.09-1.35.15c-.57,0-1.07.06-1.53.06s-1.12,0-1.66-.06-1-.09-1.36-.15l-5.42-8.62,5-8.47c.6-.08,1.11-.14,1.55-.16s.87,0,1.33,0l.74,0,.81,0,.77.08.64.06Z"/><polygon class="cls-57" points="2945.24 1335.89 2945.24 1323.34 2937.8 1323.34 2937.8 1315.38 2934.86 1315.38 2934.86 1327.6 2940.74 1327.6 2940.74 1339.81 2948.34 1339.81 2941.89 1485.49 2946.69 1485.49 2954.86 1335.89 2945.24 1335.89"/><polygon class="cls-57" points="3033.9 1333.92 3033.9 1321.38 3026.46 1321.38 3026.46 1313.41 3023.53 1313.41 3023.53 1325.63 3029.4 1325.63 3029.4 1337.85 3037 1337.85 3030.55 1483.52 3035.35 1483.52 3043.52 1333.92 3033.9 1333.92"/><rect class="cls-20" x="3667.68" y="812.5" width="298.15" height="271.75" rx="34.46"/><path class="cls-20" d="M3721.9,1071.88l31.49,62.68a8.24,8.24,0,0,0,14.82-.18l29.33-62.14Z"/><path class="cls-61" d="M3712.14,896.27c.9-26.88,20.36-48,48.07-47.06,27.43.91,45.18,23,44.27,50.14-.89,26.62-20.36,48-48.06,47.07C3729,945.5,3711.24,923.43,3712.14,896.27Zm166-40.95h0a13,13,0,0,1,9.85,21.09l-125.19,160a13.06,13.06,0,0,1-10.72,5h0a13.06,13.06,0,0,1-9.85-21.1l125.19-160A13.07,13.07,0,0,1,3878.11,855.32ZM3776,898.4c.42-12.76-6.27-24.13-17.13-24.5-11.41-.38-17.75,10.29-18.18,23.32-.43,12.77,6.26,24.14,17.13,24.5C3769.19,922.1,3775.54,911.17,3776,898.4Zm49.71,99c.9-26.89,20.36-48,48.06-47.07,27.43.92,45.19,23,44.28,50.15-.89,26.61-20.36,48-48.06,47.06C3842.53,1046.63,3824.78,1024.55,3825.68,997.4Zm63.82,2.12c.43-12.76-6.26-24.13-17.12-24.49-11.41-.38-17.75,10.28-18.18,23.32-.43,12.76,6.26,24.13,17.13,24.49C3882.73,1023.22,3889.08,1012.29,3889.5,999.52Z"/><path class="cls-6" d="M3725.66,896.27c.9-26.88,20.36-48,48.06-47.06,27.43.91,45.18,23,44.28,50.14-.89,26.62-20.36,48-48.06,47.07C3742.51,945.5,3724.75,923.43,3725.66,896.27Zm166-40.95h0a13.05,13.05,0,0,1,9.85,21.09l-125.19,160a13.07,13.07,0,0,1-10.72,5h0a13.06,13.06,0,0,1-9.84-21.1l125.19-160A13.06,13.06,0,0,1,3891.63,855.32ZM3789.48,898.4c.43-12.76-6.26-24.13-17.13-24.5-11.4-.38-17.74,10.29-18.18,23.32-.42,12.77,6.27,24.14,17.13,24.5C3782.71,922.1,3789.06,911.17,3789.48,898.4Zm49.72,99c.89-26.89,20.36-48,48.06-47.07,27.43.92,45.18,23,44.28,50.15-.89,26.61-20.36,48-48.07,47.06C3856,1046.62,3838.29,1024.55,3839.2,997.4Zm63.82,2.12c.43-12.76-6.26-24.13-17.13-24.49-11.4-.38-17.74,10.28-18.18,23.32-.42,12.76,6.27,24.13,17.13,24.49C3896.25,1023.22,3902.59,1012.29,3903,999.52Z"/></g></g></svg>