<svg xmlns="http://www.w3.org/2000/svg" xmlns:xlink="http://www.w3.org/1999/xlink" viewBox="0 0 4680 3120"><defs><style>.cls-1{fill:#6d6dd1;}.cls-2{fill:#dddcf9;}.cls-3{fill:#a8a8e2;}.cls-4{fill:#53eabf;}.cls-5{fill:#ffd261;}.cls-6{fill:#9a6ca8;}.cls-7{fill:#ff3154;}.cls-8{fill:#1f52ad;}.cls-9{fill:#5b99f4;}.cls-10{fill:#1376d8;}.cls-11{fill:#ff8a78;}.cls-12{fill:#fff3b6;}.cls-13{fill:#6a3c7c;}.cls-14{fill:#ffdce4;}.cls-15{fill:#ffb7a9;}.cls-16{fill:#0d3793;}.cls-17{fill:#ff7190;}.cls-18{fill:#fca89d;}.cls-19,.cls-24{fill:#fff;}.cls-19{opacity:0;}.cls-20{fill:#809ddd;}.cls-21{fill:#95b5f9;}.cls-22{clip-path:url(#clip-path);}.cls-23{opacity:0.27;}.cls-25{clip-path:url(#clip-path-2);}.cls-26{clip-path:url(#clip-path-3);}.cls-27{clip-path:url(#clip-path-4);}.cls-28{fill:#3f1d4f;}.cls-29{clip-path:url(#clip-path-5);}.cls-30{fill:#ef567f;}.cls-31{fill:#c62e55;}.cls-32{clip-path:url(#clip-path-6);}.cls-33{opacity:0.32;}.cls-34{fill:#e26149;}.cls-35{clip-path:url(#clip-path-7);}.cls-36{clip-path:url(#clip-path-8);}.cls-37{fill:#ed8a83;}.cls-38{clip-path:url(#clip-path-9);}.cls-39{fill:#763306;}.cls-40{fill:#e0a319;}.cls-41{clip-path:url(#clip-path-10);}.cls-42{opacity:0.52;}.cls-43{clip-path:url(#clip-path-11);}.cls-44{fill:#6464b5;}.cls-45{clip-path:url(#clip-path-12);}.cls-46{clip-path:url(#clip-path-13);}.cls-47{clip-path:url(#clip-path-14);}.cls-48{fill:#035135;}.cls-49{clip-path:url(#clip-path-15);}.cls-50{fill:#1ec18e;}.cls-51{clip-path:url(#clip-path-16);}.cls-52{clip-path:url(#clip-path-17);}.cls-53{clip-path:url(#clip-path-18);}.cls-54{clip-path:url(#clip-path-19);}.cls-55{clip-path:url(#clip-path-20);}.cls-56{opacity:0.24;}.cls-57{fill:#899ece;}.cls-58{clip-path:url(#clip-path-21);}.cls-59{opacity:0.48;}.cls-60{clip-path:url(#clip-path-22);}.cls-61{fill:#eceffc;}.cls-62{clip-path:url(#clip-path-23);}.cls-63{clip-path:url(#clip-path-24);}.cls-64{fill:#db0e3a;}.cls-65{clip-path:url(#clip-path-25);}.cls-66{fill:#05204f;}.cls-67{clip-path:url(#clip-path-26);}.cls-68{clip-path:url(#clip-path-27);}.cls-69{fill:#2b7ad8;}.cls-70{clip-path:url(#clip-path-28);}.cls-71{fill:#065291;}.cls-72{clip-path:url(#clip-path-29);}.cls-73{fill:#fc5144;}.cls-74{clip-path:url(#clip-path-30);}.cls-75{fill:#3062d1;}.cls-76{opacity:0.37;}.cls-77{fill:#ef9337;}.cls-78{opacity:0.41;}.cls-79{clip-path:url(#clip-path-31);}.cls-80{clip-path:url(#clip-path-32);}.cls-81{opacity:0.35;}.cls-82{fill:#ff7895;}.cls-83{clip-path:url(#clip-path-33);}.cls-84{clip-path:url(#clip-path-34);}.cls-85{clip-path:url(#clip-path-35);}.cls-86{fill:#032868;}.cls-87{clip-path:url(#clip-path-36);}.cls-88{fill:#3d2613;}.cls-89{fill:#6b4134;}.cls-90{opacity:0.51;}.cls-91{opacity:0.53;}</style><clipPath id="clip-path"><path class="cls-1" d="M2344.36,462.55V1633.37h-314v-99a143.23,143.23,0,0,0-143.23-143.23h-422A143.23,143.23,0,0,0,1322,1534.36v99H952.28V462.55H2344.36Z"/></clipPath><clipPath id="clip-path-2"><path class="cls-2" d="M2344.36,2620.34h0a127.08,127.08,0,0,0,127.08-127.08V589.63a127.09,127.09,0,0,0-127.08-127.08h0Z"/></clipPath><clipPath id="clip-path-3"><path class="cls-2" d="M952.28,2620.34h0V462.55h0A127.09,127.09,0,0,0,825.2,589.63V2493.26A127.08,127.08,0,0,0,952.28,2620.34Z"/></clipPath><clipPath id="clip-path-4"><path class="cls-13" d="M1670.53,768.62S1708,777,1717.94,819s-6.62,81.09-27.14,112.53-56.26,109.88-33.43,239S1433,1357.17,1433,1357.17s-127.09,32.76-222.41-25.82-83.4-205.53-83.4-205.53,65.53,18.86,84.39-36.74,4.72-104.5,75.47-134.29,125.85-25.32,157.12-101.28S1567,694.89,1670.53,768.62Z"/></clipPath><clipPath id="clip-path-5"><path class="cls-17" d="M1551.46,968.61s-1.32,42.69-11.58,74.47-25.49,52.29-74.8,53.28-113.52-11.58-143.31,16.55-181.7,309.79-181.7,309.79,36.73,91.35,138,81.42c37.73-66.53,70.5-133,70.5-133s17.87,142,45.67,268.08c146,0,338.09,3.48,341.56,0s10.92-159.85,10.92-159.85,57.59-8.94,108.23-85.4c-37.73-96.31-69.5-185.67-82.41-224.39s-116.17-24.83-137-53.12,6-81.42,6-81.42Z"/></clipPath><clipPath id="clip-path-6"><path class="cls-15" d="M1511.17,1066.49s75.95,96.07,78.19,93.83,46.91-48.4,46.91-48.4l17.88-100.53-101.28-67Z"/></clipPath><clipPath id="clip-path-7"><path class="cls-15" d="M1205.1,1477.31c33.76,22.84,67.77,26.31,67.77,26.31s185.42,43.19,246.49,43.19,88.62-17.12,134.79-17.87,146.7,27.55,131.8,55.11-264.36,28.3-318,28.3H1126.91c-48.41,0-51.38-61.81-31.28-99s49.9-83.65,49.9-83.65S1187.53,1465.43,1205.1,1477.31Z"/></clipPath><clipPath id="clip-path-8"><path class="cls-18" d="M2006.11,1440.06s49-150.66,58.94-171.17,21.14-13.86,61.79-33.21,95.33-61.26,95.33-61.26,5.32-14-5.7-15-53.53,26.35-56.2,24.55,38.16-43.33,54.15-59-13.39-54.5-35.25-44.37-54.59,41.57-65.19,46.72-36.16,14.62-36.16,14.62,3.16-16.4,7-34-.47-41.38-15.84-36.84-12.23,26.21-18.7,43.09-31.41,53.31-35.13,69.2-4.47,28.73-9.5,44.25-79.43,163.71-79.43,163.71S1964.18,1442.49,2006.11,1440.06Z"/></clipPath><clipPath id="clip-path-9"><path class="cls-15" d="M1707,851.92s4,85.89,2,147-44.68,75-77.45,63.05-72.22-56.53-74.21-83.34c-13.9-10.92-29.4-32.66-14-57s29.79,2,29.79,2,49.49-54.78,72.33-78.11S1699.55,823.62,1707,851.92Z"/></clipPath><clipPath id="clip-path-10"><rect class="cls-5" x="1679.51" y="1304" width="520.7" height="363.49" rx="21.24" transform="translate(3879.71 2971.5) rotate(-180)"/></clipPath><clipPath id="clip-path-11"><rect class="cls-2" x="952.28" y="1707.48" width="1392.08" height="913.18"/></clipPath><clipPath id="clip-path-12"><rect class="cls-3" x="2023.34" y="1794.37" width="229.12" height="768.58" rx="114.56"/></clipPath><clipPath id="clip-path-13"><rect class="cls-3" x="1013.04" y="1794.37" width="229.12" height="768.58" rx="114.56"/></clipPath><clipPath id="clip-path-14"><rect class="cls-3" x="1338.25" y="1794.37" width="582.75" height="768.58" rx="114.56"/></clipPath><clipPath id="clip-path-15"><path class="cls-4" d="M3863.25,1882s-35-18-80.36-58.73-80.37-47.91-97.37-9.27-30.39,66.46-49.46,65.94c7.73-63.36,20.61-118,62.86-157.12s93.24-18.55,113.33,10.81S3858.62,1824.26,3863.25,1882Z"/></clipPath><clipPath id="clip-path-16"><path class="cls-4" d="M3739.61,1983.62c28.44-27.89,107.85-49.8,107.85-49.8s-16.83,24.73-24.05,50.83-37.77,102-119.86,90.33C3699.09,2031.71,3721.41,2001.48,3739.61,1983.62Z"/></clipPath><clipPath id="clip-path-17"><path class="cls-4" d="M3488.9,1320.43s96.51,60.45,123.3,118.14,40.52,176.54-19.92,203.67c-46.37-10.31-88.27-45.34-103.38-106.47S3495.42,1386,3488.9,1320.43Z"/></clipPath><clipPath id="clip-path-18"><path class="cls-4" d="M3760.74,1419.34s-52,34.52-77.28,118S3671.1,1703,3671.1,1703s56.06-25.89,79.33-83.29C3783.23,1538.86,3766.06,1472.23,3760.74,1419.34Z"/></clipPath><clipPath id="clip-path-19"><path class="cls-4" d="M3419.87,1667.65s70.4,13.4,111.27,55.64,41.56,103.72,27.13,141.84c-33.31,6.53-87.31,1.43-112.3-48.08C3419.69,1765,3441.16,1735.66,3419.87,1667.65Z"/></clipPath><clipPath id="clip-path-20"><polygon class="cls-5" points="3648.08 2134.58 3648.08 2134.36 3645.58 2134.47 3643.09 2134.36 3643.09 2134.58 3512.12 2140.59 3559.52 2637.03 3643.09 2637.03 3648.08 2637.03 3731.65 2637.03 3779.05 2140.59 3648.08 2134.58"/></clipPath><clipPath id="clip-path-21"><path class="cls-4" d="M2439.47,1841s-55-107.49-165-76.87c10,26.25-5,75.62-5,75.62,71.87-7.5,125.61.63,161.23,36.25C2445.72,1854.73,2439.47,1841,2439.47,1841Z"/></clipPath><clipPath id="clip-path-22"><rect class="cls-6" x="2401.9" y="1782.08" width="595.98" height="362.97" rx="28.17"/></clipPath><clipPath id="clip-path-23"><path class="cls-4" d="M2313.44,1867.85s-49,8.75-61.45,85.62,13.12,118.74,13.12,118.74,15.63-31.87,85-27.5C2302.61,1961.6,2275.53,1918.47,2313.44,1867.85Z"/></clipPath><clipPath id="clip-path-24"><path class="cls-7" d="M2843.9,933.69c-25.32-19.86-26.31-42.7-26.31-42.7s-68,19.37-86.88,91.35-49.64,323.2-62.55,424.47-36.24,168.8-29.79,184.68,7,23.34,34.26,24.33,75-3.47,75-3.47,61.06-112.7,61.06-123.62S2843.9,933.69,2843.9,933.69Z"/></clipPath><clipPath id="clip-path-25"><path class="cls-8" d="M3234.12,2411s29.12,34.09,21.51,61.56-12.25,53.28-52,77.78-37.07,62.55-24.16,66.19,108.23,0,131.06,0,47.66-24.16,71.82-84.07,33.76-118.48,24.49-136.69-60.89-17.54-84.72-47.33C3289.39,2379.2,3234.12,2411,3234.12,2411Z"/></clipPath><clipPath id="clip-path-26"><path class="cls-8" d="M2560.92,2401.71,2553,2417.6s-56.6,13.9-109.22-17.87-112.2,5-103.26,60.56,74.46,109.22,131.06,130.07,147,40.71,185.68,18.87,32.76-95.32,29.78-119.15-5.95-73.48-5.95-73.48Z"/></clipPath><clipPath id="clip-path-27"><path class="cls-9" d="M2782.84,1478.3l-11.42,25.32s-61.56,135.53-123.12,332.13-99.29,448.8-107.24,583.83c86.39,7,148.94,25.82,148.94,25.82s18.87-94.33,72.48-249.22,47.66-193.62,60.57-219.44,85.39-147.94,85.39-147.94,20.85,140,49.65,179.72,267.09,412.06,267.09,412.06,71.49,26.8,109.22-79.44c-48.65-150.92-81.42-242.27-111.2-314.75s-70.5-62.55-66.53-165.82,24.08-178.22,18.87-319.71C3099.58,1493.2,2782.84,1478.3,2782.84,1478.3Z"/></clipPath><clipPath id="clip-path-28"><path class="cls-10" d="M2739.15,1424.68s117.66,129.58,143,218.94,26.31,185.18,26.31,185.18-23.33,208-23.33,227.38-177.24,423-183.19,423-183.2-13.41-183.2-13.41l32.77-475.1Z"/></clipPath><clipPath id="clip-path-29"><path class="cls-11" d="M3063.83,843.58s28.3-1.24,76.71-.49,85.63,11.91,91.59,169.78-56.59,528-56.59,528-299.37,56.59-406.6-40.22c-7.45-230.85,7.45-388.72,10.42-484s28.3-126.1,57.1-133.55,64-32.76,64-32.76Z"/></clipPath><clipPath id="clip-path-30"><rect class="cls-12" x="2801.53" y="1072.2" width="816.56" height="449.11" rx="49.2" transform="matrix(0.86, -0.51, 0.51, 0.86, -215.45, 1798.75)"/></clipPath><clipPath id="clip-path-31"><path class="cls-7" d="M3156.67,873.62c28.74-20.65,50.14-21.85,83.9,35.74s107.73,226.39,119.65,276-25.82,259.15-74.47,342.56c-28.8,7-78.44,7.94-80.43-8-1-59.57-2-209.5,10.93-271.06s-63.55-158.87-81.42-209.51S3106.69,909.53,3156.67,873.62Z"/></clipPath><clipPath id="clip-path-32"><path class="cls-14" d="M2933.43,912s-34.59-68.84-35.08-68.84-22.18-10.1-27.8,7.28c-13.41-4-27.64,2.32-29.46,21.35-10.59,6-14.23,14.06,14.07,30.12s66.69,29,66.69,29Z"/></clipPath><clipPath id="clip-path-33"><path class="cls-14" d="M2923.34,930.21c0-1.48-2.49-10.92,6.95-27.3s62.55-81.42,73.47-88.87,26.31-7.94,29.95-1c17.05-4.47,30.79-2.81,34.76,15.23,30.12,9.76,9.76,30.28-24.66,47.82S2923.34,930.21,2923.34,930.21Z"/></clipPath><clipPath id="clip-path-34"><path class="cls-15" d="M2988.87,765.39c.66,1.32,5.46,75,5.46,75l-69.5,78.93L2898,862.2l.49-70.5,63.55-31.77Z"/></clipPath><clipPath id="clip-path-35"><path class="cls-16" d="M2866.49,658.9l-18.62-22.26s-5.29-41.7-6.61-69.83,5.95-49.65,87.37-44.35,127.43,5,142.65,34.75-12.91,136-34.75,162.84-38.39,62.88-47.66,60.23-38.39-43.35-38.39-43.35Z"/></clipPath><clipPath id="clip-path-36"><path class="cls-15" d="M2847.87,636.64s-.33,56.27-.33,110.88,31.78,81.42,81.09,55.27,58.25-67.19,58.25-67.19,26.15-3.31,25.49-35.41S2980.26,667.42,2971,679c-2-30.78-7.95-60.24-35.09-59.91S2883.29,640.28,2847.87,636.64Z"/></clipPath></defs><title>02</title><g id="_02" data-name="02"><rect id="_02-2" data-name="02" class="cls-19" width="4680" height="3120"/><polygon class="cls-20" points="3684.94 2637.03 3674.94 2637.03 3674.94 619.47 2389.15 619.47 2389.15 609.47 3684.94 609.47 3684.94 2637.03"/><path class="cls-13" d="M1715.9,833.39c-.75-1.82-3.8.55-3.17,2.17,1.81,4.62,4.24,9.45,4.71,14.45.3,3.19-.53,6-1,9.15-.42,2.87-.51,5.79-.8,8.67-1.11,10.94-2.43,21.66-4.44,32.47-1.91,10.25-2.34,20.65-4.66,30.84-1.19,5.29-2.76,10.43-4.43,15.59-1.54,4.77-1.65,9.71-3.65,14.36a621,621,0,0,0-22,59.69c-3.08,9.88-6.48,19.77-8.72,29.88-2.2,9.95-2.06,19.88-2,30,.08,11.35,0,23.6,3,34.61,1.32,4.8,3.1,9.45,4.35,14.27,1,3.82,2,7.75,4.88,10.59,1.86,1.82,5.58-2,3.89-3.91-2.47-2.84-3.08-7.08-3.94-10.61-1.08-4.4-2.75-8.6-4-13-2.86-10.24-2.81-21.94-2.9-32.52-.08-10.84-.27-21.4,2.22-32s6-20.86,9.2-31.16c3.07-9.75,6-19.69,10.19-29,2.14-4.71,3.57-9.59,5.24-14.48,1.76-5.11,4.55-9.78,6.28-14.89,1.53-4.5,1.77-9.26,3.2-13.81s2.69-9,3.73-13.63c2.36-10.46,2.75-21.11,4.62-31.63a335.3,335.3,0,0,0,4.3-35.89c.34-5,2-10.22,1.23-15.19C1720.38,843.16,1717.92,838.25,1715.9,833.39Z"/><path class="cls-13" d="M1522.75,760.12a120.76,120.76,0,0,0-22.92,10.49c-7.52,4.54-15.45,9.52-22.17,15.18-7.13,6-12.27,13.19-17.75,20.61-2.86,3.88-6.73,6.54-9.83,10.17s-5.12,8-8,11.68c-5.58,7.09-12.08,13.59-17.92,20.47-2.85,3.35-4.85,7.21-7.72,10.54a92.31,92.31,0,0,0-8,10.84c-2.62,4.09-5,8.19-8.7,11.38s-7,7-11.2,9.19c-3.32,1.78-6.88,3-10.18,4.85a109.43,109.43,0,0,1-13.72,6.81,301.8,301.8,0,0,1-28.54,9.92c-9,2.51-18.07,4.77-27,7.69-18,5.9-34.58,15.69-49.2,27.65-6.81,5.58-12.66,12-19.06,18-5.83,5.45-9.34,13.52-13.41,20.3-4.75,7.93-9.24,15.88-13.31,24.21s-5,17.6-7.33,26.54c-1.44,5.46-2.91,10.56-3.5,16.22a143.27,143.27,0,0,1-2.75,16c-2.49,11.31-5.43,22.29-10.89,32.58-4.75,8.94-10.31,17.93-18,24.68a132.33,132.33,0,0,1-11.87,8.88c-3.9,2.72-9.53,6.27-14.19,7.27-2.36.5-4.24,5.28-.82,4.71,7.38-1.22,14.76-6.47,20.64-10.84,6.66-4.93,12.68-9.76,17.75-16.4,11.76-15.42,18.18-33,22.24-51.76,2.1-9.7,2.58-19.67,5.37-29.18,2.68-9.16,3.38-18.83,7.49-27.55,4.18-8.87,9.29-17.09,14.06-25.6,2-3.6,4.4-6.94,6.51-10.47,2.39-4,5.09-6.72,8.31-10,13.76-14.15,29.42-26.41,47.41-34.8,17.54-8.18,36.86-11.25,55.1-17.45,9-3.06,18.23-6.44,26.46-11.2,7.46-4.32,15-7,21.37-13,2.83-2.67,6.08-4.91,8.59-7.91,3.23-3.88,5.62-8.48,8.41-12.68,2.37-3.56,5.45-6.5,7.94-10,2.9-4,5.61-7.81,8.84-11.61,6.53-7.69,13.4-14.94,18.8-23.48,3-4.77,7.23-7.87,10.81-12.1,3.4-4,5.92-8.69,9.29-12.74,7.23-8.66,16-14.48,25.25-20.68a79.38,79.38,0,0,1,6.7-4.45c2-1,4-1.76,5.9-2.92a76.72,76.72,0,0,1,15-6.78C1525,762.66,1525.3,759.23,1522.75,760.12Z"/><rect class="cls-21" x="3198.69" y="521.07" width="50.45" height="50.45" transform="matrix(0.59, -0.81, 0.81, 0.59, 880.68, 2826.93)"/><path class="cls-1" d="M2344.36,462.55V1633.37h-314v-99a143.23,143.23,0,0,0-143.23-143.23h-422A143.23,143.23,0,0,0,1322,1534.36v99H952.28V462.55H2344.36Z"/><g class="cls-22"><g class="cls-23"><polygon class="cls-24" points="1831.37 392.89 2310.17 1770.25 2372.6 1758.5 1917.44 389.8 1831.37 392.89"/></g><g class="cls-23"><polygon class="cls-24" points="977.09 392.89 1455.9 1770.25 1518.32 1758.5 1063.17 389.8 977.09 392.89"/></g><g class="cls-23"><polygon class="cls-24" points="1134.39 425.17 1593.51 1824.05 1808.72 1809.7 1331.66 425.17 1134.39 425.17"/></g></g><path class="cls-2" d="M2344.36,2620.34h0a127.08,127.08,0,0,0,127.08-127.08V589.63a127.09,127.09,0,0,0-127.08-127.08h0Z"/><g class="cls-25"><rect class="cls-3" x="2256.37" y="380.33" width="151.53" height="2279.46"/></g><path class="cls-2" d="M952.28,2620.34h0V462.55h0A127.09,127.09,0,0,0,825.2,589.63V2493.26A127.08,127.08,0,0,0,952.28,2620.34Z"/><g class="cls-26"><rect class="cls-3" x="888.74" y="401.41" width="151.53" height="2279.46"/></g><path class="cls-13" d="M1670.53,768.62S1708,777,1717.94,819s-6.62,81.09-27.14,112.53-56.26,109.88-33.43,239S1433,1357.17,1433,1357.17s-127.09,32.76-222.41-25.82-83.4-205.53-83.4-205.53,65.53,18.86,84.39-36.74,4.72-104.5,75.47-134.29,125.85-25.32,157.12-101.28S1567,694.89,1670.53,768.62Z"/><g class="cls-27"><path class="cls-28" d="M1661,744.57s26.15,36.43-32.7,69.13-93.42,113-142,186.83-102.76,15.89-166.29,50.45-29.89,66.33-101.82,154.14-155.08,27.09-155.08,27.09,37.37,78.47,102.76,131.72,282.12,63.53,281.19,66.33,209.26-229.81,210.27-259.76,74.66-185.85,71.85-282.07S1661,744.57,1661,744.57Z"/><g class="cls-23"><path class="cls-24" d="M1467,831.76a142.25,142.25,0,0,0,20.92,6c2.9-7.05,8.07-13.74,12.26-19.49a248.53,248.53,0,0,1,20.51-24.49c.76-.8,1.53-1.57,2.3-2.35a92.64,92.64,0,0,1-11.46-16.61C1479.48,796.88,1467,831.76,1467,831.76Z"/></g><g class="cls-23"><path class="cls-24" d="M1528.31,799a234.09,234.09,0,0,0-20.2,23.82c-3.54,4.86-8,10.51-10.81,16.44,46.56,6.16,80-13.75,80-13.75a117.46,117.46,0,0,1-48-27.52Z"/></g><path class="cls-28" d="M1664.19,801c-11,.1-20.79,5.7-30.4,10.55a143.65,143.65,0,0,0-14.68,8.38c-4.3,2.83-9.42,4.76-13.22,8.28-4,3.68-7.59,7.82-11.5,11.59-4.33,4.18-8.66,8.35-12.79,12.73a124.42,124.42,0,0,0-10.07,11.92c-3.62,5-7.43,9.49-11.32,14.24-3.72,4.55-6.24,9.72-9.37,14.63-2.75,4.3-6.79,7.29-9.25,11.84-5.8,10.75-11.13,21.55-17.35,32.07s-10.69,21.74-15.2,33c-2.19,5.45-4.15,11-7.27,16a109.46,109.46,0,0,1-12.91,16.66,142.83,142.83,0,0,1-12,11.58c-4.89,4.17-9.39,8.57-15,11.79-10.54,6-20.1,12.4-31.91,15.86-11.61,3.42-22.92,7.7-34.75,10.3-11,2.43-20.78,8.42-31.53,11.85-4.7,1.51-8.86,3-12.9,5.79-2.12,1.48-4.36,1.79-6.69,2.72-2.91,1.16-5.48,3.06-8.32,4.39-10.15,4.74-19.09,11.56-27.85,18.54-8.54,6.8-16.7,14.78-22.75,23.92a305,305,0,0,0-16.78,29.35c-2.84,5.54-6.74,10.37-9.63,15.9-3.11,5.94-5.74,12.12-8.56,18.2s-6.85,11.16-9.21,17.53-4.7,12.43-7.63,18.47c-6.32,13.07-11.33,26.71-18.62,39.29-3.27,5.65-6.25,11.56-9.94,17-1.69,2.46-3.26,5.15-5.11,7.48s-4.1,3.39-6.45,4.82c-1.86,1.14-1.7,5.06.91,3.63,3.14-1.72,6.2-3.16,8.5-6a99.19,99.19,0,0,0,9.1-13.66c5.94-10.56,12.08-20.91,16.9-32,4.9-11.32,10.9-22.37,15.05-34,3.87-10.82,10-20.44,14.84-30.9s11.16-19.52,16.38-29.6c5.42-10.49,11.53-21.72,19.21-30.71,7.91-9.25,17.31-15.84,26.77-23.28a68.23,68.23,0,0,1,13.83-8.89c2.45-1.13,4.8-2.37,7.16-3.67,2.57-1.4,5.3-1.86,7.9-3.11,1.65-.8,2.88-2.08,4.39-3.06,2.41-1.57,5.54-2.31,8.25-3.19a144.19,144.19,0,0,0,16.58-6.18,78.44,78.44,0,0,1,16.92-6.16c5.56-1.23,11-2.85,16.42-4.61,11.22-3.66,23-6.45,33.58-11.82,4.61-2.34,8.75-5.33,13.17-8,4.61-2.75,9.16-5.11,13.15-8.77,8.75-8,17.67-15.51,25.23-24.76S1509.58,979.93,1514,969c4.67-11.62,9.5-23,16-33.71,2.91-4.81,5.85-9.6,8.33-14.65,2.67-5.43,5-11.42,8.34-16.46,1.61-2.42,4-4.24,5.8-6.46a54.34,54.34,0,0,0,4.59-7.37c3.55-6,7.8-11,12.27-16.29,4.17-5,7.47-10.52,11.8-15.39s9.06-9.49,13.76-14.06c4.3-4.18,8.43-8.41,12.63-12.66,2.55-2.57,5.6-4,8.73-5.68,2.49-1.39,4.78-3.09,7.19-4.62a192.24,192.24,0,0,1,18.09-9.65c6.72-3.29,13.39-6.72,21-7C1664.45,804.86,1666.76,800.94,1664.19,801Z"/><path class="cls-28" d="M1641.24,792.83c-1.74.27-2.54,1-4,2-2.06,1.39-4.38,2-6.71,2.88-5.94,2.23-11.76,4.41-17.25,7.65-5.24,3.1-10,6.87-15,10.28-4.55,3.07-9.37,5.7-13.44,9.46s-7.89,8-11.92,11.95a108.09,108.09,0,0,0-11.82,13.12,269.34,269.34,0,0,0-20.62,33.23c-3.08,5.77-6.19,11.42-9.79,16.88s-7.84,10.91-11.06,16.74a94.18,94.18,0,0,1-10.23,14.9c-4.27,5.23-7.82,10.75-12.42,15.72-3.87,4.19-7.12,8.92-11,13.15a151.62,151.62,0,0,1-14.18,13.7c-4.91,4.18-9.72,8.63-15.11,12.2s-10.75,6.69-16.07,10.1c-5,3.24-11.31,4.22-16.8,6.55a93.13,93.13,0,0,1-20.53,6c-6.16,1.1-11.53,4-17.54,5.6-6.32,1.63-12.93,3.35-19.35,4.46-6.19,1.07-12.53.74-18.76,1.43a151.05,151.05,0,0,0-20,3.87,133.94,133.94,0,0,0-16.2,4.82c-5.47,2.13-9.42,5.35-13.92,9-4.1,3.3-8.89,5.62-12.91,9a145.41,145.41,0,0,0-13.4,13,67.76,67.76,0,0,0-8.74,13c-3,5.5-6.35,10.6-8.44,16.55-1.93,5.45-4.79,10.37-6.89,15.75-2.43,6.22-5,12.45-7.07,18.8-4.07,12.38-7.71,24.57-12.85,36.57-3,6.91-6.06,13.24-10.76,19.14-4.18,5.26-7.8,10.88-11.93,16.17a103.07,103.07,0,0,1-14.47,14.77c-5,4.28-10.62,7.85-15.52,12.24-5.2,4.66-11,7.8-16.67,11.82-2.85,2-5.33,4.6-8.33,6.4a48.51,48.51,0,0,1-9.23,3.78c-6.61,2.3-13.05,5.39-19.89,7-4,.91-8,.8-12.06.74-2.68,0-7.26,1.08-9.36-.91-1.78-1.69-5.41,2-3.68,3.71,3.09,3.14,8.62,1.9,12.64,2.06a46.26,46.26,0,0,0,16.77-2.08c11.35-3.66,23-7.49,32.42-15,4.47-3.56,9.63-6,14.21-9.39,4.75-3.52,9.13-7.61,13.81-11.25,9.27-7.2,18.07-15.17,24.91-24.77,7.19-10.09,15-19.48,20-31a368.5,368.5,0,0,0,13.08-36.49c2-6.44,4.6-12.61,7-18.92,2.22-6,5.44-11.45,7.57-17.45,2-5.57,4.73-10.31,7.58-15.46,3.4-6.14,6.8-11.67,11.86-16.62,4.21-4.12,8.36-8.57,13.24-11.89s9.51-7.19,14.4-10.59c5.3-3.7,11.83-5.33,18-7a183.49,183.49,0,0,1,21-4.53c5.75-.87,11.54-.82,17.32-1.32,6.47-.56,12.66-2.61,19-3.93a81.36,81.36,0,0,0,8.83-2.2c3.53-1.15,6.8-3,10.42-3.87,6.26-1.57,12.41-2.31,18.56-4.49,5.63-2,11-4.29,16.75-6.12,6.23-2,11.38-6.19,16.94-9.53,10.25-6.17,19.44-13.83,28.19-22a146.88,146.88,0,0,0,13-13.75c3.88-4.68,8-9.15,11.85-13.85,3.69-4.51,6.77-9.47,10.49-14,4.61-5.61,7.49-11.79,11.46-17.81s8.28-12,12-18.35,6.78-12.81,10.39-19.09c7.48-13,15.56-25.58,26.34-36.11,4.86-4.75,9.37-10.31,14.8-14.39,5.15-3.88,10.75-7.23,16-11a91.4,91.4,0,0,1,20.12-11.2c3-1.16,6-2.24,9-3.38,1.85-.7,3.6-2.81,5.44-3.13S1643.71,792.43,1641.24,792.83Z"/><path class="cls-28" d="M1630.81,764.91c-5.09-2.36-9.73-1.39-15.06-.42a95.66,95.66,0,0,0-17.63,4.52c-11.3,4.39-21.57,12.55-30.83,20.21-9,7.47-15.52,17.27-23.12,26.09-3.71,4.3-7.7,8.37-11,13-4,5.79-7.35,12.15-11.16,18.1-7.24,11.27-13.44,24-22.17,34.19a42.1,42.1,0,0,0-4.79,6.33c-1.48,2.6-2.39,5.53-4,8-1.38,2.11-3.46,3.68-5.1,5.59-2.15,2.51-4.15,5.16-6.09,7.84-7.46,10.3-14.12,20.69-23.22,29.68s-17.73,18.7-28.21,26a114.47,114.47,0,0,1-16.25,9.36c-6.34,3-13.32,4.64-19.84,7.23-11.89,4.72-25,7-37.53,9.7s-25.21,5-36.91,10.2a95.3,95.3,0,0,1-16.7,6.08,64.67,64.67,0,0,0-15.79,6.42c-9.43,5.08-18.68,10.77-26.49,18.17a47.83,47.83,0,0,0-9.2,11.25c-1.46,2.65-2.52,5.43-4.54,7.73a22.4,22.4,0,0,0-4.37,6.42c-1.94,4.67-2.32,9.79-3.33,14.7-1.34,6.52-4.53,12.69-6.56,19a296.68,296.68,0,0,1-14.35,37.62c-6.17,13-14.08,25.87-23.95,36.38s-23.25,18.78-36.13,25.29c-6.82,3.45-13.94,6.32-20.89,9.5-6,2.76-12.58,3.63-18.73,6-7.34,2.89-13.85,1.42-21.28.2-3.74-.62-4.81-1.72-7.51-4.19-1.59-1.45-3.11-2.57-5.31-2.67s-4.9,4.36-1.91,4.6c4.13.32,6,6.24,10.44,7.09,5.47,1,11.12,2.27,16.72,1.92s10.23-3,15.58-4.34a101.94,101.94,0,0,0,17.25-6.19c22.28-10,44.73-21.4,60.22-40.88,16-20.12,26.29-44,33.93-68.35,1.89-6,4.61-11.78,6.41-17.79,1.72-5.7,1.54-12.14,4-17.59,1.08-2.39,2.9-3.94,4.42-6a43.5,43.5,0,0,0,3.51-6.25c2.82-5.49,7.42-10,12.15-13.88,8.52-7,19.28-14.08,29.71-17.83,5.26-1.9,10.8-2.55,16-4.68,6.19-2.54,12-5.48,18.48-7.35,12.68-3.7,25.81-5.91,38.66-9,5.89-1.41,11.82-2.65,17.62-4.42s11.6-4.37,17.51-6.26c24.34-7.81,42-26.07,59.4-43.91,8.41-8.64,14.49-19.07,21.59-28.73,3.13-4.26,7.43-7.82,10.27-12.21,1.48-2.3,2.41-4.89,3.66-7.31,1.59-3.09,3.88-5.43,6.07-8.08,4.51-5.49,8-12,11.69-18.05,4.39-7.09,8.9-14.1,13.37-21.15,4-6.25,7.21-12.56,12.09-18.2,4.26-4.93,8.48-9.83,12.52-14.95,4.33-5.49,8.69-11,14-15.61a179.6,179.6,0,0,1,17.09-13,66.43,66.43,0,0,1,20.45-9.75c6.81-1.84,16.16-4.91,23-2.4C1630.26,768.72,1632.66,765.77,1630.81,764.91Z"/><path class="cls-28" d="M1586.56,755.14a177.24,177.24,0,0,0-28.85,11.17,39.52,39.52,0,0,0-10.37,7.23c-4.07,3.9-8.64,6.46-13.08,9.83-3.35,2.53-5.16,5.45-7.35,8.93-2.69,4.25-6.42,7.27-8.91,11.77a297.2,297.2,0,0,1-18.2,29.67c-13.55,18.89-27.33,38.8-45.17,53.84-8.83,7.44-17.26,15.37-27.07,21.59-4.08,2.58-7.84,4.74-11.38,8.06-4.2,3.94-9.84,5.69-14.75,8.53-4.52,2.61-8.77,5.46-13.54,7.64a150.47,150.47,0,0,1-15.55,6c-10.79,3.55-21.14,8-31.78,11.94-10.41,3.85-21.54,4.49-31.8,8.79a162,162,0,0,0-29.39,15.77c-4.13,2.83-8.37,5.56-12,9-3.85,3.71-7.09,8-10.69,12-7.32,8-15,16.69-20.35,26.19s-9.81,20-14.53,30c-5.08,10.73-10.13,21.51-16.26,31.69-6.67,11.08-14.56,22.17-24.9,30-4.25,3.23-7.2,7.62-11.63,10.59-5.63,3.77-10.92,8.15-16.68,11.73-5.48,3.41-12,5-17.74,8s-11.26,6-17.73,6.74-12.78.7-18.5-2.58c-4.39-2.52-11.68-5.64-14.21-10.13-1.44-2.54-5.87.94-4.65,3.18,2,3.68,5.53,5.55,9,7.66,4.24,2.58,8.21,5.82,13.17,6.9,10.06,2.2,21-.74,29.9-5.33a144.29,144.29,0,0,1,14.51-6.71c5.54-2.15,10.13-5.3,14.9-8.78,4.2-3.06,8.85-5.76,12.85-9a40.88,40.88,0,0,0,4.49-4.72,48.1,48.1,0,0,1,7-6c8.63-6.63,15.51-16.66,21.33-25.75a268,268,0,0,0,15.91-29.65c4.93-10.36,10-20.67,14.78-31.07,5.12-11,13.29-20.72,21.41-29.65,3.62-4,6.92-8.28,10.73-12.08,4.51-4.49,10.26-7.94,15.56-11.43,9.79-6.45,20.91-12.42,32.38-15.26,5-1.24,10.22-1.85,15.24-3.18a130.62,130.62,0,0,0,15.91-5.73c10.3-4.21,20.8-7.56,31.2-11.46,10.23-3.83,18.92-9.76,28.63-14.54a45.14,45.14,0,0,0,11.3-7.66c4.28-4,10-6.53,14.71-10,9.41-6.86,17.93-14.7,26.82-22.18,8.23-6.94,15-16.14,21.68-24.5,8.39-10.43,16.46-21.52,23.89-32.65,3.52-5.27,7-10.64,10-16.21,3.15-5.8,5.79-11.3,10.27-16.19a32.22,32.22,0,0,0,3.87-5.78,21.09,21.09,0,0,1,6.81-6.84,103,103,0,0,0,12.57-10c5-4.58,11.31-6.62,17.34-9.44a123.39,123.39,0,0,1,18.31-6.8C1587.56,757.84,1588.72,754.53,1586.56,755.14Z"/></g><path class="cls-17" d="M1551.46,968.61s-1.32,42.69-11.58,74.47-25.49,52.29-74.8,53.28-113.52-11.58-143.31,16.55-181.7,309.79-181.7,309.79,36.73,91.35,138,81.42c37.73-66.53,70.5-133,70.5-133s17.87,142,45.67,268.08c146,0,338.09,3.48,341.56,0s10.92-159.85,10.92-159.85,57.59-8.94,108.23-85.4c-37.73-96.31-69.5-185.67-82.41-224.39s-116.17-24.83-137-53.12,6-81.42,6-81.42Z"/><g class="cls-29"><path class="cls-30" d="M1504.09,1390.09c-116.78-17.75-130.79-63.53-130.79-63.53l-38.3,170s92.48-25.23,172.82-25.23,184-36.43,191.51-73.8S1620.86,1407.84,1504.09,1390.09Z"/><path class="cls-30" d="M1777.8,1114.51l-79.41-9.35s30.83,105.57,42,136.39,42,138.26,43,157,59.78,36.43,69.13,14,26.15-57.92-10.28-145.73S1777.8,1114.51,1777.8,1114.51Z"/><path class="cls-30" d="M1165,1530.22h103.69L1351.81,1405s23.36-76.61,22.42-161.62C1335.93,1391,1168.71,1528.35,1165,1530.22Z"/><path class="cls-31" d="M1366.45,1303.55c-8.61,52.29-17.87,67.52-17.87,67.52l-12.91,66.52s40.71-26.47,49-96-13.9-151.91-13.9-151.91S1375.05,1251.26,1366.45,1303.55Z"/><path class="cls-31" d="M1730.85,1216.67s30.78,83.9,34.25,136-18.37,126.6-18.37,126.6l2.49,12.41s29.78,1,31.27-4,9.93-44.18,4-117.16S1730.85,1216.67,1730.85,1216.67Z"/><path class="cls-24" d="M1607.7,1675.49l-6.9-1.18c.51-3,50.35-297.92,35.79-361.29-14.66-63.76-50.11-150.5-50.47-151.37l-.49-1.19,13.81-42.18,6.65,2.17-13,39.74c4.35,10.75,36.49,91.06,50.33,151.26C1658.29,1376.18,1609.77,1663.29,1607.7,1675.49Z"/><path class="cls-15" d="M1511.17,1066.49s75.95,96.07,78.19,93.83,46.91-48.4,46.91-48.4l17.88-100.53-101.28-67Z"/><g class="cls-32"><g class="cls-33"><path class="cls-34" d="M1522.3,997.27s16.35,59.78,128.45,99.49c-14-51.85-99-136.86-99-136.86Z"/></g></g></g><path class="cls-15" d="M1205.1,1477.31c33.76,22.84,67.77,26.31,67.77,26.31s185.42,43.19,246.49,43.19,88.62-17.12,134.79-17.87,146.7,27.55,131.8,55.11-264.36,28.3-318,28.3H1126.91c-48.41,0-51.38-61.81-31.28-99s49.9-83.65,49.9-83.65S1187.53,1465.43,1205.1,1477.31Z"/><g class="cls-35"><g class="cls-33"><path class="cls-34" d="M1114.06,1565.25c-43.44-40.64-9.81-119.11-9.81-119.11l-61.65,103.69,16.81,84.08,623.57,2.8,15.41-53.25S1157.5,1605.89,1114.06,1565.25Z"/></g></g><path class="cls-7" d="M1530.28,1055.82c-8.94,20.85-23.83,26.81-35.75,34.25,1,46.67,44.19,90.36,44.19,90.36s11.91-56.6,29.29-93.34C1535.74,1069.22,1530.28,1055.82,1530.28,1055.82Z"/><path class="cls-7" d="M1631.31,1086.6s-8.69,2.48-15.39,3.72c6.95,39.47,6.45,95.32,6.45,94.58s18.37-65.54,18.37-65.54S1628.33,1110.68,1631.31,1086.6Z"/><path class="cls-18" d="M2006.11,1440.06s49-150.66,58.94-171.17,21.14-13.86,61.79-33.21,95.33-61.26,95.33-61.26,5.32-14-5.7-15-53.53,26.35-56.2,24.55,38.16-43.33,54.15-59-13.39-54.5-35.25-44.37-54.59,41.57-65.19,46.72-36.16,14.62-36.16,14.62,3.16-16.4,7-34-.47-41.38-15.84-36.84-12.23,26.21-18.7,43.09-31.41,53.31-35.13,69.2-4.47,28.73-9.5,44.25-79.43,163.71-79.43,163.71S1964.18,1442.49,2006.11,1440.06Z"/><g class="cls-36"><path d="M2169.85,1108.09q-12.58,10.41-25,21c-8.32,7-16.57,14.1-25,21.1a236.26,236.26,0,0,0,27.65-17.7q13.29-9.63,25.87-20.12t24.68-21.54c8-7.41,15.89-15,23.33-23-8.94,6.35-17.56,13-26.12,19.78S2178.24,1101.15,2169.85,1108.09Z"/><path class="cls-37" d="M2164.32,1200.92c-49.05,19.61-79.87,20.32-128.22,56.75s-86.88,3.5-86.88,3.5l-2.8,58.86,107.9,9.8s131-101.59,136.62-105.09,57.45-39.24,59.56-39.94-24.53-35-24.53-35S2213.36,1181.3,2164.32,1200.92Z"/></g><path class="cls-15" d="M1707,851.92s4,85.89,2,147-44.68,75-77.45,63.05-72.22-56.53-74.21-83.34c-13.9-10.92-29.4-32.66-14-57s29.79,2,29.79,2,49.49-54.78,72.33-78.11S1699.55,823.62,1707,851.92Z"/><g class="cls-38"><g class="cls-33"><circle class="cls-34" cx="1601.24" cy="969.71" r="25.33" transform="translate(-266.93 1089.1) rotate(-34.86)"/></g><path class="cls-39" d="M1690.29,884.59c-10.65-.69-5.3,9,.67,8.29s10.76.22,20.06,3.27S1709.81,885.85,1690.29,884.59Z"/><path class="cls-39" d="M1653.23,882.22c-22.09-2.12-36.63,9.22-25.59,7.82s16.59-1.46,23.13.24S1665.29,883.37,1653.23,882.22Z"/><path d="M1652.74,1015.54a67,67,0,0,1-11-5.14c-3.61-2.07-7.19-4.37-11-6.79a32.62,32.62,0,0,0,8,10.83,35.14,35.14,0,0,0,11.83,7.15,25.57,25.57,0,0,0,14.16.93,21.06,21.06,0,0,0,11.68-7.16,43,43,0,0,1-12.32,2.17A34,34,0,0,1,1652.74,1015.54Z"/><ellipse class="cls-39" cx="1637.71" cy="927.23" rx="9.65" ry="13.7" transform="translate(-19.04 34.47) rotate(-1.2)"/><path class="cls-39" d="M1637.42,913.54l.84,2.75,2.29,6.59s6.19-2.84,13.12-16.28C1642.12,915.83,1637.42,913.54,1637.42,913.54Z"/><path class="cls-39" d="M1693.52,917.14c-4.56.1-8.15,5.42-8,11.9s4,11.65,8.51,11.55,8.16-5.42,8-11.9S1698.09,917,1693.52,917.14Z"/><path class="cls-39" d="M1693.52,917.14l.72,2.36,2,5.64s5.3-2.43,11.23-13.94C1697.54,919.1,1693.52,917.14,1693.52,917.14Z"/><path class="cls-39" d="M1678.78,937.24s11.25,32.55,12.06,38.12-1.86,4.63-17,17.12c8-.47,24.16-9.23,22.62-15.53S1678.78,937.24,1678.78,937.24Z"/></g><rect class="cls-40" x="1651.66" y="1304" width="115.35" height="363.49" rx="20.35"/><rect class="cls-24" x="1874.99" y="1654.41" width="118.52" height="82.38"/><path d="M1995.5,1738.79H1873v-86.38H1995.5Zm-118.51-4H1991.5v-78.38H1877Z"/><path class="cls-24" d="M2042.72,1717.36h-217a13.93,13.93,0,0,0-13.92,13.93h0a13.92,13.92,0,0,0,13.92,13.92h217a13.93,13.93,0,0,0,13.93-13.92h0A13.93,13.93,0,0,0,2042.72,1717.36Z"/><path d="M2042.72,1747.21h-217a15.93,15.93,0,0,1,0-31.85h217a15.93,15.93,0,1,1,0,31.85Zm-217-27.85a11.93,11.93,0,0,0,0,23.85h217a11.93,11.93,0,1,0,0-23.85Z"/><rect class="cls-5" x="1679.51" y="1304" width="520.7" height="363.49" rx="21.24" transform="translate(3879.71 2971.5) rotate(-180)"/><g class="cls-41"><g class="cls-42"><circle class="cls-24" cx="1942.66" cy="1484.17" r="47.21"/></g><path class="cls-24" d="M1699,1443.85h-.06a5,5,0,0,1-4.94-5.06l.89-74.26a45.66,45.66,0,0,1,46.13-45l102.32,1.22a5,5,0,0,1-.12,10l-102.32-1.22a35.64,35.64,0,0,0-36,35.15l-.89,74.26A5,5,0,0,1,1699,1443.85Z"/></g><rect class="cls-2" x="952.28" y="1707.48" width="1392.08" height="913.18"/><g class="cls-43"><rect class="cls-44" x="2057.15" y="1794.37" width="229.12" height="768.58" rx="114.56"/><rect class="cls-3" x="2023.34" y="1794.37" width="229.12" height="768.58" rx="114.56"/><g class="cls-45"><g class="cls-23"><polygon class="cls-24" points="2129.03 1758.5 2250.99 2591.64 2285.06 2591.64 2172.08 1758.5 2129.03 1758.5"/></g><g class="cls-23"><polygon class="cls-24" points="2042.95 1786 2164.9 2619.14 2198.98 2619.14 2085.99 1786 2042.95 1786"/></g></g><rect class="cls-44" x="1046.85" y="1794.37" width="229.12" height="768.58" rx="114.56"/><rect class="cls-3" x="1013.04" y="1794.37" width="229.12" height="768.58" rx="114.56"/><g class="cls-46"><g class="cls-23"><polygon class="cls-24" points="1108.27 1747.96 1230.22 2581.11 1264.3 2581.11 1151.31 1747.96 1108.27 1747.96"/></g><g class="cls-23"><polygon class="cls-24" points="1022.18 1775.46 1144.14 2608.61 1178.21 2608.61 1065.23 1775.46 1022.18 1775.46"/></g></g><rect class="cls-44" x="1417.87" y="1794.37" width="539.59" height="768.58" rx="114.56"/><rect class="cls-3" x="1338.25" y="1794.37" width="582.75" height="768.58" rx="114.56"/><g class="cls-47"><g class="cls-23"><polygon class="cls-24" points="1656.62 1746.93 1866.55 2620.65 1936.54 2620.34 1719.86 1735.58 1656.62 1746.93"/></g><g class="cls-23"><polygon class="cls-24" points="1368.4 1746.93 1578.33 2620.65 1648.32 2620.34 1431.64 1735.58 1368.4 1746.93"/></g><g class="cls-23"><polygon class="cls-24" points="1467.26 1761.88 1670.51 2595.23 1831.37 2600.01 1626.27 1765.47 1467.26 1761.88"/></g></g><rect class="cls-44" x="920.26" y="1672.4" width="1472.41" height="88.88"/></g><rect class="cls-3" x="952.28" y="1611.03" width="1392.08" height="121.95"/><path class="cls-24" d="M3646.57,2133l55.61-60.07C3662,2104.52,3646.57,2133,3646.57,2133Z"/><path d="M3646.57,2135a1.92,1.92,0,0,1-1-.24,2,2,0,0,1-.81-2.71c.64-1.18,16.08-29.2,56.13-60.69a2,2,0,1,1,2.47,3.14A264.21,264.21,0,0,0,3661,2116a137.58,137.58,0,0,0-12.62,18A2,2,0,0,1,3646.57,2135Z"/><path class="cls-48" d="M3635.55,2127.59a3.5,3.5,0,0,1-3.5-3.37c0-1-3.57-98.12-16.43-169.17-13.83-76.44-22.17-146.63-24.78-208.6-2.72-64.52-4.11-104.72-4.12-105.12a3.5,3.5,0,0,1,3.37-3.62h.13a3.5,3.5,0,0,1,3.49,3.38c0,.4,1.41,40.57,4.12,105.06,2.6,61.66,10.9,131.53,24.68,207.66,12.94,71.54,16.5,169.18,16.54,170.16a3.51,3.51,0,0,1-3.38,3.62Z"/><path class="cls-24" d="M3672,1703s-54.95,95.48-59.75,206.75Z"/><path d="M3612.2,1911.78h-.09a2,2,0,0,1-1.91-2.08c4.77-110.49,59.47-206.71,60-207.67a2,2,0,1,1,3.47,2c-.55,1-54.77,96.36-59.5,205.84A2,2,0,0,1,3612.2,1911.78Z"/><path class="cls-48" d="M3627.83,2021h-.25a3.5,3.5,0,0,1-3.25-3.73c0-.44,3.08-44.5,3.08-71.37,0-27.31,7.14-66,7.45-67.61a3.5,3.5,0,1,1,6.88,1.28c-.08.4-7.33,39.67-7.33,66.33,0,27.12-3.07,71.41-3.1,71.86A3.49,3.49,0,0,1,3627.83,2021Z"/><path class="cls-4" d="M3863.25,1882s-35-18-80.36-58.73-80.37-47.91-97.37-9.27-30.39,66.46-49.46,65.94c7.73-63.36,20.61-118,62.86-157.12s93.24-18.55,113.33,10.81S3858.62,1824.26,3863.25,1882Z"/><g class="cls-49"><path class="cls-48" d="M3810.06,1782.94c-4.23-6.21-8.8-12.2-13.64-18-1.23-1.43-2.43-2.89-3.69-4.3l-3.83-4.18c-2.64-2.72-5.3-5.42-8.12-8a136.61,136.61,0,0,0-18-14,98.57,98.57,0,0,0-20.72-10.08,84.48,84.48,0,0,0-11.23-3.05,41.64,41.64,0,0,0-12-.58,43.25,43.25,0,0,0-11.68,2.87,52.78,52.78,0,0,0-10.44,5.65,79.52,79.52,0,0,0-16.72,16.07,143.68,143.68,0,0,0-12.53,19.07c-1.86,3.3-3.58,6.66-5.23,10.06s-3.16,6.84-4.65,10.3a335.32,335.32,0,0,0-14.54,42.57,385.51,385.51,0,0,0-9.32,43.85q5.33-21.75,12.33-42.94c2.32-7.06,4.79-14.07,7.48-21s5.5-13.77,8.62-20.47c6.29-13.34,13.34-26.42,22.56-37.65a75.91,75.91,0,0,1,15.54-14.72,41,41,0,0,1,19.2-7.31,35.72,35.72,0,0,1,10.26.43,80.61,80.61,0,0,1,10.35,2.75,97.08,97.08,0,0,1,19.51,9.28,131.69,131.69,0,0,1,17.49,13.09,183.1,183.1,0,0,1,15.62,15.53,278,278,0,0,1,26.65,35.45,360.41,360.41,0,0,1,21.82,38.93A282.47,282.47,0,0,0,3822,1802C3818.26,1795.54,3814.31,1789.15,3810.06,1782.94Z"/><path class="cls-50" d="M3782.89,1823.23c-48.95-46.79-88.38-59-120.61-33.78s-29.43,63.76-29.43,63.76l-2.8,73.57S3831.83,1870,3782.89,1823.23Z"/></g><path class="cls-48" d="M3630.75,2045.85h-.24a3.49,3.49,0,0,1-3.26-3.71c1.46-22.56,12.49-49.51,32.77-80.1a364.71,364.71,0,0,1,29.95-39.15,3.5,3.5,0,0,1,5.18,4.71c-.57.63-57.6,63.94-60.92,115A3.5,3.5,0,0,1,3630.75,2045.85Z"/><path class="cls-48" d="M3627.65,2025.25a3.5,3.5,0,0,1-3.42-2.77c-7.19-33.33-25.53-73.8-39.65-101.89-14.87-29.58-28.3-52-29.25-53.56l-10.58-15.37a3.5,3.5,0,0,1,5.76-4l10.65,15.46.11.17c.14.23,14.07,23.31,29.54,54.08,14.31,28.46,32.91,69.54,40.26,103.61a3.5,3.5,0,0,1-2.68,4.16A3.81,3.81,0,0,1,3627.65,2025.25Z"/><path class="cls-48" d="M3629.37,2036.92a3.48,3.48,0,0,1-3.26-2.23c-12-30.89-32.47-48.34-47.51-57.54-16.38-10-30.12-12.73-30.25-12.76a4.23,4.23,0,0,1-.51-.13l-17.52-6.19a3.5,3.5,0,1,1,2.33-6.6l17.28,6.1c2.16.45,15.74,3.53,32.06,13.45,16.05,9.76,37.87,28.29,50.64,61.13a3.5,3.5,0,0,1-2,4.53A3.36,3.36,0,0,1,3629.37,2036.92Z"/><path class="cls-50" d="M3509.85,1996.33s14.42,67,39.15,94.79,85,38.12,85,38.12-10.81-47.91-40.69-82.42S3509.85,1996.33,3509.85,1996.33Z"/><path class="cls-4" d="M3739.61,1983.62c28.44-27.89,107.85-49.8,107.85-49.8s-16.83,24.73-24.05,50.83-37.77,102-119.86,90.33C3699.09,2031.71,3721.41,2001.48,3739.61,1983.62Z"/><g class="cls-51"><path class="cls-50" d="M3803.11,1994.74c-12.61,36.43-119.81,82-105.1,34.33-22.42,30.13-10.51,51.15-4.2,56.75s20.32,12.61,63.06-7,69.36-36.43,79.87-75,19.62-82,19.62-82l-31.53-6.3C3823.43,1927.48,3815.72,1958.31,3803.11,1994.74Z"/></g><path class="cls-4" d="M3488.9,1320.43s96.51,60.45,123.3,118.14,40.52,176.54-19.92,203.67c-46.37-10.31-88.27-45.34-103.38-106.47S3495.42,1386,3488.9,1320.43Z"/><g class="cls-52"><path class="cls-50" d="M3602,1590.47c-34.34,11.21-88.28-45.54-91.09-146.43s-65.16-160.45-65.16-164.65c0,0,4.91,202.48-.7,262s42,73.56,82,104.39,34.33,13.31,70.06,13.31,45.54-37.83,45.54-37.83,3.51-81.27,2.1-83.38S3636.36,1579.26,3602,1590.47Z"/><path class="cls-48" d="M3583,1550l-1.64-9-1.84-9q-3.87-18-8.9-35.63c-3.44-11.75-7.13-23.43-11.34-34.93s-8.73-22.87-13.78-34-10.42-22.14-16.24-32.89a306.1,306.1,0,0,0-19.27-31.14c6,10.63,11.36,21.54,16.48,32.55s9.91,22.18,14.45,33.42,8.77,22.61,12.66,34.1,7.6,23,10.89,34.67c.82,2.92,1.73,5.81,2.49,8.74l2.35,8.78c.77,2.93,1.46,5.88,2.19,8.82l1.08,4.41,1,4.43c2.89,11.78,5.05,23.71,7.35,35.62,4.19,23.9,7.2,48,9.31,72.32a463.58,463.58,0,0,0-4.38-73.1C3584.92,1562.06,3584.12,1556,3583,1550Z"/></g><path class="cls-4" d="M3760.74,1419.34s-52,34.52-77.28,118S3671.1,1703,3671.1,1703s56.06-25.89,79.33-83.29C3783.23,1538.86,3766.06,1472.23,3760.74,1419.34Z"/><g class="cls-53"><path class="cls-48" d="M3745.63,1473.69l-1.53,7.91-1.71,7.86c-.54,2.63-1.17,5.23-1.79,7.84l-1.86,7.83c-1.39,5.18-2.61,10.39-4,15.56l-4.31,15.49-4.59,15.41-4.82,15.34c-.82,2.55-1.58,5.12-2.45,7.65l-2.6,7.61c-1.72,5.08-3.32,10.2-5.13,15.25l-5.41,15.15c-.89,2.53-1.73,5.08-2.67,7.59l-2.83,7.54q-2.85,7.52-5.58,15.1c-1.84,5-3.9,10-5.79,15l-5.74,15.08c-4,10-8,20-11.69,30.1,5-9.53,9.79-19.2,14.58-28.86,4.47-9.8,9-19.58,13.28-29.48q3.14-7.45,6.18-15l3.05-7.49c1-2.5,1.93-5,2.9-7.56l5.63-15.17c1-2.52,1.79-5.09,2.67-7.64l2.62-7.66,2.55-7.68c.85-2.56,1.59-5.16,2.39-7.74l2.36-7.74c.77-2.59,1.62-5.15,2.3-7.77l4.19-15.65c1.34-5.23,2.52-10.5,3.75-15.76.63-2.63,1.11-5.29,1.67-7.93s1.09-5.29,1.6-7.94l1.37-8c.44-2.66.93-5.32,1.27-8l1.08-8,.84-8.06q.33-4,.59-8.07l.15-4c0-1.35.06-2.7,0-4C3747.54,1463.12,3746.57,1468.41,3745.63,1473.69Z"/></g><path class="cls-50" d="M3689.47,1928.67c20.61,10.3,58.21-3.09,75.56-16.48s33-37.44,33-37.44S3719.69,1864.45,3689.47,1928.67Z"/><path class="cls-4" d="M3419.87,1667.65s70.4,13.4,111.27,55.64,41.56,103.72,27.13,141.84c-33.31,6.53-87.31,1.43-112.3-48.08C3419.69,1765,3441.16,1735.66,3419.87,1667.65Z"/><g class="cls-54"><path class="cls-48" d="M3529.89,1793.19c-2-3.82-4.21-7.53-6.34-11.29l-3.36-5.53c-1.11-1.85-2.27-3.68-3.44-5.49-2.32-3.64-4.75-7.21-7.18-10.78s-5-7-7.61-10.48c-5.2-6.89-10.63-13.6-16.39-20s-11.73-12.66-18-18.59a186.17,186.17,0,0,0-19.87-16.48c6.15,6,12,12.25,17.62,18.66s11.11,13,16.42,19.61c10.52,13.38,20.47,27.2,29.6,41.54q6.9,10.73,13.22,21.81c1.05,1.85,2.15,3.68,3.15,5.55l3.08,5.59c1.05,1.85,2,3.76,3,5.64s2,3.75,3,5.65c7.74,15.19,14.79,30.74,21.49,46.56a301.26,301.26,0,0,0-17-48.71C3537.79,1808.54,3534,1800.77,3529.89,1793.19Z"/><path class="cls-50" d="M3460.5,1764.93c-14.72-61-51.85-123.31-51.85-123.31s-14,149.23-7.71,180.76,30.13,36.43,49.75,51.15,110.7,17.51,124,16.81,26.62-23.82,15.41-68.66C3555.78,1871.43,3475.21,1825.89,3460.5,1764.93Z"/></g><path class="cls-50" d="M3421.93,1915.28s39.15,65.94,127.07,45.68C3527.71,1908.41,3476.88,1906.35,3421.93,1915.28Z"/><polygon class="cls-5" points="3648.08 2134.58 3648.08 2134.36 3645.58 2134.47 3643.09 2134.36 3643.09 2134.58 3512.12 2140.59 3559.52 2637.03 3643.09 2637.03 3648.08 2637.03 3731.65 2637.03 3779.05 2140.59 3648.08 2134.58"/><g class="cls-55"><g class="cls-56"><path class="cls-40" d="M3632.62,2498.17c-46.24,57.45-142.93,16.81-142.93,16.81s-1.4,127.52,0,131.72,270.45-5.6,270.45-5.6l53.24-505.86-109.29,12.61S3678.86,2440.71,3632.62,2498.17Z"/></g><rect class="cls-40" x="3495.28" y="2143.71" width="299.36" height="46.15"/></g><rect class="cls-5" x="3483.43" y="2116.89" width="320.57" height="44.9" rx="22.45"/><rect class="cls-57" x="765.74" y="2620.85" width="3148.53" height="41.7" rx="20.85"/><path class="cls-50" d="M3039.81,1856.33c-30.73,28.17-17.28,60.82-17.28,60.82s26.88,33.29,32,65.3.64,62.73.64,62.73,7-3.84,81.3-32.65C3140.32,1958.12,3111.51,1905,3039.81,1856.33Z"/><path class="cls-4" d="M2439.47,1841s-55-107.49-165-76.87c10,26.25-5,75.62-5,75.62,71.87-7.5,125.61.63,161.23,36.25C2445.72,1854.73,2439.47,1841,2439.47,1841Z"/><g class="cls-58"><g class="cls-59"><path class="cls-50" d="M2389.07,1767.19s12.14,52-11.52,58.85-124.25,9.65-124.25,9.65L2258,1846s82.21,8.41,98.09,10.59,63.52,6.23,63.52,6.23,5-17.75,5.92-33.64-6.85-32.38-10-36.43S2389.07,1767.19,2389.07,1767.19Z"/></g><g class="cls-23"><path class="cls-24" d="M2387.84,1789c-14.48-4.7-29.64,2-33.86,15s4.09,27.36,18.57,32.06,29.63-2,33.85-15S2402.31,1793.65,2387.84,1789Z"/></g></g><path class="cls-4" d="M2971,1832.49s-15.37,23.52-8.17,55.69c60-20.16,101.79,25.45,101.79,25.45s2.88-37.45,17.28-73.94C3022.37,1792.64,2971,1832.49,2971,1832.49Z"/><rect class="cls-6" x="2598.42" y="1710.38" width="11.52" height="77.14"/><rect class="cls-6" x="2788.87" y="1710.38" width="11.52" height="77.14"/><path class="cls-15" d="M2651.28,1597.78a109.72,109.72,0,0,1-16.88,31.11c-11.92,15.23-11.92,36.74-11.92,65.21s-5,34.75,7.28,44S2696,1752,2747.92,1748s11.59-101.27,7.61-136S2651.28,1597.78,2651.28,1597.78Z"/><path class="cls-13" d="M2803.59,1678.37H2596.18a21.77,21.77,0,0,0-21.76,21.77h0a21.76,21.76,0,0,0,21.76,21.76h207.41a21.76,21.76,0,0,0,21.77-21.76h0A21.77,21.77,0,0,0,2803.59,1678.37Z"/><path class="cls-15" d="M2752.39,1678.62c-19.53-7.61-67.85-2.31-85.06,3.64s-67.29,45.3-29.46,63.22c25.16,11.91,93.34,11.58,103.6-1.33S2771.92,1686.23,2752.39,1678.62Z"/><rect class="cls-6" x="2401.9" y="1782.08" width="595.98" height="362.97" rx="28.17"/><g class="cls-60"><path class="cls-13" d="M2379.81,1829.45S2408,1972.2,2697.33,1972.2s325.2-138.27,325.2-138.27v-76.82H2388.77Z"/><rect class="cls-61" x="2652.21" y="1949.8" width="89.3" height="46.09" rx="11.84"/></g><path class="cls-50" d="M2313.44,1867.85l-14.16,12.09c-26.64,52.49-16.26,56.92,18.84,130-10.73-31.65,7.41-58.52,30.73-80.22C2305.11,1901,2313.44,1867.85,2313.44,1867.85Z"/><path class="cls-50" d="M2318.12,2009.94a75,75,0,0,0,7,14.77C2322.68,2019.49,2320.35,2014.58,2318.12,2009.94Z"/><path class="cls-4" d="M2313.44,1867.85s-49,8.75-61.45,85.62,13.12,118.74,13.12,118.74,15.63-31.87,85-27.5C2302.61,1961.6,2275.53,1918.47,2313.44,1867.85Z"/><g class="cls-62"><g class="cls-23"><ellipse class="cls-24" cx="2265.56" cy="1960.41" rx="19.27" ry="40.64"/></g></g><path class="cls-7" d="M2843.9,933.69c-25.32-19.86-26.31-42.7-26.31-42.7s-68,19.37-86.88,91.35-49.64,323.2-62.55,424.47-36.24,168.8-29.79,184.68,7,23.34,34.26,24.33,75-3.47,75-3.47,61.06-112.7,61.06-123.62S2843.9,933.69,2843.9,933.69Z"/><g class="cls-63"><path class="cls-64" d="M2756.82,1113.57c-12.14,192.44,0,336.31-3.73,381.15s-50.45,134.52-48.58,137.32,38.3,13.08,41.1,9.34,70.07-118.64,70.07-118.64l32.69-651.12-60.72-15C2787.65,861.34,2769,921.13,2756.82,1113.57Z"/></g><path class="cls-8" d="M3234.12,2411s29.12,34.09,21.51,61.56-12.25,53.28-52,77.78-37.07,62.55-24.16,66.19,108.23,0,131.06,0,47.66-24.16,71.82-84.07,33.76-118.48,24.49-136.69-60.89-17.54-84.72-47.33C3289.39,2379.2,3234.12,2411,3234.12,2411Z"/><g class="cls-65"><path class="cls-66" d="M3396.21,2379.12s1.49,38.48-12.16,89.12-38.23,113.68-70,121.63-148,7-148,7l3,25.32h171.28l54.61-73.48,24.33-126.59-15.89-53.13Z"/><path class="cls-24" d="M3267.25,2547.69l-.86-.73-.91-.66q-1.83-1.31-3.71-2.57a33.24,33.24,0,0,0-3.9-2.3c-1.34-.71-2.67-1.42-4-2.07s-2.81-1.14-4.22-1.7c-.71-.28-1.41-.57-2.14-.79l-2.19-.65-2.19-.62a21.74,21.74,0,0,0-2.22-.54l-4.49-.84c-1.51-.18-3-.34-4.54-.47l-1.13-.1-1.15,0c-.76,0-1.52,0-2.28,0-1.51,0-3,.08-4.55.18a44.31,44.31,0,0,0-17.41,4.64,132.09,132.09,0,0,1,17.41.37c2.84.23,5.65.59,8.45,1,1.39.25,2.79.43,4.17.68l4.15.86c.69.12,1.38.29,2.06.47l2.05.54,2.06.49c.69.16,1.35.43,2,.61,1.36.4,2.71.83,4.09,1.2s2.67,1,4,1.41l2,.68c.69.21,1.33.53,2,.78,1.34.53,2.69,1,4.06,1.55,2.73,1,5.36,2.3,8.25,3.26-1-1.08-2.13-2.09-3.25-3.1C3268.38,2548.68,3267.81,2548.19,3267.25,2547.69Z"/><path class="cls-24" d="M3277,2514.38a67.28,67.28,0,0,0-7.16-4.51c-1.25-.66-2.49-1.35-3.77-2s-2.59-1.13-3.89-1.69-2.64-1-4-1.48-2.68-.93-4.06-1.28a72.58,72.58,0,0,0-16.75-2.71,48.77,48.77,0,0,0-16.82,1.91c5.58.9,10.9,1.92,16.19,3.07s10.49,2.4,15.65,3.89c1.3.31,2.57.77,3.85,1.14s2.59.73,3.86,1.17,2.55.84,3.85,1.22l3.83,1.32c2.6.8,5.1,1.84,7.73,2.69s5.16,1.94,7.92,2.71c-1-1-2.06-1.93-3.13-2.85A38,38,0,0,0,3277,2514.38Z"/><path class="cls-24" d="M3281,2477.21a81.16,81.16,0,0,0-13-5.75,71.52,71.52,0,0,0-13.89-3.32c-1.19-.14-2.39-.26-3.58-.35s-2.4-.12-3.61-.09a33.8,33.8,0,0,0-3.62.21,21.06,21.06,0,0,0-3.58.66c2.31.72,4.52,1.46,6.72,2.22L3253,2473l12.95,4.49c4.33,1.45,8.66,3,13.09,4.32,2.21.69,4.42,1.39,6.7,2a63.64,63.64,0,0,0,7,1.64,61.4,61.4,0,0,0-5.62-4.49C3285.1,2479.64,3283.09,2478.37,3281,2477.21Z"/></g><path class="cls-8" d="M2560.92,2401.71,2553,2417.6s-56.6,13.9-109.22-17.87-112.2,5-103.26,60.56,74.46,109.22,131.06,130.07,147,40.71,185.68,18.87,32.76-95.32,29.78-119.15-5.95-73.48-5.95-73.48Z"/><g class="cls-67"><path class="cls-66" d="M2533.12,2554.62c-70.5-41.7-92.34-117.16-140-130.07s-58.58,11.91-72.48,54.61l-13.9,45.67s38.72,57.59,54.61,70.5,207.52,48.65,309.79,20.85C2698,2565.54,2603.62,2596.32,2533.12,2554.62Z"/><path class="cls-24" d="M2463.27,2389.39v.1c.13.15.25.31.38.45Z"/><path class="cls-24" d="M2465.46,2388.71l-.23-.47-.15-.08c-.71-.38-1.46-.73-2.19-1.09s-1.49-.68-2.25-1c.47.68,1,1.35,1.47,2l1.16,1.44v-.1l.38.55c-.13-.14-.25-.3-.38-.45a101.88,101.88,0,0,1-.24,12.36c-.31,4.11-.81,8.19-1.46,12.26-.42,2-.67,4.07-1.16,6.09-.23,1-.39,2.05-.62,3.06s-.49,2-.71,3.07l-.33,1.55-.4,1.53c-.26,1-.51,2.07-.73,3.13-.5,2.09-1.08,4.17-1.45,6.41.76-.82,1.46-1.68,2.15-2.55.35-.43.7-.87,1-1.32a15.9,15.9,0,0,0,1-1.36c.59-.93,1.16-1.88,1.72-2.85l.84-1.44.71-1.51c.48-1,.93-2,1.38-3s.77-2.09,1.13-3.15a29.79,29.79,0,0,0,1-3.22c.26-1.08.55-2.17.77-3.27a51.51,51.51,0,0,0,.84-13.41A36.63,36.63,0,0,0,2465.46,2388.71Z"/><path class="cls-24" d="M2507.51,2423.76a46.76,46.76,0,0,0-4.27-14.22,31.74,31.74,0,0,0-9.09-11.55,107.45,107.45,0,0,1,4.39,13.33,111.33,111.33,0,0,1,2.63,13.28c.16,1.11.23,2.24.36,3.36l.2,1.68c0,.57.05,1.13.09,1.69l.25,3.41c0,1.13,0,2.28.09,3.42,0,.58.05,1.16.09,1.74l0,1.73c0,1.16,0,2.33,0,3.51,0,2.35-.12,4.72.07,7.21.6-1.07,1.12-2.17,1.63-3.28a31.17,31.17,0,0,0,1.4-3.4c.36-1.17.71-2.34,1-3.53.17-.59.32-1.18.47-1.78s.22-1.21.31-1.82c.19-1.21.38-2.43.53-3.66s.13-2.46.18-3.7c0-.62,0-1.24,0-1.85l-.1-1.86C2507.73,2426.23,2507.67,2425,2507.51,2423.76Z"/><path class="cls-24" d="M2550,2429.06c-.82-3-1.62-6-2.7-8.93a98.28,98.28,0,0,0-7.72-16.93,68.94,68.94,0,0,0-11.16-14.89l6.63,17.06c2.18,5.61,4.26,11.22,6.21,16.88l.77,2.11.69,2.13,1.44,4.25c.87,2.86,1.88,5.69,2.71,8.58,1.88,5.74,3.37,11.57,5.39,17.5a72.83,72.83,0,0,0-.48-18.6C2551.39,2435.12,2550.65,2432.1,2550,2429.06Z"/></g><path class="cls-9" d="M2782.84,1478.3l-11.42,25.32s-61.56,135.53-123.12,332.13-99.29,448.8-107.24,583.83c86.39,7,148.94,25.82,148.94,25.82s18.87-94.33,72.48-249.22,47.66-193.62,60.57-219.44,85.39-147.94,85.39-147.94,20.85,140,49.65,179.72,267.09,412.06,267.09,412.06,71.49,26.8,109.22-79.44c-48.65-150.92-81.42-242.27-111.2-314.75s-70.5-62.55-66.53-165.82,24.08-178.22,18.87-319.71C3099.58,1493.2,2782.84,1478.3,2782.84,1478.3Z"/><g class="cls-68"><path class="cls-69" d="M3217.38,1544.23,2851.64,1526s28,72.87,84.08,145.73,102.29-47.64,158.34-11.21-4.2,207.39,32.23,299.88,192,477.83,192,477.83,140.12,95.29,75.67-91.08S3217.38,1544.23,3217.38,1544.23Z"/><path class="cls-10" d="M2739.15,1424.68s117.66,129.58,143,218.94,26.31,185.18,26.31,185.18-23.33,208-23.33,227.38-177.24,423-183.19,423-183.2-13.41-183.2-13.41l32.77-475.1Z"/><g class="cls-70"><path class="cls-71" d="M2904.89,1640.92s-29.42,183.56-70.06,250.82-57.45,89.69-68.66,189.18-117.71,399.36-117.71,399.36,56.05,5.61,67.26-9.81,133.12-456.81,133.12-456.81,110.7-144.34,103.7-213S2904.89,1640.92,2904.89,1640.92Z"/></g><path class="cls-24" d="M3331.12,2423.86c-.69-2-69-200.75-110.17-308.16-22-57.27-49.47-97.46-71.57-129.75-20-29.22-34.44-50.33-35.92-71-2.9-40.58,21.56-317.61,23.72-341.9l-48.48-80.8,6.86-4.11,49.82,83-.12,1.3c-.26,3-26.74,301-23.82,341.91,1.32,18.49,15.26,38.85,34.55,67,22.33,32.63,50.13,73.24,72.43,131.39,41.25,107.55,109.58,306.44,110.26,308.43Z"/></g><path class="cls-11" d="M3063.83,843.58s28.3-1.24,76.71-.49,85.63,11.91,91.59,169.78-56.59,528-56.59,528-299.37,56.59-406.6-40.22c-7.45-230.85,7.45-388.72,10.42-484s28.3-126.1,57.1-133.55,64-32.76,64-32.76Z"/><g class="cls-72"><path class="cls-73" d="M3178.84,1034.17c-14-27.1-54.18-90.62-54.18-90.62l-1.87-6.54s-3.74,94.35-82.21,142-284.92,195.24-258.77,230.74,79.41,290.53,79.41,290.53,382.08-117.71,378.34-128S3192.85,1061.26,3178.84,1034.17Z"/><path class="cls-24" d="M2940.93,957.58a48.24,48.24,0,0,0-1.62-11.69c-.77-3.23-1-6.56-1.84-9.76-1.34-5.35-4.82-9.26-9.56-11.92-1.5-.85-3.86,2.17-2.13,3.18,6.74,4,7.71,9.5,9,16.67.7,4,2.05,7.9,2.25,12,.15,3.25-.22,6.46.07,9.71,1.34,15.09.94,30.46.56,45.61-.41,16.06-1.14,32.21-2.36,48.23-1.15,15.17-3.17,30.3-3.06,45.53,0,2.71,4.18.29,4.22-1.79.3-17,2.7-33.79,3.67-50.72.92-16.17,1.83-32.36,2-48.55.06-7.81,0-15.61-.06-23.41S2940.88,965.28,2940.93,957.58Z"/><path class="cls-24" d="M2924.83,923c-4-.51-6.6,3.22-8.45,6.23a71.66,71.66,0,0,0-7.61,17.63c-4.16,13.61-7.91,27.43-10,41.52s-6.35,27.54-8.75,41.51c-2.48,14.44-3.36,29.43-7.12,43.59-2,7.65-2.29,15.9-3.39,23.74-.53,3.86-1,7.72-1.41,11.6s-1.29,7.5-1,11.27c.24,2.79,4.11.17,4.15-1.77.18-8.33,2.07-17,3.23-25.22s2.06-16.22,4-24.3c1.84-7.68,2.43-15.75,3.57-23.56,1.24-8.53,2.58-17,4.27-25.51,1.65-8.25,4.26-16.29,5.86-24.53,1.43-7.32,2.28-14.73,3.87-22,1.91-8.75,4.27-17.4,6.85-26,1-3.42,1.84-7.17,3.32-10.42.82-1.8,4.45-10,7-10C2925,926.74,2927.4,923.3,2924.83,923Z"/></g><path class="cls-5" d="M3476.81,924.43a49.2,49.2,0,0,0-67.31-17.62l-619.83,362.73a49.19,49.19,0,0,0-17.61,67.31l177.13,302.69a49.2,49.2,0,0,0,67.31,17.62l619.83-362.73a49.19,49.19,0,0,0,17.62-67.31Z"/><rect class="cls-12" x="2801.53" y="1072.2" width="816.56" height="449.11" rx="49.2" transform="matrix(0.86, -0.51, 0.51, 0.86, -215.45, 1798.75)"/><g class="cls-74"><circle class="cls-75" cx="2861.75" cy="1348.95" r="44.89" transform="translate(-218.17 2072.4) rotate(-38.46)"/><circle class="cls-21" cx="2910.4" cy="1320.48" r="44.89" transform="translate(32.31 2709.97) rotate(-50.17)"/><path class="cls-75" d="M3003.06,1544.36c-8.25-1.85-17.83.24-29.13,6.85a130.84,130.84,0,0,0-16,11.06l35.08,59.94a147.81,147.81,0,0,0,14.7-7.64c11.85-6.93,19.45-15.51,21.81-24.54s.73-18.87-5.09-28.81S3011.39,1546.16,3003.06,1544.36Zm2.51,63a58.73,58.73,0,0,1-8.22,4.21l-28.15-48.1a51.48,51.48,0,0,1,8.75-6.21c16.63-9.74,30.11-5.37,38.43,9.06C3026,1582.76,3022.38,1597.5,3005.57,1607.34Z"/><polygon class="cls-75" points="3057.35 1575.95 3044.49 1553.98 3068.18 1540.12 3064.37 1533.61 3040.68 1547.47 3029.41 1528.21 3054.45 1513.56 3050.59 1506.96 3017.68 1526.22 3053.34 1587.15 3087.61 1567.1 3083.75 1560.5 3057.35 1575.95"/><path class="cls-75" d="M3097.05,1486c-5.52-1.14-12.28.39-20.05,4.94a104.35,104.35,0,0,0-14.41,10l35.23,60.21,7.87-4.6-14.29-24.41a31.67,31.67,0,0,0,6.65-3.16c7.68-4.5,13.14-10.73,14.71-17.59,1.22-5,.31-10.26-2.92-15.77S3102.09,1486.9,3097.05,1486Zm-2.52,36.55a30.21,30.21,0,0,1-6.88,3.18L3073.79,1502a38.11,38.11,0,0,1,7-5c8.68-5.08,16.65-4.52,21.36,3.52C3107.11,1509,3104,1517,3094.53,1522.51Z"/><polygon class="cls-75" points="3152.33 1456.4 3148.41 1449.71 3103.3 1476.11 3107.22 1482.8 3125.75 1471.96 3157.49 1526.2 3165.45 1521.55 3133.7 1467.3 3152.33 1456.4"/><path class="cls-5" d="M3425.17,975.81l-313.93,183.71a14.85,14.85,0,0,0,15,25.63l313.94-183.72a14.84,14.84,0,1,0-15-25.62Z"/><path class="cls-5" d="M3584.46,1244.39l-313.94,183.72a14.85,14.85,0,0,0,15,25.63L3599.46,1270a14.85,14.85,0,0,0-15-25.63Z"/><g class="cls-76"><path class="cls-77" d="M3150.11,990.26l-43,69.13s50.45,85.94,67.26,196.18,29.9,304.54,29.9,304.54,57.92-52.31,80.34-91.55-8.94-389.91-8.94-389.91Z"/></g><g class="cls-78"><polygon class="cls-24" points="2987.57 1001.47 3052.96 1718.92 3202.43 1718.92 3131.43 908.05 2987.57 1001.47"/></g><g class="cls-78"><polygon class="cls-24" points="3294.91 873.95 3360.31 1591.4 3464.47 1591.4 3393.47 780.53 3294.91 873.95"/></g></g><path class="cls-15" d="M3205.65,1523s-42.69,18.87-53.61,34.09-19.53,38.73-28.47,50.64-10.26,32.11,28.47,25.49,52.62-5,70.16-17.88,62.56-86.38,62.56-86.38l-75.8-10.59Z"/><path class="cls-7" d="M3156.67,873.62c28.74-20.65,50.14-21.85,83.9,35.74s107.73,226.39,119.65,276-25.82,259.15-74.47,342.56c-28.8,7-78.44,7.94-80.43-8-1-59.57-2-209.5,10.93-271.06s-63.55-158.87-81.42-209.51S3106.69,909.53,3156.67,873.62Z"/><g class="cls-79"><path class="cls-64" d="M3181.88,1058.45c-65-99.38-81.79-177.48-85.75-202.58-4.75,24.24-18,91.92-18,94.22,0,2.8,123.31,277.45,123.31,277.45l-48.57,311.08,72.86,30.83s9.35-108.36,4.67-238.21S3261.28,1179.9,3181.88,1058.45Z"/><path class="cls-64" d="M3095,847.33s.25,3,1.13,8.54l1.67-8.54Z"/></g><path class="cls-14" d="M2933.43,912s-34.59-68.84-35.08-68.84-22.18-10.1-27.8,7.28c-13.41-4-27.64,2.32-29.46,21.35-10.59,6-14.23,14.06,14.07,30.12s66.69,29,66.69,29Z"/><g class="cls-80"><g class="cls-81"><path class="cls-82" d="M2891,830.2s-13.07.31-2.49,26.47,38.93,62.9,38.93,62.9L2911,833Z"/></g><g class="cls-81"><path class="cls-82" d="M2850.86,862.28c-12.76-15.57-8.09-21.49-8.09-21.49l-10,5.29,7.48,24,73.8,50.14S2863.63,877.85,2850.86,862.28Z"/></g></g><path class="cls-14" d="M2923.34,930.21c0-1.48-2.49-10.92,6.95-27.3s62.55-81.42,73.47-88.87,26.31-7.94,29.95-1c17.05-4.47,30.79-2.81,34.76,15.23,30.12,9.76,9.76,30.28-24.66,47.82S2923.34,930.21,2923.34,930.21Z"/><g class="cls-83"><g class="cls-81"><path class="cls-82" d="M3024.47,806.22s7.47,21-9.81,37.84-73.34,74.27-73.34,74.27,87.82-64,93.42-81.74,5.61-27.1,5.61-27.1l4.67-7-.93-1.87Z"/></g><g class="cls-81"><path class="cls-82" d="M3069.15,830.2s-1.55,17.75-20.55,31.45-78.78,55.12-78.78,55.12,100.27-41.1,100.89-44.22,22.11-26.47,21.8-29.89-14.64-32.08-14.64-32.08Z"/></g></g><path class="cls-15" d="M2988.87,765.39c.66,1.32,5.46,75,5.46,75l-69.5,78.93L2898,862.2l.49-70.5,63.55-31.77Z"/><g class="cls-84"><g class="cls-33"><path class="cls-34" d="M2972.31,750.8l-65.71,32.38-30.2,61s69.75-16.5,118.64-59.47C2984.45,757,2972.31,750.8,2972.31,750.8Z"/></g></g><path class="cls-16" d="M2866.49,658.9l-18.62-22.26s-5.29-41.7-6.61-69.83,5.95-49.65,87.37-44.35,127.43,5,142.65,34.75-12.91,136-34.75,162.84-38.39,62.88-47.66,60.23-38.39-43.35-38.39-43.35Z"/><g class="cls-85"><path class="cls-86" d="M2990.68,608.18c-14-36.75-72.87-2.49-118.33,4.36s-48.73-26.08-48.73-26.08-7.63,44.76-3.27,59.71,97.78,47,165.35,145.42c42.66,13.39,66.64-43.91,88.43-102.14C3028.36,717.48,3004.69,644.92,2990.68,608.18Z"/><path class="cls-86" d="M3004.09,515.68c-8.39-.36-17-.82-25.38.17-7.28.87-14.32,0-21.5,1.46-3.19.64-6.81.57-10.08,1-4,.53-8,1.12-12,1.49-8.78.83-17.57.43-26.35.87-4.07.21-7.86,1.26-11.85,1.89-3.36.54-6,1.79-9.26,2.67s-6.52,1.34-9.62,2.92a47.07,47.07,0,0,0-8.42,5.64,35.41,35.41,0,0,0-11.5,15.52c-2.93,7.42-5.4,14.94-6.09,22.95-.41,4.77.46,9.21.83,13.92s.63,9.19,1.35,13.84a254.62,254.62,0,0,0,5.82,25.56,1.11,1.11,0,0,0,.94.64l.88.11c1.41.17,3.68-2.84,1.82-3.37-1-.3-1.56-7.66-1.8-8.83-.79-3.76-1.75-7.43-2.3-11.23-1.1-7.63-1.39-15.28-2.41-22.89-1.08-8,.47-16.55,3-24.21,2.33-7.1,5-13,10.79-17.88a36.87,36.87,0,0,1,8.74-5.89c3.14-1.4,6.65-1.57,9.87-2.73a64.56,64.56,0,0,1,20.94-3.81c7.65-.09,15.28-.22,22.91-.79,6.81-.52,13.47-2,20.32-2.27,3.42-.16,6.47-1.43,10-1.34a81.35,81.35,0,0,0,10.12,0c9.49-.94,18.87-.64,28.39-1C3004.32,520.08,3007.07,515.81,3004.09,515.68Z"/><path class="cls-86" d="M3049.7,497.23c-7.5,2-15.4,1.24-23,2.63-4.08.74-8.06,1.87-12.07,2.93s-8.35,1-12.47,2c-7.88,1.92-15.61,4.25-23.37,6.63-8.15,2.51-16.17,5.54-24.33,8-7.47,2.23-14.15,6-20.94,9.83-2.6,1.45-5.58,2.73-7.91,4.62-1.54,1.25-2.41,2.78-3.75,4.22s-3.18,2.62-4.66,4c-4.92,4.71-10.15,10.33-13.5,16.27-3.63,6.45-6,13.82-8.76,20.69-1.68,4.22-1.73,8.6-3.24,12.86-1.38,3.9-1.44,7.75-1.87,11.82-.39,3.7-.73,6.75.09,10.44.76,3.37.31,6.35,3,8.85,1.49,1.37,4.46-1.63,3-3.06-2-2-1.79-5.87-2.25-8.65-.64-3.81.24-7.58.53-11.39a42.06,42.06,0,0,1,2.58-10.65c1.21-3.53,1-7.11,2.45-10.64,2.74-6.6,5-13.87,8.73-20,1.63-2.68,3.82-4.68,5.83-7a66.59,66.59,0,0,1,7.91-8.28c2.42-2,4.33-4.83,6.86-6.59a86.34,86.34,0,0,1,10.4-5.66c3.1-1.56,6.09-3.54,9.27-4.91,3.36-1.45,7.05-2.14,10.51-3.34,14.16-4.92,28.61-9.78,43.26-13,4.14-.92,8.34-.92,12.47-2s8-2.11,12.11-2.84c7.65-1.36,15.55-.71,22.92-3.48C3051.35,500.81,3052.62,496.45,3049.7,497.23Z"/><path class="cls-86" d="M3106.76,534.94c-15.75-3-30.71-8.62-47-8.86-7.81-.12-15.71,1.14-23.42,2.26-8,1.15-16.26,2.23-24,4.45-6.75,1.93-13.1,4.87-19.56,7.55-3.42,1.42-7.06,2.29-10.45,3.75-3.11,1.35-5.71,3.54-8.8,4.95a24.52,24.52,0,0,0-6.44,4.09c-2.93,2.62-6.17,4.74-9.19,7.25-4.74,4-8.78,9-12.6,13.79-4.88,6.14-10.89,12.15-14.53,19.14-1.55,3-1.82,6.2-3.33,9.13a18.94,18.94,0,0,0-2.09,8.59c0,2.2,3.57.5,3.67-1.12.25-4,2.77-6.45,3.8-10,.66-2.29.8-4.21,2.06-6.37a40,40,0,0,1,3.89-5.33c5.31-6.4,10.63-12.78,16.08-19a53.77,53.77,0,0,1,9.61-8.46c3.23-2.32,5.88-5.21,9.51-6.89s6.68-4.1,10.28-5.42,7.53-2.49,11.23-4c8.22-3.43,16.11-6.47,24.93-8q14.1-2.43,28.28-4.11c19.26-2.29,37.23,4.87,56,7.66C3107.17,540.25,3109.94,535.55,3106.76,534.94Z"/><path class="cls-86" d="M3087.73,587.84a56.85,56.85,0,0,0-15.5-10.83c-12.64-5.85-27-6.36-40.57-4-7.29,1.26-14.77,2.87-21.62,5.71-5.88,2.45-12.47,4.13-17.55,8.06-5.82,4.51-11.9,8.86-16.68,14.51-2.19,2.6-4.8,5.24-6.38,8.28-1.31,2.51-1.07,4.81-.82,7.56.21,2.31,3.43.17,3.44-1.46,0-2.82.27-4.54,2-6.86,1.15-1.52,2.52-2.93,3.78-4.36a63.39,63.39,0,0,1,8.38-7.83c2.79-2.19,5.61-4.49,8.53-6.51s6.38-3,9.79-4.25c15.33-5.72,31.37-10.51,48-8.32,13.93,1.84,29.82,9,35.78,22.4,1.45,3.27,3.17,6.14,3.63,9.78a37.43,37.43,0,0,1-.37,11.18,36,36,0,0,1-4,11.23c-1.61,3-3.12,5.85-3.41,9.28-.27,3.15,3.84,1.35,4.26-.78.71-3.65,2.77-6.54,4.49-9.75a36,36,0,0,0,3.32-9.39c1.26-5.7,1.81-12.4.09-18C3094.62,598,3091.84,591.83,3087.73,587.84Z"/><path class="cls-86" d="M3035.54,616.06A91.43,91.43,0,0,0,3017,620a47.76,47.76,0,0,0-7.9,3.7c-2.45,1.25-5.2,1.92-7.37,3.68-1.89,1.54-3,3.72-4.62,5.53a64.77,64.77,0,0,0-4.7,5.49c-3.1,4.41-5.15,9.22-5.27,14.65,0,2.06,3.21.39,3.37-1,.62-5.58,3.59-10.69,7.49-14.64,1.37-1.4,2.63-2.77,3.89-4.26,2-2.39,3.94-3.23,6.69-4.41,2.17-.94,4.1-2.32,6.29-3.2a59,59,0,0,1,8.29-2.26,65,65,0,0,1,18.37-2,79.79,79.79,0,0,1,30,7.11c9.79,4.58,17.89,10.89,26.26,17.6,1.89,1.51,5.21-1.8,3.63-3.67C3086,624,3059.12,613.91,3035.54,616.06Z"/><path class="cls-86" d="M3081.05,650c-5.07-.28-9.87-2.12-15-.93a36.09,36.09,0,0,0-5.58,2.1c-2.72,1.12-5.63,1.8-8.26,3.11-4.4,2.18-8,5.94-11.62,9.2-4.2,3.8-8.26,7.61-11.24,12.48-2.51,4.11-5.78,8.6-7.44,13.11-1.2,3.25-2,6.43-3.34,9.65-1.87,4.51-4.45,12.32,2.33,13.69,1.37.28,3.41-2.49,1.72-3.19-5.17-2.12.29-10.6,1.7-13.88s2.12-6.8,4.19-10c2.17-3.35,3.91-7,6.27-10.22,2.75-3.78,6.55-6.84,10-9.91,3.65-3.22,6.86-6,11.53-7.65,3.93-1.36,7.93-3.63,12.17-3.64,3.78,0,7.34,1.23,11.14.64C3081.5,654.29,3084,650.16,3081.05,650Z"/></g><path class="cls-15" d="M2847.87,636.64s-.33,56.27-.33,110.88,31.78,81.42,81.09,55.27,58.25-67.19,58.25-67.19,26.15-3.31,25.49-35.41S2980.26,667.42,2971,679c-2-30.78-7.95-60.24-35.09-59.91S2883.29,640.28,2847.87,636.64Z"/><g class="cls-87"><g class="cls-33"><path class="cls-34" d="M2951.78,713.39a19.79,19.79,0,1,0,19.45,20.13A19.78,19.78,0,0,0,2951.78,713.39Z"/></g><g class="cls-33"><path class="cls-34" d="M2841.43,711a19.79,19.79,0,1,0,19.45,20.13A19.78,19.78,0,0,0,2841.43,711Z"/></g><path class="cls-88" d="M2880.42,700.83a90.1,90.1,0,0,1-5.26,15,15.84,15.84,0,0,1-.9,1.68l-.47.82-.55.91c-.36.61-.73,1.21-1,1.85a21.4,21.4,0,0,0-1,1.92,20.71,20.71,0,0,0-2.07,8.5,7.15,7.15,0,0,0,.07,1.13,10.55,10.55,0,0,0,.12,1.13A11.67,11.67,0,0,0,2870,736c.15.35.28.7.45,1l.57,1,.29.48.35.43.7.85a17.06,17.06,0,0,0,7.18,4.31,21,21,0,0,1-5.77-5.43,10.5,10.5,0,0,1-1.72-7,21,21,0,0,1,2.34-7.12c.27-.57.61-1.14.93-1.7s.66-1.12,1-1.67l.52-.83.55-.95c.36-.63.76-1.25,1.05-1.9a59.61,59.61,0,0,0,4.76-16,82.3,82.3,0,0,0,1.22-16.43C2883.12,690.34,2881.82,695.62,2880.42,700.83Z"/><g class="cls-33"><path class="cls-34" d="M2982.31,706.67s-2.15-11.48,6.48-16.43c-9.1.26-16,17.92-8.6,27.42s15.08-3.6,11.7-7.52S2982.31,706.67,2982.31,706.67Z"/></g><path class="cls-88" d="M2900.28,766a35.46,35.46,0,0,1-9.37-.08,87.85,87.85,0,0,1-9.95-2.26,21.25,21.25,0,0,0,8.82,6.42A22.84,22.84,0,0,0,2901,771.4a24.58,24.58,0,0,0,10.46-4,21.42,21.42,0,0,0,7.27-8.1,84.58,84.58,0,0,1-9.29,4.3A40.9,40.9,0,0,1,2900.28,766Z"/><path class="cls-89" d="M2923.7,682.06c-4.57-.07-8.35,4.72-8.45,10.72s3.51,10.92,8.07,11,8.35-4.72,8.45-10.72S2928.26,682.14,2923.7,682.06Z"/><path class="cls-89" d="M2865.76,679.43c-4.32-.07-7.9,4.47-8,10.15s3.33,10.35,7.65,10.42,7.91-4.47,8-10.15S2870.08,679.51,2865.76,679.43Z"/><path class="cls-88" d="M2940.09,658.89a25.62,25.62,0,0,0-10.51-4c-1-.11-1.91-.22-2.88-.24a27.71,27.71,0,0,0-2.88.09,23.51,23.51,0,0,0-5.59,1.27,19.2,19.2,0,0,0-9,6.54c3.74-.38,7-.82,10.14-.91,1.57,0,3.1,0,4.62,0,.76.07,1.51.07,2.26.18s1.5.17,2.25.27a71,71,0,0,1,9.09,2c3.12.86,6.27,1.9,9.83,3a16.74,16.74,0,0,0-3.13-4.59A23.92,23.92,0,0,0,2940.09,658.89Z"/><path class="cls-88" d="M2876.4,657.94a11.61,11.61,0,0,0-6.19-3.08,10.28,10.28,0,0,0-7.18,1.44,8.21,8.21,0,0,0-3.78,5.78c2.44-.2,4.22-.42,5.75-.38a31.75,31.75,0,0,1,4.08.39c1.33.21,2.8.48,4.49.83s3.54.71,5.95,1a8.5,8.5,0,0,0-1.07-3.3A11,11,0,0,0,2876.4,657.94Z"/></g><g class="cls-42"><path class="cls-24" d="M1562.17,1670.14v-.23c9.42-3.33,13.76-10,13.76-17.12s-4.22-12.72-10-15.69c-6.07-3.45-13.14-4.52-24.67-4.52-9.42,0-19.46.72-24.41,1.67v78.68a151.18,151.18,0,0,0,20.45,1.19c16.61,0,26.77-2.61,32.84-7.25,5.21-4,8.68-9.75,8.68-17C1578.78,1679.53,1571.71,1672.64,1562.17,1670.14Zm-26.65-23.89a55.14,55.14,0,0,1,8.06-.47c8.55,0,13.38,3.21,13.38,9.27s-5.32,9.86-15.24,9.86h-6.2Zm7.32,54.44a61.62,61.62,0,0,1-7.32-.24v-22.58H1542c9.42,0,17,3.21,17,11.29C1559,1697.6,1551.39,1700.69,1542.84,1700.69Z"/><path class="cls-24" d="M1617.57,1633.18,1592,1713.29h19.58l6-20.56h23.92l6.45,20.56h20.32l-25.9-80.11Zm2.73,46,5-17c1.36-4.64,2.6-10.7,3.84-15.45h.25c1.24,4.75,2.72,10.7,4.21,15.45l5.21,17Z"/><path class="cls-24" d="M1738.17,1656.59a285.06,285.06,0,0,0,1.61,33.4h-.37a228.36,228.36,0,0,0-13.64-27.45l-17.35-29.36h-22.06v80.11h17.35v-24.13c0-13.07-.25-24.37-.74-34.94l.37-.12a292.4,292.4,0,0,0,14.5,28.29l17.85,30.9h19.83v-80.11h-17.35Z"/><path class="cls-24" d="M1845.75,1633.18h-23.18l-19,26.62c-1.86,2.86-3.85,5.71-5.71,8.8h-.37v-35.42h-18.71v80.11h18.71v-26.15l7.19-8.44,20.45,34.59h22.06l-29.12-46Z"/></g><path class="cls-15" d="M2647.8,1620.54c-25.72,2.78-36,21.59-39.47,43.44s-10.42,53.37-7.44,62.55,22.17,16.3,35.83-11.25,32.51-44.1,35.74-68.18S2657,1619.54,2647.8,1620.54Z"/><circle class="cls-24" cx="3315.47" cy="1724.53" r="28.96"/><g class="cls-90"><circle class="cls-24" cx="2677.42" cy="802.49" r="28.96"/></g><path class="cls-11" d="M3313.83,689.62a26.56,26.56,0,1,1,26.56-26.56A26.6,26.6,0,0,1,3313.83,689.62Zm0-48.11a21.56,21.56,0,1,0,21.56,21.55A21.58,21.58,0,0,0,3313.83,641.51Z"/><g class="cls-90"><circle class="cls-24" cx="2572.79" cy="690.39" r="53.25" transform="translate(-89.79 609.57) rotate(-13.28)"/></g><g class="cls-91"><circle class="cls-24" cx="3421.03" cy="1646.05" r="59.79" transform="translate(-249.55 676.64) rotate(-10.9)"/></g><g class="cls-81"><path class="cls-61" d="M3222.72,712.93a4.6,4.6,0,0,0-7.83-.53l-32,45.05a4.6,4.6,0,0,0,3.46,7.26l57.41,3.63a4.6,4.6,0,0,0,4.37-6.72Z"/><path class="cls-5" d="M3244.08,772.85l-.57,0-57.41-3.63a9.1,9.1,0,0,1-6.85-14.35l32-45.06a9.1,9.1,0,0,1,15.49,1.06l25.44,48.69a9.1,9.1,0,0,1-8.07,13.31Zm-29.19-60.45,3.67,2.6-32,45.06a.12.12,0,0,0,0,.15l57.45,3.64a.13.13,0,0,0,.12-.1L3218.74,715l0,0Z"/></g></g></svg>