<svg xmlns="http://www.w3.org/2000/svg" viewBox="0 0 4680 3120"><defs><style>.cls-1{isolation:isolate;}.cls-14,.cls-2{fill:#fff;}.cls-2{opacity:0;}.cls-3{fill:#b0dfe5;}.cls-4{fill:#001a30;}.cls-5{fill:#19554f;}.cls-6{fill:#336d67;}.cls-7{fill:#2a926e;}.cls-8{fill:#58c196;}.cls-9{fill:#5c9867;}.cls-10{fill:#85c18d;}.cls-11{fill:#5dbccd;}.cls-12{fill:#e43864;}.cls-13{opacity:0.32;}.cls-15{fill:#a91730;}.cls-16{fill:#c82e64;}.cls-17{fill:#f15f69;}.cls-18{fill:#fbc5a9;}.cls-19{fill:#f7a18a;}.cls-20{fill:#eb3d3f;}.cls-21{fill:#0166c2;}.cls-22{fill:#01408c;}.cls-23{fill:#d6d6d6;}.cls-24{fill:#b82b30;}.cls-25{fill:#f8ab30;}.cls-26{fill:#f88730;}.cls-27{fill:#a26b28;}.cls-28{fill:#f3907e;}.cls-29{fill:#002a5f;}.cls-30{fill:#b33b20;}.cls-31{fill:#992f17;}.cls-32{fill:#ff611d;}.cls-33{fill:#ff9839;}.cls-34{fill:#f4ad2e;}.cls-35{fill:#ffdd28;}.cls-36,.cls-39{mix-blend-mode:multiply;}.cls-37{fill:#ffd917;}.cls-38,.cls-43{opacity:0.5;}.cls-38{mix-blend-mode:screen;}.cls-39{opacity:0.7;}.cls-40{fill:#b366c2;}.cls-41{fill:#5b1e13;}.cls-42{fill:#f0efe4;}.cls-44{fill:#f3888a;}.cls-45{fill:#742619;}.cls-46{fill:#1e3549;}.cls-47{fill:#3e2312;}.cls-48{fill:#ef4623;}.cls-49{fill:#eef6f9;}.cls-50{fill:#2a3a91;}.cls-51{fill:#4c65ba;}.cls-52{fill:#3e479b;}.cls-53{opacity:0.4;}.cls-54{fill:#f7a9b4;}.cls-55{opacity:0.62;}.cls-56{fill:#e45f7c;}.cls-57{fill:#f0708d;}.cls-58{opacity:0.41;}.cls-59{fill:#25a6bb;}.cls-60{fill:#3faaeb;}</style></defs><title>03</title><g class="cls-1"><g id="_03" data-name="03"><rect id="_03-2" data-name="03" class="cls-2" width="4680" height="3120"/><path class="cls-3" d="M2977.28,458.24c-265.5,0-564.25,304.45-1276.55,19.43-503.2-201.35-879.7,306.75-796.3,669.7C1095.53,1979,850,1890.08,881.17,2249.9c18.62,214.9,153.92,455.07,795.62,328.85,417.21-82.06,770.35-66.71,1079.57-14.49,538.68,91,740.62,12.58,906.55-151.44,201.81-199.51,2.25-567.11-56-844.21S4063,458.24,2977.28,458.24Z"/><path class="cls-4" d="M3185.52,584.39c-28.38-66.28-57.72-143.75-113.39-196.18-19-17.92-42.75-28.3-71.06-28.21-51.22.16-78.84,30.39-82.89,34.81-5.34,3.27-76.47,19.49-61.33,99.39,7.59,40,14.42,89.9,22.29,129.76,12.81,65.49-11,256.18,0,293.51,7.87,26.85,94.41,52.38,124,62.23,63.59,21.06,149.4-2.78,204.84-32.94,59.76-32.54,69.37-86.27,55.44-144.07C3245.59,728.47,3215.79,655.19,3185.52,584.39Z"/><path class="cls-5" d="M1330.73,2180.47c-9.35-29.75-2.94-61.93-5.22-93a167.46,167.46,0,0,0-50.61-107.53c-33.94-32.51-82.05-51.15-106-91.61-18.91-32-18.9-71.78-33.46-106-26.78-62.89-95.74-94.69-158.87-120.91l-115.46-48c43.08,88.91,43,173.58,91.72,248.27,35.41,54.31,103.75,87.62,119.92,150.41,7.77,30.17,1.69,62,3.86,93.11a175.75,175.75,0,0,0,29.83,86.08c33.19,48.82,88.85,78,125.5,124.28,47.72,60.25,72.76,160.21,77.75,236.25,1.21,18.36,2.81,37.58,12.75,53s31.11,25.38,47.32,16.69c9.46-5.07,15.11-15,19.92-24.61,53.5-106.7,60.84-243.66-9.15-340.34C1362.67,2231.92,1339.87,2209.58,1330.73,2180.47Z"/><path class="cls-6" d="M1304,2291.64c-9.92-19.56-19.37-39.72-23.55-61.4-3.54-18.35-3-37.16-5.49-55.63-4.44-33.61-21.21-59.11-42.55-84.63-25.64-30.66-44.4-60-57.4-98.17-44.66-131.08-149.57-234-252.78-322.51-3.66-3.13-7.71,2.4-4.56,5.67,56.75,58.84,118.18,112.74,169.12,177.06,20.4,25.75,39.43,52.93,54.3,82.29,15,29.68,22.5,62.06,35.65,92.48,12.81,29.64,33.55,52.44,53.6,77.25,11.43,14.15,22.6,29.23,28.49,46.65,6.68,19.72,6.69,40.39,8.64,60.87,3.38,35.56,17.85,65.85,34.14,97.17,16.38,31.49,30.31,63.72,39.82,98,21.36,77,17.56,152.2,4.46,230.05-.71,4.25,6,6.47,7.38,2.21,24.08-77.29,18.11-166.38-4.57-243.24C1337.87,2359,1321.25,2325.64,1304,2291.64Z"/><path class="cls-7" d="M1249.71,2281.87c-13.94-7.85-30.38-12.92-40-25.7-11.71-15.51-9.54-36.92-9.21-56.35.82-48.6-15.6-100-53.85-129.94-15.85-12.44-35.11-21.09-47.46-37-14.31-18.43-16.71-43-22.08-65.76a232.11,232.11,0,0,0-53.52-101.8c-14.2-15.7-32.72-30.23-53.88-29.64-29.18.82-50.35,31.34-51.69,60.5s11.67,56.83,24.18,83.21,25.1,54.36,22.86,83.47c-1.48,19.17-9.32,37.19-14.34,55.76-11,40.59-5.13,90.4,29.13,114.79,11.76,8.38,25.91,13.07,37.21,22,20.64,16.42,28.34,44.32,30.3,70.62s-.53,53.07,5.11,78.83c2.19,10,5.77,20,12.8,27.38,18.22,19.17,49.89,13.26,74.72,22.37,20.49,7.52,35.49,25.13,47.8,43.15,23,33.66,50.29,80.87,98.67,67.31,31.57-8.85,40.75-32.26,39-61.86C1321,2430.67,1322,2322.57,1249.71,2281.87Z"/><path class="cls-8" d="M1118,2226.8c-43.34-108.5-65.54-229.4-138.77-323.41-1.45-1.87-4.65.58-3.3,2.49,72.14,101.83,95,227,141.13,340.88,48.94,120.7,113,238.48,183.25,348.12,4.15,6.47,14.22.87,10.44-5.94C1244.15,2469,1169.18,2354.9,1118,2226.8Z"/><path class="cls-9" d="M1162.82,2363.8c-18.08-9.83-38.45-16.78-52.48-31.83-14.34-15.38-19.81-36.82-30.25-55.08a112.91,112.91,0,0,0-62.08-50.67c-30.11-9.91-64.8-7.24-91.13-24.9-20.81-14-32.38-38.16-51.2-54.72-34.59-30.47-85.8-29.74-131.83-27.32l-84.2,4.42c52.09,41.55,76.69,93.07,128.05,124.34,37.35,22.73,88.62,23.1,116.73,56.59,13.51,16.09,19.08,37.25,29.45,55.52a118.44,118.44,0,0,0,43.19,43.68c34.4,20,76.75,21.6,112.51,39.08,46.57,22.76,90.89,76.28,116.06,121.09,6.08,10.81,12.64,22,23.2,28.56s26.31,6.39,33.64-3.62c4.28-5.84,4.82-13.54,5-20.77C1268.93,2487.7,1233.53,2402.24,1162.82,2363.8Z"/><path class="cls-10" d="M1183.93,2457.69c-17.28-19.18-37.1-34.65-57.49-50.32-11.73-9-23.34-18.52-32.2-30.5-7.49-10.13-12.66-21.71-19.53-32.24-12.48-19.15-30.1-29.78-50.51-39.1-24.52-11.19-44.48-23.58-63.49-43-65.31-66.74-159.08-98.81-247.63-122.62-3.14-.84-4,3.7-1.13,4.77,51.65,19.28,104.71,34.19,154.42,58.49,19.9,9.73,39.39,20.73,57,34.26,17.78,13.68,31.75,31.21,48.61,45.88,16.42,14.3,35.67,22.14,55.09,31.4,11.07,5.28,22.26,11.2,30.91,20.08,9.79,10,15.82,22.62,23,34.52,12.41,20.65,30,34.86,49,49.17s37,29.94,52.75,48c35.39,40.61,55,87.48,69.66,138.65.8,2.79,5.57,2.17,5.13-.8C1249.65,2550.31,1220.1,2497.85,1183.93,2457.69Z"/><path class="cls-5" d="M3083.4,2374.29c-18.71-9.11-39.64-15.29-54.42-29.72-15.11-14.74-21.43-35.8-32.67-53.53a114.5,114.5,0,0,0-64.84-48.06c-30.93-8.77-66.06-4.92-93.41-21.5-21.63-13.11-34.24-36.69-53.93-52.46-36.21-29-88.18-26.48-134.83-22.49l-85.33,7.31c54.36,39.37,81.17,89.58,134.44,118.77,38.73,21.23,90.8,19.82,120.53,52,14.29,15.47,20.7,36.25,31.88,54a119.24,119.24,0,0,0,45.41,41.79c35.64,18.66,78.69,18.73,115.63,34.82,48.09,20.93,95,72.43,122.15,116,6.55,10.51,13.62,21.41,24.56,27.5s26.94,5.41,34-4.76c4.14-5.93,4.41-13.58,4.29-20.75C3195.54,2493.38,3156.56,2409.93,3083.4,2374.29Z"/><path class="cls-6" d="M3108.18,2466.61c-18.23-18.41-38.91-33.05-60.17-47.87-12.23-8.53-24.36-17.55-33.78-29.11-8-9.78-13.63-21.08-21-31.27-13.36-18.55-31.63-28.47-52.68-37-25.3-10.24-46-21.83-66-40.42-68.69-63.87-165-92.39-255.79-112.91-3.21-.72-3.92,3.81-1,4.77,53.13,17.31,107.53,30.24,158.86,52.6,20.55,9,40.73,19.17,59.07,32,18.54,12.93,33.35,29.82,51,43.77,17.19,13.61,37,20.7,57.05,29.2,11.43,4.85,23,10.33,32.1,18.83,10.31,9.62,16.87,21.87,24.55,33.41,13.33,20,31.72,33.5,51.55,47s38.62,28.39,55.27,45.76c37.38,39,58.93,84.78,75.67,135,.91,2.74,5.72,2,5.18-1C3178.2,2556.11,3146.33,2505.15,3108.18,2466.61Z"/><path class="cls-7" d="M3337,1982.42c-12-20.85-35.84-33-48.83-53.26-16.86-26.31-12.13-59.94-15.78-90.76a163.44,163.44,0,0,0-36.4-84.55c-4.76-5.73-10.13-11.31-17.08-14.21-19-7.94-40.21,7.41-50.79,24.79-29.78,48.89-14.59,110.55-5.85,166.79,2.08,13.41,3.65,27.61-1.72,40.11-8.26,19.21-30.14,28.85-44,44.73-22.82,26.26-20.45,65.24-12.12,98.71s21.45,67.33,15.85,101.33c-5,30.58-24.68,57-33.08,86.87-20.61,73.24,22.69,177.41,58.78,241.87,15.64,27.93,47.94,52.84,78.68,42.18,5-1.74,9.8-4.46,13-8.58,5.15-6.59,5.51-15.51,5.48-23.8-.23-63-9.23-131.21,25.13-184.58,15.48-24,38.5-42.57,55.76-65.44s28.5-53.87,16.08-79.55c-6.34-13.11-18-23.08-25.12-35.82-17.57-31.61-3.11-70.37,11.37-103.44S3355,2013.76,3337,1982.42Z"/><path class="cls-8" d="M3172.83,2426.64c-5.65-65.09,8.94-128.92,18.68-192.94q13.83-91,18.93-182.95c3.54-64.16,6.41-130,.84-194-.38-4.34-7-4.26-7,.16,0,67.36,2.42,134.16-1.75,201.51a1895.78,1895.78,0,0,1-23.08,199.18c-10.3,60.9-21.27,121.39-14.56,183.31,6.29,58.1,22.49,119.42,47.69,172.48,1.85,3.89,7.85.88,6.81-3C3202.72,2548.7,3178.42,2491,3172.83,2426.64Z"/><path class="cls-5" d="M3533,1771.72c-14.39,34.07-13.91,73.52-32.75,105.46-23.82,40.4-72.47,59.43-106.57,92.06-29.39,28.13-47.62,67.1-50.15,107.2-1.95,30.86,4.94,62.7-4.2,92.31-8.95,29-31.85,51.37-49.73,76.08-70,96.67-60.89,232.39-5.29,337.57,5,9.46,10.86,19.26,20.53,24.18,16.57,8.43,37.95-1.64,47.87-17.09S3364,2555,3365,2536.74c4.18-75.46,28.44-174.87,76.21-235.16,36.69-46.3,92.88-75.88,126-124.66a171.55,171.55,0,0,0,29.28-85.7c1.84-30.84-4.71-62.37,2.82-92.37,15.69-62.44,84.73-96.26,120.06-150.51,48.6-74.63,47.53-158.58,90.26-247.24L3692.92,1650C3629.11,1676.72,3559.42,1709.05,3533,1771.72Z"/><path class="cls-6" d="M3748.24,1657.2c-103.81,89-209.17,192.21-253,322.69-12.76,38-31.47,67.3-57.16,98-21.38,25.56-38.11,51-42.23,84.41-2.26,18.35-1.54,37-4.92,55.22-4,21.56-13.36,41.65-23.2,61.16-17.12,33.91-33.61,67.2-44.19,103.74-22.13,76.47-27.14,164.88-1.77,241.24,1.39,4.21,8.24,1.93,7.47-2.28-14.23-77-19-151.58,1.82-228.15,9.26-34.1,23-66.21,39.3-97.63,16.18-31.24,30.52-61.44,33.54-96.73,1.74-20.34,1.51-40.83,8.05-60.46,5.78-17.34,17-32.42,28.4-46.58,20.07-24.84,40.87-47.68,53.54-77.22,13-30.31,20.21-62.51,35.13-92.11,14.76-29.28,33.77-56.44,54.18-82.21,51-64.37,112.77-118.52,169.73-177.52C3756.1,1659.49,3751.92,1654.05,3748.24,1657.2Z"/><path class="cls-7" d="M3702,1822.71c-21.51-.35-40.15,14.28-54.39,30a228.17,228.17,0,0,0-53.17,101.55c-5.19,22.58-7.34,47-21.65,65.46-12.36,15.93-31.83,24.73-47.79,37.24-38.49,30.18-54.58,81.29-53.17,129.46.56,19.26,3,40.47-8.69,56-9.64,12.77-26.29,18-40.36,25.94-72.94,41.19-70.63,148.36-74.27,220.37-1.48,29.38,8.12,52.48,40.3,60.89,49.31,12.89,76.48-34.23,99.44-67.87,12.29-18,27.33-35.65,48.05-43.34,25.12-9.32,57.37-3.81,75.65-23,7.05-7.41,10.57-17.38,12.67-27.29,5.44-25.61,2.58-52.12,4.26-78.22s9.18-53.86,30-70.37c11.37-9,25.69-13.85,37.54-22.29,34.51-24.59,39.86-74,28.24-114.17-5.32-18.35-13.5-36.12-15.22-55.12-2.63-28.83,9.84-56.72,22.23-83s25.29-53.88,23.59-82.78S3731.65,1823.18,3702,1822.71Z"/><path class="cls-8" d="M3693.09,1890c-73.28,94-94.41,214.19-137.16,322.27-50.48,127.6-125.29,241.56-191.55,361.29-3.76,6.8,6.54,12.24,10.67,5.77,70.06-109.52,133.78-227,182.07-347.28,45.57-113.46,67.27-237.83,139.35-339.63C3697.82,1890.48,3694.54,1888.1,3693.09,1890Z"/><path class="cls-9" d="M3801.16,2129.93c-18.92,16.64-30.39,40.77-51.37,54.85-26.54,17.81-61.81,15.56-92.28,25.73a114.1,114.1,0,0,0-62.47,51c-10.39,18.22-15.69,39.55-30.08,55-14.08,15.08-34.69,22.21-52.94,32.16-71.38,38.93-106.33,124.07-103.87,203.85.22,7.17.87,14.8,5.28,20.54,7.57,9.84,23.57,9.79,34.22,3.2s17.18-17.79,23.23-28.59c25-44.71,69.43-98.29,116.47-121.4,36.12-17.74,79.13-19.77,113.84-40a118.88,118.88,0,0,0,43.36-43.82c10.32-18.23,15.73-39.28,29.27-55.39,28.16-33.52,80.24-34.48,117.91-57.45,51.81-31.59,76.19-83,128.62-124.76l-85.59-3.42C3888,2099.45,3835.94,2099.32,3801.16,2129.93Z"/><path class="cls-10" d="M3966.26,2121.42c-89.67,24.63-184.55,57.5-250.11,124.43-19.09,19.48-39.22,32-64,43.38-20.63,9.47-38.4,20.21-50.86,39.35-6.85,10.51-12,22.06-19.46,32.19-8.86,12-20.54,21.54-32.35,30.61-20.53,15.77-40.48,31.34-57.81,50.56-36.27,40.23-65.68,92.59-73,146.25-.41,2.95,4.44,3.51,5.22.73,14.32-50.9,33.66-97.6,69.14-138.27,15.79-18.11,33.75-33.73,53-48.22s36.88-28.71,49.24-49.32c7.12-11.88,13.09-24.41,22.93-34.49,8.68-8.91,20-14.91,31.16-20.27,19.62-9.41,39.08-17.4,55.6-31.77,16.94-14.74,30.93-32.28,48.83-46,17.71-13.62,37.37-24.74,57.48-34.62,50.21-24.67,103.93-40.06,156.17-59.77C3970.36,2125,3969.44,2120.55,3966.26,2121.42Z"/><ellipse class="cls-11" cx="2309.36" cy="2559.25" rx="1341.19" ry="102.1"/><ellipse class="cls-11" cx="2309.36" cy="2672.98" rx="1020.52" ry="87.02"/><path class="cls-12" d="M2174.39,1532.44H1951.31c-187.41,89.88-325.73,387.46-325.73,590.45,0,50.76,8.65,96.74,24.57,137.73,59.76,154,222,237.29,412.7,237.29,241.55,0,437.27-133.54,437.27-375C2500.12,1919.9,2361.87,1622.32,2174.39,1532.44Z"/><g class="cls-13"><path class="cls-14" d="M1625.58,2122.89c0,50.76,8.65,96.74,24.57,137.73,1.65-396.59,273.87-657,358.11-728.18h-57C1763.9,1622.32,1625.58,1919.9,1625.58,2122.89Z"/></g><path class="cls-12" d="M2173.15,1313.29c-21.34,8-41.7,25.26-64,19.5-17.93-4.58-27.69-22.58-45.56-27.29-29.58-7.79-53.94,24.41-84.7,26.77-14.27,1.11-28-4.45-40.85-10s-26.44-11.26-40.78-10.47-29,10.8-27.69,23.1l68.67,165.81h248.94l69.13-171.63C2236.26,1309.55,2201,1302.81,2173.15,1313.29Z"/><polygon class="cls-15" points="1951.31 1532.44 1951.38 1532.44 2174.33 1532.44 2174.4 1532.44 2187.16 1500.76 1938.22 1500.76 1951.31 1532.44"/><path class="cls-14" d="M2122.9,2055.77a152.23,152.23,0,0,0-32.19-21.86q-17.53-8.9-33.39-15.62v-87.92a117.94,117.94,0,0,1,30.75,11.53q13.93,7.69,24,14.42,7.22,4.8,13.46-3.85l19.22-27.87a12.39,12.39,0,0,0,1.68-8.64,9.8,9.8,0,0,0-4.57-7.21q-3.36-2.4-10.81-7a175.13,175.13,0,0,0-18.5-9.61,184.7,184.7,0,0,0-25.22-9.13,161.85,161.85,0,0,0-30-5.52v-15.86a9,9,0,0,0-9.13-9.13H2042a9,9,0,0,0-9.13,9.13V1877q-24.51,1.92-42.52,10.09t-29.79,20.42a76.71,76.71,0,0,0-17.3,27.86,97.78,97.78,0,0,0-5.52,32.92q0,24,8.64,41.08a99,99,0,0,0,22.34,29.3,144.91,144.91,0,0,0,30.52,20.91q16.8,8.64,33.63,15.37v93.69a101.27,101.27,0,0,1-30.27-9.61,133.3,133.3,0,0,1-25.47-16.34q-7.2-6.22-11.77-6c-3,.16-5.52,1.85-7.45,5l-18.73,28.83q-3.37,5.3-2.17,8.17a20.17,20.17,0,0,0,4.57,6.24q3.36,2.89,10.57,8.65a106.45,106.45,0,0,0,18.74,11.54,181.49,181.49,0,0,0,26.9,10.57,156.73,156.73,0,0,0,35.08,6.24v50q0,6.24,5.28,7.45a44.36,44.36,0,0,0,9.61,1.2,10.16,10.16,0,0,0,6.73-2.41,7.74,7.74,0,0,0,2.88-6.24v-50q48.53-2.88,74.23-29.07t25.71-65.58q0-23.54-9.85-41.08A116.89,116.89,0,0,0,2122.9,2055.77Zm-90.08-47.08q-18.27-9.62-27.39-19t-9.13-23.79a32.9,32.9,0,0,1,9.13-23.54q9.12-9.6,27.39-12ZM2084,2159.07q-10.35,8.66-26.67,10.57v-84.56q19.69,10.08,28.35,22.58t8.65,26.43Q2094.32,2150.43,2084,2159.07Z"/><path class="cls-16" d="M2234.23,1569.31a750.21,750.21,0,0,1,83.39,199.21c84.08,323.59-54.35,639.59-309.19,705.81a380.45,380.45,0,0,1-68.09,11.19,597.7,597.7,0,0,0,122.51,12.39c241.55,0,437.27-133.54,437.27-375C2500.12,1942.2,2390.53,1686.68,2234.23,1569.31Z"/><polygon class="cls-15" points="2072.14 1753.4 2121.75 1753.4 2121.75 1516.6 2105.21 1516.6 2072.14 1753.4"/><polygon class="cls-15" points="2116.34 1516.6 2145.75 1701.76 2187.16 1701.76 2128.42 1516.6 2116.34 1516.6"/><ellipse class="cls-17" cx="2118.91" cy="1518.44" rx="14.85" ry="12.34"/><path class="cls-16" d="M2096.94,1470.82c-30,18-61.33-88.1-78.46-90.8s4.07,64.7-10.61,79.31-27.74-39.09-53.84-45.61,27.54,86.66,27.54,86.66l174,.38s10.61-60.94,5.71-83.78S2127,1452.87,2096.94,1470.82Z"/><path class="cls-16" d="M1889.14,1645.84c17.73,11.82,99.28-86.88,114.65-76.53s-34.28,73,0,56.46,57.91-93.33,57.91-93.33h-66.87C1988.42,1538.28,1871.41,1634,1889.14,1645.84Z"/><path class="cls-18" d="M1725,2566.88l-64.65-47.42,10.81-142.55-135.2-6.15-3.8,128.51,34.19,105.84,157.37-19.21c4.82-.59,8.3-5.38,7.77-10.7A9.48,9.48,0,0,0,1725,2566.88Z"/><path d="M1799.3,2576.15c-13.85-12-140.52-79.63-140.52-79.63l-126.65,2.75c-4.57,66.69-9.41,127.57-4.26,131.08,13.54,9.36,271.63,6.31,284,1.68S1813.08,2588.17,1799.3,2576.15Z"/><path class="cls-14" d="M1806.7,2616.42c-59.35-1.31-192.51.22-251.26,3.92-.48,0-.48.38,0,.41,58.8,2.7,192-1,251.27-3.26C1808,2617.44,1808,2616.44,1806.7,2616.42Z"/><path class="cls-14" d="M1776.47,2562.2c-14.07-.56-27.8,6.89-35.43,16.19-7.33,8.93-13.59,21.47-13.11,35.06,0,.39.67.4.72,0,3.28-25.67,24.3-48.31,47.83-50.43A.41.41,0,0,0,1776.47,2562.2Z"/><path class="cls-14" d="M1713.54,2461.92c-9.51-8.62-21.4-.08-27.2,8.95-9.39,14.64-15.8,35.12-16.77,52.93a.51.51,0,0,0,.58.59c.41,1.48,2,2.72,3.37,1.65,13.28-10.24,28.62-19.38,38.66-33.82C1718,2483.79,1722.53,2470.08,1713.54,2461.92Zm-22.77,44c-6.41,5.21-13,10.05-19.26,15.53,3.29-10.32,6.17-20.74,10.41-30.68a122.56,122.56,0,0,1,6.77-14c4-6.84,22.32-24.21,24.28-1.74C1714.05,2487.49,1698.43,2499.75,1690.77,2506Z"/><path class="cls-14" d="M1673.71,2521.75c-11.91-12.06-29.41-21.87-45.37-25.18-9.85-2-23.78.95-25.19,14.45-1.33,12.77,10.53,19.17,20,20.74,16.3,2.67,33.08-2.54,49.07-5.36,1.66-.29,2-2.4,1.38-3.78A.57.57,0,0,0,1673.71,2521.75Zm-26.48,3.46c-9.41,1.4-28.36,4.58-35.38-5.16-12.73-17.66,11.35-19.21,18.56-17.39a99.57,99.57,0,0,1,13.66,4.85c9.3,3.9,17.92,9.18,26.78,14.06C1662.92,2522.43,1655.13,2524,1647.23,2525.21Z"/><path class="cls-14" d="M1693.56,2517.17c-18.71-.19-40.37,7.22-51.92,24.18-.45.65.4,1.35,1,1a244.77,244.77,0,0,1,51.29-22.67A1.32,1.32,0,0,0,1693.56,2517.17Z"/><path class="cls-14" d="M1708,2523.31c-18.71-.19-40.37,7.22-51.92,24.18-.45.66.4,1.35,1,1a244.77,244.77,0,0,1,51.29-22.67A1.32,1.32,0,0,0,1708,2523.31Z"/><path class="cls-14" d="M1722.49,2529.46c-18.7-.19-40.36,7.21-51.91,24.17-.45.66.4,1.35,1,1a245.33,245.33,0,0,1,51.3-22.66A1.32,1.32,0,0,0,1722.49,2529.46Z"/><path class="cls-14" d="M1737,2535.6c-18.71-.19-40.36,7.22-51.92,24.18-.44.65.41,1.35,1,1a245,245,0,0,1,51.29-22.67A1.32,1.32,0,0,0,1737,2535.6Z"/><path class="cls-18" d="M1396.75,2566.88l-64.65-47.42,10.82-142.55-135.21-6.15-3.8,128.51,34.19,105.84,157.38-19.21c4.82-.59,8.29-5.38,7.76-10.7A9.48,9.48,0,0,0,1396.75,2566.88Z"/><path d="M1471.09,2576.15c-13.86-12-140.53-79.63-140.53-79.63l-126.65,2.75c-4.56,66.69-9.41,127.57-4.26,131.08,13.55,9.36,271.63,6.31,284,1.68S1484.87,2588.17,1471.09,2576.15Z"/><path class="cls-14" d="M1478.49,2616.42c-59.35-1.31-192.51.22-251.26,3.92-.48,0-.48.38,0,.41,58.8,2.7,191.94-1,251.26-3.26C1479.74,2617.44,1479.74,2616.44,1478.49,2616.42Z"/><path class="cls-14" d="M1448.26,2562.2c-14.08-.56-27.8,6.89-35.43,16.19-7.34,8.93-13.59,21.47-13.11,35.06,0,.39.66.4.71,0,3.28-25.67,24.31-48.31,47.83-50.43A.41.41,0,0,0,1448.26,2562.2Z"/><path class="cls-14" d="M1385.33,2461.92c-9.51-8.62-21.41-.08-27.2,8.95-9.4,14.64-15.81,35.12-16.78,52.93a.52.52,0,0,0,.59.59c.41,1.48,2,2.72,3.37,1.65,13.27-10.24,28.62-19.38,38.65-33.82C1389.82,2483.79,1394.31,2470.08,1385.33,2461.92Zm-22.77,44c-6.41,5.21-13,10.05-19.27,15.53,3.29-10.32,6.17-20.74,10.41-30.68a122.56,122.56,0,0,1,6.77-14c4-6.84,22.33-24.21,24.29-1.74C1385.84,2487.49,1370.21,2499.75,1362.56,2506Z"/><path class="cls-14" d="M1345.49,2521.75c-11.91-12.06-29.4-21.87-45.36-25.18-9.86-2-23.78.95-25.19,14.45-1.33,12.77,10.53,19.17,20,20.74,16.3,2.67,33.08-2.54,49.07-5.36,1.66-.29,2-2.4,1.39-3.78A.57.57,0,0,0,1345.49,2521.75Zm-26.47,3.46c-9.41,1.4-28.36,4.58-35.38-5.16-12.73-17.66,11.34-19.21,18.55-17.39a98.63,98.63,0,0,1,13.66,4.85c9.31,3.9,17.93,9.18,26.79,14.06C1334.71,2522.43,1326.91,2524,1319,2525.21Z"/><path class="cls-14" d="M1365.34,2517.17c-18.7-.19-40.36,7.22-51.91,24.18-.45.65.4,1.35,1,1a245.08,245.08,0,0,1,51.3-22.67A1.32,1.32,0,0,0,1365.34,2517.17Z"/><path class="cls-14" d="M1379.81,2523.31c-18.71-.19-40.36,7.22-51.92,24.18-.44.66.41,1.35,1,1a244.85,244.85,0,0,1,51.3-22.67A1.32,1.32,0,0,0,1379.81,2523.31Z"/><path class="cls-14" d="M1394.28,2529.46c-18.71-.19-40.37,7.21-51.92,24.17-.45.66.41,1.35,1,1a245.25,245.25,0,0,1,51.29-22.66A1.32,1.32,0,0,0,1394.28,2529.46Z"/><path class="cls-14" d="M1408.75,2535.6c-18.71-.19-40.37,7.22-51.92,24.18-.45.65.4,1.35,1,1a244.77,244.77,0,0,1,51.29-22.67A1.32,1.32,0,0,0,1408.75,2535.6Z"/><path class="cls-18" d="M2151.33,951.42c-12.34-5.41-64.27,13.81-64.27,13.81s29.35-48,24.42-52.26-12.14-7-29.42,17.77c0,0,9.54-20.75-.94-24.33s-38.67,56.06-38.67,56.06l-29.26-7.94s20.35-34.11,12.75-44.69-14.8-7.22-16.92,3-8.78,30.14-24,31.09-34.11,1.55-52.35,30.36l47.74,72.41s10.93-13.4,18.22-14.83,75.37-15.49,92-21c27.09-9,60.88-31.58,81.26-36.11S2163.68,956.83,2151.33,951.42Z"/><path class="cls-19" d="M1969.45,981.45l4,3.35c16.84-20,36-5.76,36.84-5.14l3.15-4.13C2013.17,975.35,1989.44,957.72,1969.45,981.45Z"/><path class="cls-20" d="M1814.4,976.48s-8.25-121.55-34.78-216C1765.43,710,1592.39,674,1592.39,674l37.78,131.2s16.66,265.26,26,353.28c3.35,31.73,49.78,35.26,107.54,26.89,35.71-5.18,75.76-14.91,112.63-25.33C1944,1141,2001,1119.49,2001,1119.49l-50-185.87Z"/><path class="cls-21" d="M1360.19,1227.58c-99.11,109.88-102.06,203.82-106.39,279.47-14.31,250.15-63.34,921.49-63.34,921.49h207s113.61-619.33,160.64-944.92c17.92-138.62,0-290.45,0-290.45Z"/><path class="cls-21" d="M1484.9,1202c-45.82,104.69,1.42,332.54,1.42,332.54l26.85,894h194.37s88.43-747.77,25.91-1201Z"/><path class="cls-22" d="M1492,1863.56l6.94.9c.52-4,51.69-400.7,51.69-557.36h-7C1543.6,1463.31,1492.48,1859.58,1492,1863.56Z"/><path class="cls-22" d="M1565.64,1375.91c-11.55,61.73-22.38,66.52-25.43,66.52v7c8.07,0,20.2-7.49,32.32-72.27,6.45-34.47,9.82-69.38,9.86-69.73l-7-.67C1575.38,1307.11,1572,1341.75,1565.64,1375.91Z"/><path class="cls-22" d="M1309.71,1429l0,.12-86.59,999.61,7,.6L1316.64,1430c.26-1.53,3.46-19.84,15.72-52.34,11.76-31.21,34.51-82.24,76.06-148.17l-5.92-3.73C1322.08,1353.28,1310.18,1426,1309.71,1429Z"/><rect class="cls-22" x="1525.6" y="1740.24" width="7" height="685.94" transform="translate(-107.26 83.15) rotate(-3.01)"/><path class="cls-14" d="M1721.78,934.45C1711,795.88,1622.55,704.86,1592.39,674c-20.75-3.43-27.48-4.67-40.58-5.84a311.32,311.32,0,0,0-36.11-.69c-23.15.7-43.44,2.93-43.44,2.93-11.17,3.06-21,5.38-29.66,7.47-47.68,11.48-61,15.76-77.06,93.62-27.55,134-53,420.23-53,529.6q10.2,2.55,20.86,4.78c161.89,33.74,398.53,10.66,398.53,10.66s-.06-8.75-.2-23.75C1731.12,1224,1728.71,1023.56,1721.78,934.45Z"/><path class="cls-23" d="M1691.39,1227.57s-124-31.6-144.29-85.9c-16.52-44.33-27.81-359.7-31.4-474.16-23.15.7-43.44,2.93-43.44,2.93-11.17,3.06-21,5.38-29.66,7.47-17.28,105.6-46.82,291.52-52.07,359.8-4.78,62.45-37,180.44-57.11,268.2,161.89,33.74,398.53,10.66,398.53,10.66s-.06-8.75-.2-23.75A436,436,0,0,0,1691.39,1227.57Z"/><path class="cls-20" d="M1312.56,826.58c-18.35,46.2-35,555.14-35,555.14s126.62,15.49,191.35,23.25c18.45-373.67,31.76-612.6,3.39-734.53C1472.26,670.44,1345.34,744.1,1312.56,826.58Z"/><path class="cls-20" d="M1592.39,674s45.44,59.67,27.16,743.45c50.19,0,111.56-10.47,144.49-26.52,8.31-294.66-27.5-612.56-27.5-612.56Z"/><path class="cls-24" d="M1779.4,1036.69,1743.92,848c4.53,69.63,19.75,337.37,19.75,337.37,35.71-5.18,75.76-14.91,112.63-25.33l-14.08-7.33C1819.65,1130.57,1789,1087.59,1779.4,1036.69Z"/><polygon class="cls-25" points="1473.6 1141.67 1143.33 1335.07 1249.73 1556.8 1338.7 1504.7 1580.01 1363.39 1487.73 1171.12 1473.6 1141.67"/><path class="cls-26" d="M1143.33,1335.07l106.4,221.72,89-52.09c-11.84-50.65-19.4-108.46-8.92-154.06,20.16-87.73,124.93-159,158-179.52l-14.13-29.45Z"/><path class="cls-27" d="M1512.08,1188.24c-2.27-4.73-7.59-6.53-11.88-4l-11.77,6.89,59.77,124.56,11.78-6.89c4.29-2.51,5.92-8.39,3.65-13.12Z"/><path class="cls-27" d="M1538.24,1217.66c-8.7,5.1-11.72,17.64-6.74,28s16.07,14.66,24.77,9.56,11.73-17.64,6.75-28S1547,1212.57,1538.24,1217.66Zm13.29,27.68c-4.13,2.42-9.38.39-11.74-4.52s-.93-10.86,3.2-13.27,9.37-.39,11.73,4.52S1555.65,1242.93,1551.53,1245.34Z"/><path class="cls-18" d="M1374.9,1454.71c-7.91-14.1-23.18-23.89-32.53-28.87-4.75-2.52-8-3.82-8-3.82l-25.75-53.3-64.76,60.39,25.59,52.67s2,4.38,4.82,10.56c3.58,7.65,8.55,18.07,13,26.31,8,14.87,27.72,27,40.3,30.94,11.46,3.58,23.68-.79,22.64-13.72,11.2,12.36,24.46,1.7,18.58-9.95,8.25,3.48,16.89-5.12,14.51-14.32,8.1,0,13.53-1,15.8-3.6,6.14-6.89,6.35-42.39,6.35-42.39l-17.46,7.67A115.23,115.23,0,0,1,1374.9,1454.71Z"/><path class="cls-28" d="M1308.65,1368.72l-64.76,60.39,25.59,52.67s2,4.38,4.82,10.56c17.69-32,52-56.32,68.07-66.5-4.75-2.52-8-3.82-8-3.82Z"/><path class="cls-20" d="M1274.21,762.3c-59,92.38-138.46,303.54-138.46,377.29s82.92,331.49,82.92,331.49l148.46-82.34-46.39-251.15s62.83-203.13,86.52-266.26l65-200.89C1425.59,678.91,1320.31,690.07,1274.21,762.3Z"/><polygon class="cls-24" points="1336.63 1221.88 1378.27 1197.49 1401.51 894.68 1323.58 1137.59 1336.63 1221.88"/><path class="cls-29" d="M2825.06,2640.55c-85.16,0-150.06-9-150.06,2.07,0,5.34,16.57,20.72,150.06,17.27,85.14-2.21,157.91-11.24,157.91-16.58C2983,2633,2910.23,2640.55,2825.06,2640.55Z"/><path class="cls-18" d="M2935.27,1900.92,2820,1885s-15.52,20.28-11.21,65.61c14.28,150.3,61.8,492.8,46.57,578-7.48,41.83-84.39,53.93-117.55,72.55s-55.91,12.44-62.13,24.88,30.38,29,68.35,24.85c82.72-9.07,136.92-7.83,172.24-7.76,37.22.06,53.43-1.15,59.78-17.09,12.43-31.1-15.06-74.57-17.88-100.46-1.61-14.69,17.22-148.65,33.84-261.95a606.87,606.87,0,0,0-37.21-314Z"/><path class="cls-29" d="M2731.62,2597.91s13.81,33.67,15.19,57.83l111.87-4.17s-11-71.09-40.74-100.78C2817.94,2550.79,2760.62,2584.1,2731.62,2597.91Z"/><path class="cls-29" d="M3067.85,2664.78c-85.17,0-150.07-9-150.07,2.08,0,5.33,16.58,20.71,150.07,17.26,85.14-2.2,157.91-11.24,157.91-16.57C3225.76,2657.19,3153,2664.78,3067.85,2664.78Z"/><path class="cls-18" d="M3178.05,1925.15l-155.43-18.48S3118,2442,3098.16,2552.86c-7.48,41.84-84.39,53.93-117.55,72.55s-55.91,12.44-62.13,24.88,30.38,29,68.35,24.85c82.72-9.07,136.92-7.83,172.24-7.76,37.22.06,53.42-1.15,59.77-17.09,12.44-31.09-15.05-74.57-17.87-100.46-1.61-14.69,17.22-148.65,33.84-261.95a606.77,606.77,0,0,0-37.22-314Z"/><path class="cls-29" d="M2974.41,2622.14s13.81,33.67,15.19,57.83l111.86-4.17s-11-71.09-40.74-100.78C3060.72,2575,3003.41,2608.33,2974.41,2622.14Z"/><path class="cls-30" d="M3268,1474.79c-.52-2-1-4.06-1.6-6.06-.36-1.44-.75-2.85-1.14-4.22s-.82-2.82-1.18-4.19c-.79-2.69-1.61-5.31-2.43-7.86-.75-2.39-1.5-4.71-2.32-7-1.7-5.07-3.5-9.82-5.34-14.21a67.16,67.16,0,0,0-8.77-15.15c-77.87-101.51-435.22,33.61-435.22,33.61s-49.73,310.22-45.24,482.73c0,0,24.48,5.63,55.28,10.6,26.68,4.32,53.82-61.27,78.14-62l4.32,91s102.2,17.87,244.75,12.21c5.11-.2,10.28-.46,15.52-.72a1287.17,1287.17,0,0,0,141.47-14.83s5.21-323.87-34.83-488.39C3268.92,1478.52,3268.47,1476.62,3268,1474.79Z"/><path class="cls-31" d="M2902.47,1950.54l3.37-369.86s-35.09,276-85.83,362.39C2846.69,1947.39,2878.15,1951.26,2902.47,1950.54Z"/><path class="cls-31" d="M3268,1474.79c-.52-2-1-4.06-1.6-6.06-.36-1.44-.75-2.85-1.14-4.22s-.82-2.82-1.18-4.19c-.82-2.69-1.61-5.31-2.43-7.86-.75-2.39-1.53-4.71-2.32-7-1.7-5.07-3.5-9.82-5.34-14.21a67.16,67.16,0,0,0-8.77-15.15l-174.53,41.34-9.24-1.54s44.28,41.6,120.94,117.08c53.78,52.93-15.66,295.14-19.62,410.59a1287.17,1287.17,0,0,0,141.47-14.83s5.21-323.87-34.83-488.39C3268.92,1478.52,3268.47,1476.62,3268,1474.79Z"/><path class="cls-18" d="M2864.43,1055.34s-32-8.91-117.35,9c-17.08,3.6-36.33,8.28-57.87,14.3-129.13,36.14-146.84,46.62-174.5,40.85s-31-16-61.64-16-57.41-12.57-56.14,1.57c.49,5.47,7.5,10.84,15.88,15.32a175.46,175.46,0,0,1-28-2c-27.73-4.61-38.69-6.35-39.28,0-.36,4.19,8.15,10.94,21,16.7-16.89-2.59-24-2.66-24.45,2.42-.33,3.89,6.9,10,18.17,15.38-10-1-14.34-.23-14.7,3.7s6.61,9.69,17.41,15.06c-4.16.23-6.18,1.47-6.41,4.06-.59,6.35,27.62,23.44,52.53,24.12,48.55,1.38,102.17-13.78,121.51-15,97.29-6.35,197.48,18.1,287.7-5.76a233.37,233.37,0,0,0,74.6-34.11C2979.49,1084.8,2864.43,1055.34,2864.43,1055.34Z"/><path class="cls-19" d="M2864.43,1055.34s-32-8.91-117.35,9c26,14.7,54.87,46.61,71.17,114.67a233.37,233.37,0,0,0,74.6-34.11C2979.49,1084.8,2864.43,1055.34,2864.43,1055.34Z"/><path class="cls-32" d="M2923.62,1094.68c-11.3-112-82.39-353.16-82.39-353.16s-31.69,6.28-47.43,64.52a156.33,156.33,0,0,0-4.46,25.76c-8.83,94.08-19.41,156.47-26.81,192.47-.75,3.6-1.44,6.91-2.12,10-4.29,19.64-7.07,28.78-7.07,28.78s60.1-1.44,144.81,78.69c22.29,21.08,28.9,3.37,26.58-34.21C2924.47,1103.46,2924.11,1099.17,2923.62,1094.68Z"/><path class="cls-33" d="M3205.06,923c-22-95.48-37.35-190.58-37.35-190.58l-115.6-52.09-42.93,5.47-79.74,13.83-2.71.1a42.93,42.93,0,0,1-6.45,4.32,11.3,11.3,0,0,1-1,.59c-45.33,23.73-76.69,36.36-78,36.92.26,19.51.49,123.57-23.18,187.56-26.19,70.87,23.11,181.77,15.39,243.41s-58.53,292.67-58.53,292.67,100.65,37.68,254.5,41.77A1010.81,1010.81,0,0,0,3294,1479s-17-231-43.14-352.74C3239.59,1073.8,3221.72,995.3,3205.06,923Z"/><path class="cls-18" d="M3055.89,576.19c-11.45-90.45-87.89-38.83-105.69,6.57.81.62,1.91,42.93-4.78,89.36-1.67,11.58-10.15,20.69-18.69,27.57a42.93,42.93,0,0,1-6.45,4.32c3.34,11.94,15.74,46.64,48.28,54.37,39.48,9.33,114.4-60.74,114.4-60.74s-5.73-6.18-13.65-20.09C3067.38,674.17,3063.72,638,3055.89,576.19Z"/><path class="cls-32" d="M3205.06,923,3086.77,911.3s4.53,177.88-13.93,302.63c-14.73,99.28-27.68,240.23-43.43,293A1010.81,1010.81,0,0,0,3294,1479s-17-231-43.14-352.74C3239.59,1073.8,3221.72,995.3,3205.06,923Z"/><path class="cls-19" d="M2428.13,1126.52c21.95,45.88,60.65,19.39,60.65,19.39C2448.92,1154,2428.13,1126.52,2428.13,1126.52Z"/><path class="cls-19" d="M2410.8,1179c17.91-.17,47.65-12.88,47.65-12.88s-65.28,5.82-82.89,6.35C2375.56,1172.48,2392.89,1179.17,2410.8,1179Z"/><path class="cls-34" d="M2069.64,524.09a224.08,224.08,0,0,0-187.77,122.83,223.19,223.19,0,0,0-19.23,55c-1.33,6.44-2.39,13-3.15,19.61a224.27,224.27,0,0,0-1.35,33.91c0,1.42.12,2.84.19,4.27q.5,9.19,1.72,18.16a221.93,221.93,0,0,0,7.06,33q3,10.24,7,20a222.93,222.93,0,0,0,29.7,52.23A223.45,223.45,0,0,0,2094,971.06c123.43-6.73,218-112.24,211.32-235.66S2193.06,517.36,2069.64,524.09Z"/><circle class="cls-35" cx="2121.52" cy="744.98" r="223.82"/><g class="cls-36"><circle class="cls-34" cx="2119.13" cy="745.11" r="186.42" transform="translate(93.81 1716.69) rotate(-45)"/></g><g class="cls-36"><path class="cls-34" d="M1923.3,589.57l41.43-4.31a223.83,223.83,0,0,1,54.56-39.44l-43.36,4.51A223.61,223.61,0,0,0,1923.3,589.57Z"/></g><g class="cls-36"><path class="cls-34" d="M1881.87,646.92l40.52-4.22a225,225,0,0,1,23.28-36.19l-41,4.27A224.72,224.72,0,0,0,1881.87,646.92Z"/></g><g class="cls-36"><path class="cls-34" d="M1862.64,702l40-4.16a220,220,0,0,1,10.55-34.86l-40.33,4.2A220.85,220.85,0,0,0,1862.64,702Z"/></g><g class="cls-36"><path class="cls-34" d="M1859.49,721.57a224.27,224.27,0,0,0-1.35,33.91l39.65-4.13a225.57,225.57,0,0,1,1.58-33.93Z"/></g><g class="cls-36"><path class="cls-34" d="M1860.05,777.91a221.93,221.93,0,0,0,7.06,33l39.26-4.08a224.47,224.47,0,0,1-6.81-33.06Z"/></g><g class="cls-36"><path class="cls-34" d="M1874.06,831a220.81,220.81,0,0,0,16,32.1l38.84-4a221.82,221.82,0,0,1-15.73-32.13Z"/></g><g class="cls-36"><path class="cls-34" d="M1942.38,879.2l-38.62,4A224.91,224.91,0,0,0,1932.18,914l38.18-4A225,225,0,0,1,1942.38,879.2Z"/></g><g class="cls-36"><path class="cls-34" d="M1959.38,935a223,223,0,0,0,59.8,27.55l35.89-3.73a223.19,223.19,0,0,1-58-27.74Z"/></g><circle class="cls-37" cx="2123.44" cy="744.83" r="226.67" transform="translate(95.27 1719.65) rotate(-45)"/><g class="cls-38"><path class="cls-14" d="M2131.83,518.31a227.44,227.44,0,0,0-54.7,4.62q12.28-.76,24.84-.32c136.27,5,242.65,119.61,237.59,255.88a247,247,0,0,1-9.65,59.9,225.73,225.73,0,0,0,20-85.16C2354.59,628.12,2256.93,523,2131.83,518.31Z"/></g><path class="cls-25" d="M2130,568.65a176.3,176.3,0,1,0,169.65,182.71A176.3,176.3,0,0,0,2130,568.65Z"/><g class="cls-39"><path class="cls-25" d="M2130,568.65c-2.56-.1-5.11-.11-7.65-.09,93.6,7.48,165.53,87.49,162,182.23a176.3,176.3,0,0,1-175.07,169.74c2.54.2,5.07.38,7.64.48a176.31,176.31,0,0,0,182.71-169.65C2303.22,654.06,2227.27,572.25,2130,568.65Z"/></g><g class="cls-39"><path class="cls-25" d="M2172.78,628.15l-29-9.66-9.37,28.11c-33.72-4.34-58.88,9.95-67.56,36-9.56,28.69,7.11,50.68,35.21,71.88,19.43,14.69,26.53,24.95,22.78,36.2-3.94,11.83-17.65,14.49-34.51,8.87-19.25-6.42-34.61-18.45-44.78-29.38l-20.42,31.65c9.08,10.25,26.52,22,46,29.48l-9.37,28.09,29,9.67,10.06-30.16c36,5.41,62.12-10.85,70.9-37.17,8.88-26.65.09-47.64-31-71.81-22-17.85-30.27-27.51-27-37.27,2.76-8.29,11.74-14.5,31-8.09,21.32,7.1,32.65,18.46,39.25,24.27l19.72-30.57c-8.18-8-20.12-16.56-39.64-24.06Z"/></g><path class="cls-37" d="M2186,632.75l-29-9.66-9.37,28.12c-33.72-4.34-58.88,9.94-67.56,36-9.56,28.69,7.11,50.69,35.21,71.88,19.43,14.7,26.53,25,22.78,36.21-4,11.83-17.65,14.48-34.51,8.86-19.25-6.41-34.61-18.44-44.78-29.38l-20.43,31.65c9.08,10.26,26.53,22,46.06,29.49L2075,864l29,9.66,10.06-30.15c36,5.41,62.12-10.85,70.9-37.18,8.88-26.64.09-47.64-31-71.8-22-17.85-30.28-27.52-27-37.27,2.76-8.29,11.74-14.5,31-8.1,21.31,7.11,32.65,18.46,39.25,24.28L2217,682.85c-8.18-8-20.12-16.56-39.64-24.06Z"/><path class="cls-40" d="M3510.23,641.18A141.78,141.78,0,1,0,3652,783,141.79,141.79,0,0,0,3510.23,641.18Z"/><polygon class="cls-40" points="3418.21 953.4 3482.95 901.14 3424.42 878.62 3418.21 953.4"/><polygon class="cls-14" points="3493.77 791.43 3466.54 734.36 3418.21 754.39 3479.88 871.09 3660.89 702.44 3648.76 694.84 3493.77 791.43"/><path class="cls-18" d="M1604.56,432l-86.32,6.23-60.07,69.58,23.1,84s-8.29,75.61-7.29,80.8c1.65,8.6,40.51,46.22,64.82,50.5,46.68,8.22,57.1-25.83,57.1-25.83L1592.56,621c49.5-15.13,38.66-57.47,37.63-66.65s-4.47-40.12,1.61-58.88C1641.23,466.42,1604.56,432,1604.56,432Z"/><path class="cls-41" d="M1663.67,420.19a44.61,44.61,0,0,0-19.76-1c13.45-27.69,4.82-40.17-5.28-45.8a29.26,29.26,0,0,0-24.31-1.56c-47,17.41-53.63-.49-90.19-2.12-38.5-1.72-47.68,41.19-47.68,41.19-40.72-13.15-54.49,33.48-48.77,88.26s54.12,95.18,54.12,95.18l135.63-59.47c36.49-26.41,28-70.55,28-70.55s13.51-2.89,22-17.49C1667.66,446.57,1678,424.67,1663.67,420.19Z"/><path class="cls-18" d="M1630.92,487.22c-.36-18.18-3.4-43-35-46.77s-79.41,21.1-79.41,21.1c10.08,44.62-5.83,22.25-19.52,50.19s10.17,71.14,26.33,91,65.33,35.52,95.61,23.08,18.4-47,15.54-63.16S1631.28,505.4,1630.92,487.22Z"/><path class="cls-18" d="M1473.36,499.14c-13.91.26-24.91,14.52-24.57,31.83s11.9,31.14,25.81,30.88,24.91-14.52,24.57-31.84S1487.27,498.87,1473.36,499.14Z"/><path class="cls-18" d="M1477.8,662.69s26.78,10.73,69.27,7.47c37.1-2.85,43.09,2.4,43.09,2.4l9.65-63.67-113.62-89.45Z"/><path class="cls-19" d="M1541.18,589.42,1502.06,567s12.31,98.88,89.63,95.12l6.68-57.49L1584,601Z"/><path class="cls-41" d="M1615.72,554.72c-19.09-.43-52.33-8.89-70,21.1-21.41-8-42.62-34.39-51.13-73.8-1.06-19.1-5.41-12-6-10.92-13.7,27.94,18.56,91.78,34.72,111.64s65.33,35.52,95.61,23.08c29.31-12,19.14-44.76,15.86-61.5C1633.88,561.34,1630.28,555,1615.72,554.72Z"/><path class="cls-42" d="M1576.84,565.74c-2.22-.62-4.34,1.28-3.19,2.88,9.12,12.67,36.23,10.93,38.62,10.19,2.65-.82,1.48-9.41,1.48-9.41C1599.89,571.32,1584.72,568,1576.84,565.74Z"/><path class="cls-19" d="M1471,524.81a2.28,2.28,0,0,0-3.4,3l10.24,11.52-9.49-3.07a2.28,2.28,0,0,0-1.4,4.33l17.44,5.63a2.37,2.37,0,0,0,.69.11,2.27,2.27,0,0,0,1.7-3.79Z"/><path class="cls-19" d="M1603.07,494.31a2.28,2.28,0,0,0-4.09-2c-.26.53-6.37,13.26,1.66,26.39,5.52,9,10.77,18.86,7.83,23.37-1.47,2.26-6.08,4.57-19.7,2.75a2.27,2.27,0,1,0-.6,4.51,68.82,68.82,0,0,0,9.16.68c7.65,0,12.58-1.81,15-5.46,4.52-6.95-1.64-18.21-7.76-28.23A24,24,0,0,1,1603.07,494.31Z"/><path class="cls-41" d="M1610.65,501.92c-2.27.24-3.84,2.77-3.52,5.66s2.41,5,4.68,4.78,3.84-2.78,3.52-5.66S1612.92,501.68,1610.65,501.92Z"/><path class="cls-41" d="M1576.48,502.63c-2.27.25-3.85,2.78-3.53,5.66s2.42,5,4.69,4.79,3.84-2.78,3.52-5.66S1578.75,502.39,1576.48,502.63Z"/><path class="cls-41" d="M1587.79,484.65c-5.88-3.72-19.68-7.51-29.79,4.81a4.32,4.32,0,0,0,6.68,5.48c7.61-9.27,17.4-3.66,18.51-3a4.32,4.32,0,0,0,4.6-7.31Z"/><path class="cls-41" d="M1623.22,480.48c-12.77-3.88-19,3.85-19.23,4.18l6.83,5.31-.07.09c.3-.35,3.18-3.37,10-1.31a4.32,4.32,0,1,0,2.51-8.27Z"/><g class="cls-43"><path class="cls-44" d="M1549.28,518c-10,.23-18,4.11-17.89,8.67s8.29,8.06,18.28,7.83,18-4.1,17.89-8.66S1559.26,517.79,1549.28,518Z"/></g><path class="cls-45" d="M1612.62,398c-34.36,15.37-85-1.34-85-1.34,5.45,6.62,29,16.06,29,16.06l-12.23,6.16c50.5,22.85,67.86,5.47,67.86,5.47-15.92,4.47-33.59-6.09-33.59-6.09C1606,414.17,1612.62,398,1612.62,398Z"/><path class="cls-18" d="M3070.43,517.68c-17.13-6-36.42,4.19-43.1,22.79-.12.34-.2.69-.32,1-25.92-9.56-73.7-35.95-95.6-104.53,0,0-43.22,27.47-44.25,97.69s-.78,111.93,59.13,98.73l-1.16,44a24,24,0,0,0,14.86,22.9c8.15,3.33,19.68,5.8,34.78,3.94,49.52-6.08,67-34.61,67-34.61l-1.87-79.75c15.21-6.54,23.37-10.6,29.47-27.58C3096,543.64,3087.56,523.7,3070.43,517.68Z"/><path class="cls-19" d="M2946.29,633.39l-.49,24.24c50.78,7.71,81.57-52.29,81.57-52.29C2988.17,604.53,2946.29,633.39,2946.29,633.39Z"/><path class="cls-19" d="M3069,528.16c-17.85,6.46-24.82,33.45-20,50.19l0,.34c-.09,1.47,2.23,1.54,2.55.2.93-4,1.69-8.37,3.49-12.12,2.54-5.29,6.24-7.26,12-7.52.39,0,.58-.65.17-.8-7.87-3-12.57,1.14-15.24,7.06,1.54-14,5.32-28,17.26-36.87C3069.44,528.46,3069.27,528.05,3069,528.16Z"/><path class="cls-18" d="M2925.2,401.53s-92.36,185.29-15.51,232.22c51.52,31.45,140.16-47.11,140.16-47.11l-13.48-42.28C3041,536.86,3121.63,393.54,2925.2,401.53Z"/><path class="cls-4" d="M2925.2,398.83a111.54,111.54,0,0,0-4.15,13,26.52,26.52,0,0,0-1.32,4c-.75,2.84-1.39,5.72-1.88,8.62a103.53,103.53,0,0,0-1.34,17.14,93.75,93.75,0,0,0,1.63,17.53c1,5.42,2.31,11.42,4.84,16.37.29.57,1.27.39,1.15-.31-.48-2.73-1.33-5.42-1.9-8.14s-1.08-5.49-1.48-8.26c-.47-3.24-.77-6.5-1-9.76,14.06,68.92,119.93,103.75,119.93,103.75s-3.32-26.6,8.91-35C3061.44,508.85,3089.83,382.26,2925.2,398.83Z"/><path class="cls-4" d="M2923.56,405.59c-7.15,0-20.57,14.61-31.51,38.75s-8.77,72.3-3.59,56.22c5.32-16.51,28.06-53.85,28.06-53.85S2930.71,405.59,2923.56,405.59Z"/><path class="cls-19" d="M2910.65,557.36a58.87,58.87,0,0,0,5.07-5.24c4.85-6.21,4.93-16,4.93-16.4a2.47,2.47,0,0,0-2.47-2.47h0a2.46,2.46,0,0,0-2.47,2.46c0,2.35-.72,9.31-3.88,13.37a60.29,60.29,0,0,1-4.62,4.73c-6.32,6.13-14.2,13.75-13.23,20.22.26,1.71,1.27,4.1,4.63,5.81,10.7,5.43,16.73,6.52,17,6.57l.43,0a2.47,2.47,0,0,0,.42-4.9c-.05,0-5.65-1.06-15.6-6.11-1.6-.81-1.89-1.61-2-2.14C2898.28,569.34,2906,561.84,2910.65,557.36Z"/><path class="cls-41" d="M2946.32,539.38c-2.13-.38-4.26,1.52-4.77,4.25s.82,5.25,2.95,5.64,4.26-1.52,4.77-4.25S2948.45,539.77,2946.32,539.38Z"/><path class="cls-41" d="M2906.44,535.12c-2.16-.07-4,2.12-4.08,4.89s1.58,5.08,3.75,5.15,4-2.12,4.08-4.89S2908.6,535.19,2906.44,535.12Z"/><path class="cls-41" d="M2936.13,518.52a4.94,4.94,0,0,0,3.79,9.13c7.14-3,13.13,2.18,13.43,2.45a4.94,4.94,0,0,0,6.65-7.31C2959.56,522.39,2949.19,513.1,2936.13,518.52Z"/><path class="cls-41" d="M2895.31,519.28a4.94,4.94,0,0,0,6.07,7.8,8.62,8.62,0,0,1,11.07,0,4.94,4.94,0,0,0,6.4-7.53C2914.91,516.21,2904.93,511.81,2895.31,519.28Z"/><path class="cls-19" d="M2967.74,556.42c-11.19,0-20.27,4.11-20.28,9.25s9,9.34,20.22,9.38,20.27-4.11,20.28-9.25S2978.92,556.46,2967.74,556.42Z"/><path class="cls-46" d="M3086.26,506.39s-104.83-78.08-103.5-117.77c0,0-7.58,37.49-2.6,64.72,0,0-19.46-13.79-19.79-24.28,0,0-5.15,50.76,60.87,79.3,0,0-31.53-38.61-27.55-65.18C2993.69,443.18,3020.24,485.39,3086.26,506.39Z"/><path class="cls-47" d="M2914.17,595.9s2.31,9.36,8.47,15A15.29,15.29,0,0,0,2931,615c6.88,1,9.41-4.65,10.31-10a36.45,36.45,0,0,0,.35-8.61A44,44,0,0,1,2914.17,595.9Z"/><path class="cls-48" d="M2922.64,610.88A15.29,15.29,0,0,0,2931,615c6.88,1,9.41-4.65,10.31-10C2934.37,602.91,2925.91,604.66,2922.64,610.88Z"/><path class="cls-49" d="M2949.82,518.69a22.63,22.63,0,0,0-17.23,7.09,27.65,27.65,0,0,0-7.66,18.27c-.58,14.51,9.64,26.74,22.79,27.26.29,0,.59,0,.88,0a22.68,22.68,0,0,0,16.34-7.11A27.6,27.6,0,0,0,2972.6,546C2973.18,531.44,2963,519.21,2949.82,518.69Zm19.41,27.13a24.24,24.24,0,0,1-6.7,16,19.29,19.29,0,0,1-14.68,6.08c-11.28-.45-20-11.11-19.55-23.76l-1.69-.06,1.69.06a24.25,24.25,0,0,1,6.71-16,19.23,19.23,0,0,1,14.67-6.08C2961,522.51,2969.74,533.17,2969.23,545.82Z"/><path class="cls-49" d="M2891.17,516.34a22.67,22.67,0,0,0-17.22,7.1,27.59,27.59,0,0,0-7.67,18.27c-.57,14.51,9.65,26.74,22.79,27.26.3,0,.59,0,.89,0a22.68,22.68,0,0,0,16.34-7.11,27.65,27.65,0,0,0,7.66-18.27C2914.54,529.1,2904.32,516.87,2891.17,516.34Zm19.42,27.14a24.25,24.25,0,0,1-6.71,16,19.24,19.24,0,0,1-14.67,6.08c-11.29-.45-20.06-11.11-19.55-23.76a24.19,24.19,0,0,1,6.7-16,19.37,19.37,0,0,1,13.93-6.1l.75,0C2902.32,520.17,2911.09,530.83,2910.59,543.48Z"/><path class="cls-49" d="M2928.34,539.82c-.48-.27-11.83-6.55-17.37-.16a1.69,1.69,0,1,0,2.55,2.21c3.68-4.25,13.08.84,13.17.89a1.63,1.63,0,0,0,.82.22,1.69,1.69,0,0,0,.83-3.16Z"/><path class="cls-49" d="M3047.47,517l-77.34,21.82a1.69,1.69,0,0,0,.46,3.31,1.82,1.82,0,0,0,.46-.06l77.34-21.82a1.69,1.69,0,0,0-.92-3.25Z"/><circle class="cls-50" cx="3630.81" cy="1349.59" r="266.46" transform="translate(109.13 2962.66) rotate(-45)"/><circle class="cls-51" cx="3603.34" cy="1349.59" r="266.46"/><circle class="cls-14" cx="3603.34" cy="1349.59" r="217.46" transform="translate(101.09 2943.23) rotate(-45)"/><path class="cls-52" d="M3560.34,1152.07a5.87,5.87,0,1,0-11.39,2.81l6.66,27.06a5.87,5.87,0,0,0,11.4-2.81Z"/><path class="cls-52" d="M3651.07,1517.24a5.87,5.87,0,0,0-11.4,2.81l6.67,27.06a5.87,5.87,0,1,0,11.4-2.8Z"/><path class="cls-52" d="M3798.06,1295.2l-27.07,6.66a5.87,5.87,0,0,0,2.81,11.4l27.06-6.67a5.86,5.86,0,1,0-2.8-11.39Z"/><path class="cls-52" d="M3432.88,1385.92l-27.06,6.67a5.87,5.87,0,0,0,2.81,11.4l27.06-6.67a5.87,5.87,0,0,0-2.81-11.4Z"/><path class="cls-52" d="M3707.42,1176.75a5.87,5.87,0,0,0-8.06,2l-7.34,12.15a5.87,5.87,0,0,0,10,6.07l7.34-12.15A5.87,5.87,0,0,0,3707.42,1176.75Z"/><path class="cls-52" d="M3514.29,1497.57a5.87,5.87,0,0,0-8.05,2l-9.09,15a5.87,5.87,0,1,0,10,6.07l9.09-15A5.87,5.87,0,0,0,3514.29,1497.57Z"/><path class="cls-52" d="M3774.24,1445.78l-12.15-7.35a5.87,5.87,0,0,0-6.07,10l12.14,7.34a5.87,5.87,0,1,0,6.08-10Z"/><path class="cls-52" d="M3453.41,1252.65l-15-9.08a5.87,5.87,0,0,0-6.07,10l15,9.09a5.87,5.87,0,1,0,6.07-10Z"/><path class="cls-52" d="M3601.73,1339.16l-96.1-58.37a6.48,6.48,0,0,0-6.73,11.07l96.1,58.37a6.48,6.48,0,1,0,6.73-11.07Z"/><path class="cls-52" d="M3660.19,1264.75a6.47,6.47,0,0,0-8.9,2.17l-48.77,80.3a6.48,6.48,0,1,0,11.07,6.72l48.77-80.29A6.47,6.47,0,0,0,3660.19,1264.75Z"/><path class="cls-51" d="M3597.72,1326.79a23.49,23.49,0,1,0,28.43,17.18A23.47,23.47,0,0,0,3597.72,1326.79Z"/><path class="cls-14" d="M2675.53,832.76,2285.07,951.64a374.89,374.89,0,0,0,188.74,225l21.92,11.15,136-41.41,12.2-21.75a374,374,0,0,0,31.59-291.86Z"/><path class="cls-14" d="M2654.13,1157.37l-21.93-11.14-136,41.41-12.2,21.75a374,374,0,0,0-31.59,291.85l390.46-118.88A374.9,374.9,0,0,0,2654.13,1157.37Z"/><g class="cls-53"><path class="cls-54" d="M2654.13,1157.37l-21.93-11.14-.46.14,12.2-21.75a374,374,0,0,0,31.59-291.86L2285.07,951.64h0a374.89,374.89,0,0,0,188.74,225l21.92,11.15.46-.14-12.2,21.75a374,374,0,0,0-31.59,291.85l390.46-118.88h0A374.86,374.86,0,0,0,2654.13,1157.37Z"/></g><g class="cls-55"><path class="cls-14" d="M2644.66,1160.25l-19.82-11.78-.4.12,10.06-21.1c41.12-86.25,47.59-190.16,17.89-287.68h0l-342,104.11c29.7,97.54,92.92,180.28,175.07,229.15l19.82,11.79.4-.12-10.06,21.1c-41.12,86.25-47.58,190.16-17.89,287.68h0l342-104.11C2790,1291.87,2726.82,1209.12,2644.66,1160.25Z"/></g><path class="cls-56" d="M2634,882.81l-286.6,87.26c23,75.58,86.48,135.69,149,178.65A206.71,206.71,0,0,0,2544.3,1173l39.33-12a395.05,395.05,0,0,0,22.12-45.42c28.87-70.74,51.32-157.1,28.27-232.79Z"/><path class="cls-57" d="M2634,882.81,2379.4,960.33c29.13,122.36,208.51,211.69,233.83,136.82,21.28-62.9,41.05-147.8,20.79-214.34Z"/><path class="cls-54" d="M2492,926.05c16.25,68.26,131.92,115.11,146.05,73.35,11.87-35.09,7.29-79.47-4-116.59Z"/><rect class="cls-56" x="2574.89" y="1162.32" width="41.11" height="216.17" transform="translate(-257.49 811.04) rotate(-16.93)"/><path class="cls-56" d="M2735.56,1348.1l-104.28-20.62-36.55,11.13-73.32,75.91a71.92,71.92,0,0,0-17.08,70.91l286.6-87.25A72.58,72.58,0,0,0,2735.56,1348.1Z"/><path class="cls-51" d="M2699.52,763.78a10.63,10.63,0,0,0-13.28-7.07L2233.79,894.46a10.65,10.65,0,0,0-7.08,13.28L2240.8,954a10.63,10.63,0,0,0,13.27,7.08l452.46-137.76a10.62,10.62,0,0,0,7.07-13.27Z"/><g class="cls-58"><path class="cls-52" d="M2709.66,797.09a10.63,10.63,0,0,0-13.28-7.07L2243.93,927.77a10.65,10.65,0,0,0-7.08,13.28l4,13a10.63,10.63,0,0,0,13.27,7.08l452.46-137.76a10.62,10.62,0,0,0,7.07-13.27Z"/></g><path class="cls-51" d="M2887.14,1380a10.65,10.65,0,0,0-13.28-7.08l-452.45,137.75a10.65,10.65,0,0,0-7.08,13.28l14.08,46.26a10.65,10.65,0,0,0,13.28,7.08l452.45-137.75a10.65,10.65,0,0,0,7.08-13.28Z"/><g class="cls-58"><path class="cls-52" d="M2887.14,1380a10.65,10.65,0,0,0-13.28-7.08l-452.45,137.75a10.65,10.65,0,0,0-7.08,13.28l3.94,13a10.65,10.65,0,0,0,13.28,7.08L2884,1406.24a10.65,10.65,0,0,0,7.08-13.28Z"/></g><path class="cls-18" d="M3289.2,1132.39c-21.59-14.2-63.87-7.9-63.87-7.9s-26.27,3.34-83,39.39q-7.84,5-16.49,10.85c-41.56,27.39-148.5,98.18-165.2,112.07-14.27,11.89-29.69,23.4-41.12,28.54-28.05,12.58-49.35,1-74.51,7.73s-62.87,18.38-76.44,19.37-6.05,22.49,23,20.56,53.46-1.48,50.79,10.15-42.56,38.7-63.82,46.43-50.74,11.76-51.52,22.49c-.29,3.62,23.68,8.72,54.15,9.7,28.21.91,74.51,7.73,120-7.77,35.85-12.17,58.1-51.77,106.7-85.53q6.07-4.21,12.73-8.29c66.28-25.75,135.88-44.18,192.49-81.26,28.32-18.54,53.38-41.78,73.17-72.91,9.78-15.38,14.35-27.57,15.21-37.21C3302.65,1146.05,3297.41,1137.74,3289.2,1132.39Z"/><path class="cls-19" d="M3225.33,1124.49s-26.27,3.33-83,39.39c53,39,67.45,79.54,70.73,105,28.32-18.54,53.38-41.78,73.17-72.91,9.78-15.38,14.35-27.57,15.21-37.21l-12.26-26.41C3267.61,1118.19,3225.33,1124.49,3225.33,1124.49Z"/><path class="cls-33" d="M3341.72,1096.52c-.68-1.9-1.44-3.9-2.19-6-.43-1.18-.88-2.36-1.34-3.6-5.17-14.24-11.62-32.18-18.76-52.51-1.11-3.11-2.22-6.28-3.37-9.52-7.36-21.09-15.38-44.39-23.44-68.65-1.08-3.21-2.16-6.41-3.2-9.65-6.26-18.92-12.51-38.3-18.5-57.55-1.47-4.78-3-9.36-4.45-13.81-1.11-3.28-2.23-6.48-3.31-9.59-12.57-35.42-25.3-60.3-36.27-77.55-1.08-1.7-2.19-3.34-3.37-5a103.93,103.93,0,0,0-6.64-8.44c-16.83-19.41-29.36-41.92-55.16-45-45.11-5.4-77.18,31.28-85.11,69.91l-1.7,9.88c-3.8,26.88-1.93,58,2.62,86.95.52,3.4,1.11,6.77,1.74,10.11a411.12,411.12,0,0,0,11.42,47.56c2.16,7,4.19,14.18,6,21.44,1,3.44,1.84,6.94,2.66,10.41,4.42,18,8.11,36.4,11.22,54.08v0c.63,3.54,1.22,7.07,1.77,10.54v0c3.37,20.3,5.89,39.32,7.73,55.19.06.69.16,1.38.23,2,.36,2.85.65,5.6,1,8.22.06.82.13,1.57.23,2.35,2.12,19.94,3,32.51,3,32.51,165.6,13.09,226.45-29.26,226.45-29.26s-3-7.93-8-21.67C3342.57,1098.87,3342.15,1097.73,3341.72,1096.52Z"/><path class="cls-59" d="M2127.48,1132.87l29.32-12.51-94.11-70.64-14.12,116.82,31.64-13.5c84.5,139.69,245.54,79.58,245.54,79.58A217.8,217.8,0,0,1,2127.48,1132.87Z"/><path class="cls-59" d="M2284.88,561.9a217.78,217.78,0,0,1,198.26,99.76l-29.31,12.51,94.11,70.63L2562.05,628l-31.63,13.51C2445.92,501.8,2284.88,561.9,2284.88,561.9Z"/><rect class="cls-60" x="968.02" y="518.98" width="283.81" height="183.79" rx="36.26"/><polygon class="cls-60" points="1204.5 760.31 1204.5 685.01 1130.11 687.7 1204.5 760.31"/><path class="cls-14" d="M1042.63,590a16,16,0,1,0,16,16A16,16,0,0,0,1042.63,590Z"/><path class="cls-14" d="M1109.93,590a16,16,0,1,0,16,16A16,16,0,0,0,1109.93,590Z"/><path class="cls-14" d="M1177.22,590a16,16,0,1,0,16,16A16,16,0,0,0,1177.22,590Z"/></g></g></svg>